<?xml version="1.0" encoding="utf-8"?>
<!-- Generator: Adobe Illustrator 22.0.0, SVG Export Plug-In . SVG Version: 6.00 Build 0)  -->
<svg version="1.1" id="Layer_1" xmlns="http://www.w3.org/2000/svg" xmlns:xlink="http://www.w3.org/1999/xlink" x="0px" y="0px"
	 viewBox="0 0 10446.8 3286.8" style="enable-background:new 0 0 10446.8 3286.8;" xml:space="preserve">
<style type="text/css">
	.st0{fill:#EDF4FB;}
</style>
<path class="st0" d="M-36.5,2203c-28.2,40.1-99.9,40-168.3,44.4c-3-8.1-5.6-16.2-8-24.2c27.2-2.4,50.9-10.4,69.9-19
	c-1.2,2.7,4.1,9,7.3,13.3c-2.3,0.1-4.5,0.3-7.1,0.3c11.9,6.8,10.7,4.3,7.1-0.3C-96.7,2216.1-78.2,2202.9-36.5,2203 M-182.2,2293.2
	c11.8,6.8,10.6,4.4,7-0.3C-177.6,2292.9-179.7,2293.2-182.2,2293.2 M512.8,2263c-5.4,1.7-10.6,3.4-16,5l5,0
	C505.5,2266.4,509.2,2264.7,512.8,2263 M392.2,2380.3c-17.8,9.2-34.9,19-51.3,29.7c-86.8,39.8-233.7,25.8-345.2,43.9
	c13.4,22.1,30.4,44.7,53,68.1c154.6,24.6,259.6-15.4,405.5-2.1l1.4-2.4c24.2-44.9,130.3-29.4,175.4-66.4
	c39.5-44.7,101.8-59.1,147.6-96c-106.4-1.1-195.1,14.4-309.8,0C443.9,2364.2,418.5,2372.8,392.2,2380.3 M492.7,2346.5
	c-7.4-0.4-14.6-0.7-21.8-1c-6.4,2.4-12.5,4.9-18.6,7.5c5.5,0.7,10.9,1.4,16.3,2.2C476.7,2352.3,484.9,2349.5,492.7,2346.5
	 M846.1,2542.9c1.1,0.3,2.2,0.6,3.3,0.8c19.9-4.1,40.7-7.5,61.8-10.8c22.6-13.3,48.2-24.7,76.7-33.1
	C930.8,2507.7,874.8,2516.1,846.1,2542.9 M11288.1,3123.8c4.5-0.1,8.6-0.3,13.2-0.3C11283.8,3116.7,11284.5,3119.2,11288.1,3123.8
	 M11672.8,2483.1c-1.7-8.6-3.7-17.3-6.4-25.9c-136.4,19-278.3,33.4-347.9,84.9c81.8-8.5,123.1-27.2,200.2-36.9
	c-5.3-4.5-6.7-7.1,14.1-1.7c-5.1,0.5-9.4,1.2-14.1,1.7c4.7,4.3,12.7,10.3,9.3,13.7C11568.6,2505.3,11618.3,2491.3,11672.8,2483.1
	 M11625.7,2411.4c4.8-0.6,9.2-1.3,14.1-1.8C11619,2404.3,11620.5,2406.8,11625.7,2411.4 M11844.8,2955c-0.8-8.3-2-16.7-3.7-25.1
	c-126.3,11.1-257.4,17.5-324.5,63.2c75.2-4.1,114.5-19.7,185.6-25c-4.5-4.6-5.6-7.1,13-0.9c-4.7,0.2-8.7,0.7-13,0.9
	c4,4.3,10.9,10.5,7.5,13.5C11747.8,2970.8,11794.3,2960,11844.8,2955 M11807.6,2884.2c4.5-0.3,8.5-0.8,13-1
	C11802.1,2877.1,11803.2,2879.5,11807.6,2884.2 M17,2944.6c14.7,7.6,15,5.3,13.3,0.7C25.8,2945,21.6,2944.9,17,2944.6
	 M-1057.2,1415.2c21-2.5,40.7-6.6,58.5-14.3c-28.2-2.8-51.3-3.6-74.2-3.3c-22.9,0.1-45.7,0.4-72.9-2.6c0.6,4.4,0.1,6.6-9.9-1.1
	c3.5,0.5,6.7,0.7,9.9,1.1c-0.5-4.1-1.9-10.2,2.2-12.2c-33.4,3.4-73.3,5.5-112.8,2.3c-4.5,6.9-8.8,13.9-12.8,20.9
	c49.5,4.7,99.1,10.4,145.5,11.6C-1100.7,1418.2-1078.3,1417.6-1057.2,1415.2 M-1284,1446.8c9.8,7.7,10.6,5.5,10.3,1.1
	C-1277.2,1447.5-1280.5,1447.2-1284,1446.8 M-344.3,1941c-44.5,16.7-73.8,23.1-91.3,23.8c-4.4,9.6-10.5,21.3-19.7,35.8
	c3.2,0.3,6.5,0.6,9.7,0.9c51.2-8.2,103.1-15.2,155.3-21.4c19.5-7.2,37-15.5,49.4-26.6C-274.6,1949.4-310.5,1944.1-344.3,1941
	 M-435.6,1964.9C-399.1,1882.8-504,1967.7-435.6,1964.9 M-287.4,1521.7c-8.5,1.1-16.5,2.1-24.9,3.2l7,0.4
	C-299.4,1524.1-293.3,1522.9-287.4,1521.7 M443,1742.2c-11.6,14.1-33.9,27.8-65.4,26.5c-39.5,1.2-77.7,4.8-114.4,10.2
	c79.4-4.3,159.5-8.5,215.6-27.8C468.5,1750.6,453.4,1742.6,443,1742.2 M-128.4,1623.5c-17.9-0.4-35.9-1.2-53.9-1.8
	c-72.1-2.9-145-7.4-222.1-19.4c-41.3,5.5-84,9.6-127.6,13.1c-32.4,5.9-64.8,12.4-97.1,19.8c-19.9,2.9-40.3,5.3-61.9,6.3
	c-21.6,0.9-43.9,1.1-66.7,0.7c-45.6-0.7-93.1-3.5-141.2-7.1c-24.1-1.9-48.4-3.8-72.6-5.8c-24.6-2.6-49.2-5.2-73.7-7.7
	c-49-4.9-97.7-9.3-145.4-11.6c-3.3,20.3-1.8,41.6,7.9,64.8c54.6,13.3,109.1,22.7,163.1,30c26.9,3.5,54.2,7.1,80.5,9.1
	c26.4,2.1,52.7,3.9,79,5.6c104.9,6.4,209.3,12.8,314.7,27.3c1.3-0.7,2.7-1.2,4-1.9c36.4-18.1,91.2-20.3,149-21.4
	c57.6-1.2,116.6-3.1,161.6-17.7c43-18.7,88.9-29.4,134.2-40.2c45-11.1,90-21.3,131.4-37.2c-37.3-2.1-73.5-3.1-109.4-3.8
	C-92.7,1624.1-110.5,1623.8-128.4,1623.5 M-364.7,1596.6c-10.2-1-20.2-2-30.3-3c-10.6,1.6-20.8,3.5-31.3,5
	c7.4,1.4,14.7,2.6,21.9,3.7C-391.1,1600.4-377.7,1598.6-364.7,1596.6 M2965.8,115.3c2-25.9,8.3-38.2,15.7-42.3
	c-9.1-10.9-19.8-24.3-32.4-41.2c-1.8,0.3-3.7,0.6-5.5,0.9c-14.4,18.3-30.7,35.4-48.3,51.8c-0.8,11.3,0.1,23.2,6.2,37
	C2923.6,119.9,2945.9,118.4,2965.8,115.3 M2981.5,73.1C3059.5,166.1,3010.6,57.1,2981.5,73.1 M2489.4,184.5
	c-6.6,1.3-19.7,4-26.3,5.3c2.4,5.1,4.8,10.2,7.2,15.3c6.7-0.9,13.5-1.7,20.5-2.4L2489.4,184.5z M3307.4,210.3
	c0.3-3.6,0.8-6.9,0.8-10.8c-37.8-15.6-52.7,1.8-62.2,25.9C3266.2,220,3286.7,214.9,3307.4,210.3 M3256.1,292.6
	c18.6-10.6,34.7-25.1,44-48.1C3272.5,242.7,3263.5,267.1,3256.1,292.6 M4232.3,362.6c-0.3-2.3-0.9-4.7-1.4-7.1
	c-12.5,0.6-23.5,1.5-33.8,2.5C4215.2,360.3,4232.3,362.6,4232.3,362.6 M4189.5,441.5c-1.5-2.1-2-4-3-6.1c-2.2,1.6-4.3,3.3-7,4.8
	C4182.8,440.7,4186.1,441.1,4189.5,441.5 M4230.9,355.2c-5.4-26.5-24.8-54.9-8.4-78.5c21.8,3.4,65.4,10.2,87.3,13.6
	c21.8-10.6-0.3-28.1-0.7-42.3c22.9,3.6,45.7,7.3,45.9,0.4c2.6-4.2,3.6-8.2,3.1-12.1c-0.5-3.9-1.8-7.5-7.3-11.4
	c-10-7.5-28-14.6-51.2-20.5c-25.2,15.8-59,26.8-89.6,37.1c-30.5,10.5-58.7,19.5-75.6,29.2C4100,290,4113,312.2,4230.9,355.2
	 M4193.7,358.3c-25.5,2.6-45.3,6.4-61.6,12.1c-16.3,5.7-28.7,13.8-40,24.2c31.3,3.1,63.4,7.3,95.7,11.5
	C4194.7,390.7,4206.6,376.1,4193.7,358.3 M-468.2,632.1c-80.9-2.9-128.7,8.1-206.3,6.2c2.7,4.6,2.9,7-14.2-0.3
	c5,0.2,9.5,0.2,14.2,0.3c-2.4-4.3-6.9-10.6-2.1-13c-44.9,6.4-98.8,11.9-154.3,11.8c-2.8,7.7-5.2,15.4-7.1,23.2
	C-699.6,661.7-557.9,668.3-468.2,632.1 M-822.6,705c-4.9-0.1-9.4-0.1-14.2-0.3C-820,711.9-820.1,709.6-822.6,705 M1321.8,588.3
	c67.4-2.1,135.7-3.2,204.7-4c77.8-7.3,129.4-33.9,181.7-59.8C1570.4,547.3,1419.4,559.7,1321.8,588.3 M1984.8,419.1
	c-111.9-11.5-179.1,7.9-237.2,34.9c75.2-7.8,150-15.5,224.4-23.2C1976.2,427,1981.1,423.3,1984.8,419.1 M1708.2,524.5
	c77.5-13.4,149.7-30.6,205.2-56.1C1820.6,469.5,1763.9,496.4,1708.2,524.5 M548.4,716.2c-11.8,1.5-23,3-34.6,4.5
	c3.2,0,6.5,0.1,9.7,0.1C531.8,719.3,540.2,717.8,548.4,716.2 M392.9,805c-55.8,7.7-112.6,14.9-170.8,21.1
	c-42.6,8.2-84.6,16.9-126.4,26.1C-7.7,868.7-129.9,872-257,870.8c-63.7-0.7-127.9-1.4-191.7-2.2c-64-0.9-127.1-1.2-187.8,0.6
	c5.5,21.7,17.8,44.2,40.7,67.8c72.8,9.1,143.3,14.2,212.5,17c68.9,2.4,136.4,2.6,203.7,2.4l100.8-0.3c33.5-0.3,67-0.4,100.8-0.2
	c67.6,0.5,136,2.4,206.7,7.6c1.6-0.8,3.3-1.4,4.8-2.2c86.6-42.5,286.4-22.2,404.3-57.8c112.9-42.2,244.8-55.9,359.5-92
	c-103-1.3-200.2,2-298.9,2.8C599.4,814.9,499.8,814.1,392.9,805 M1747.6,454c-49.2,5.3-98.7,10.6-148.6,16
	c-67.8,9.6-130.6,20.3-190.9,32.2c-60.5,11.7-118.9,24.1-177.2,37.9c98.2-4.1,198-6.6,299.7-7.8
	C1626.3,523.4,1681.7,484.8,1747.6,454 M791.2,614.2l87.9-11.1l86.8-12.4c57.6-8.5,114.6-17.6,170.6-27.6c31.8-8,63-15.7,94.4-23
	c-36.2,1.7-72.4,3.4-108.6,5.1c-36.1,1.8-72.1,3.6-108.1,5.4c-71.7,4.2-143.1,8.3-214.6,12.5c-112.4,13.9-225.6,27.3-339.8,40.1
	c-57,6.6-113.7,13.6-170.5,20.9c-56.9,7-113.6,14.6-169.9,23c-25.9,3.4-52.1,6-78.5,8.1c474.7,21.1,948.5,34.6,1262.5-61.2
	c5.6-2,12.2-3.7,18.3-5.6c-90.1,2.8-178.8,7-267.2,11.2C966.3,604,879.1,609.5,791.2,614.2 M446.8,797.4c-14.1-0.6-28-1.1-41.9-1.7
	c-14.3,2.2-28.3,4.4-42.4,6.5c10.2,0.9,20.3,1.9,30.4,2.8C411,802.5,429.1,800.3,446.8,797.4 M995.8,998.6c2,0.3,4,0.6,6,0.8
	c42.6-3.8,86.6-6.9,131-9.9c54.7-12.9,112.9-24.6,174.9-33c-58.9,3.9-117.4,8.2-171,14.4C1082.9,977,1034.4,985.4,995.8,998.6
	 M11661.4,3339.9c1.4-8.1,2.5-16.2,2.9-24.4c-143.7,5.9-292,6.7-378.3,48.6c84.4-1.4,132.5-14.6,213.1-17c-3.7-4.6-4.3-7.1,14.7-0.4
	c-5.3,0-9.9,0.3-14.7,0.4c3.3,4.3,9.3,10.6,4.7,13.4C11549.1,3351.5,11603.8,3342.8,11661.4,3339.9 M11639.8,3270
	c5.1-0.1,9.7-0.4,14.8-0.4C11635.8,3262.9,11636.3,3265.4,11639.8,3270 M11837.1,3833.1c92-10.1,139.8-30,226.5-41.2
	c-5.3-4.5-6.7-7.1,15.8-2.1c-5.7,0.6-10.6,1.4-15.8,2.1c4.8,4.2,13.1,10.3,8.9,13.8c46.6-14.6,103.3-29.8,164.7-39.2
	c-1-8.8-2.3-17.6-4.4-26.3C12079.2,3762,11920.4,3779.4,11837.1,3833.1 M12208.1,3692.3c-22.4-5-21.1-2.5-15.8,2.1
	C12197.7,3693.7,12202.6,3692.9,12208.1,3692.3 M10693.1,3889.2c-3.7,0.4-7.4,0.8-11.1,1.3c-8.7,2.9-17.9,5.7-26.5,8.6
	C10668.3,3895.8,10680.5,3892.5,10693.1,3889.2 M10740.1,3796.7c16.1-1.4,32-2.8,47.8-4.3c15.3-4.4,30.1-8.9,44.9-13.4
	c-11.8,0.5-23.5,1-35.1,1.6C10778.4,3785.9,10759,3791.2,10740.1,3796.7 M12645.8,4630.9c-125.2,12-254.8,19.6-320.9,65.7
	c75.1-4.4,113.5-20.5,184.2-26.3c-4.6-4.6-5.8-7.1,12.9-1c-4.6,0.3-8.7,0.7-12.9,1c4.1,4.3,11.1,10.5,7.9,13.6
	c37.7-11.2,83.5-22.4,133.6-27.8C12649.3,4647.8,12647.8,4639.4,12645.8,4630.9 M12623.5,4584.1c-18.6-6-17.4-3.5-12.9,1.1
	C12615,4584.9,12619,4584.4,12623.5,4584.1 M10665,4874.2c-64.2,5.7-129.3,10.8-196,14.6c-73.6,11.1-117.8,41.1-163.7,70.3
	C10434.7,4929,10578.6,4909.4,10665,4874.2 M10051.1,5078.4c113.1,8.2,176-15.2,228.5-45.2c-72.5,11.4-145,22.3-217.5,32.7
	C10058.5,5070,10054.2,5074,10051.1,5078.4 M10305.3,4959.1c-73.2,16.9-140.9,37.5-191.1,66.1
	C10205.2,5020.3,10256.3,4990.2,10305.3,4959.1 M11219.8,4233.1c37.9-25.1,64.6-36.7,82.7-40.3c-1.4-11-2.2-24.5-2-41.5
	c-3.5,0.2-7.2,0.4-10.6,0.6c-48,17.1-98.2,32.9-149.9,48c-16.3,11-30.7,22.6-39,36.2C11141.2,4235.7,11181.5,4235.1,11219.8,4233.1
	 M11302.4,4192.7C11314.5,4286.7,11373.2,4178.6,11302.4,4192.7 M11357.6,4692.5c10.4-2.4,20.2-4.9,30.5-7.2c-3,0.2-6.1,0.4-9.1,0.6
	C11372,4688,11364.6,4690.2,11357.6,4692.5 M10437.6,4516.2c49.4-6,96.4-14.4,140.7-24.6c-98.3,14.1-197.6,28.1-264.1,55.6
	c13.2-0.8,34.1,6,47.3,5.2C10373.1,4535.9,10397.7,4518.6,10437.6,4516.2 M610.8,3209c-32.2-0.5-64.6-1.2-97.1-2.2
	c-32.5-0.9-66.1-3.4-99.5-5.8c-67-5-135-12.3-204.4-23.5c-18.4-23.7-26.6-45.8-28.5-67.1c58.7,0.2,119.3,2.5,180.6,5.4
	c30.7,1.6,61.4,3.1,92.1,4.7c30.3,0.9,60.5,1.9,90.7,2.8c60.1,1.6,119.3,2.4,175.8,1.2c11.6-0.3,23-0.7,34.4-1.1
	c-13.6-6.2-27.1-12.5-40.4-18.9c-35.9,0.7-72.1,1-108.7,0.8c-34.1-0.1-68.5-0.7-103.1-1.6l-52-1.7c-17.5-0.8-35.3-2.1-53-3.2
	c-70.9-4.9-142.4-11.4-214.3-19.8c1.7-8.6,4.3-17.1,7.5-25.5c66.7,3,133.8,7.2,195.5,6.6c31,0,60.2-2.1,87.1-6.1
	c27-3.9,51.9-9.8,73.8-18.2c-76.4-4.6-122.2,6.4-196.6,1.6c-1.9-4.3-5.5-10.5-0.6-12.7c-43.6,4.8-95.9,8.4-149.3,6.6
	c9.1-17.9,20.2-35.4,30.9-53c20.5-12.8,60.8-9.6,97.7-13.9c42.2,0.5,83.7,0.6,125,1.3c4.8,0.1,9.5,0.2,14.2,0.3l-114.4-76.2
	c-17.9,5.9-37.7,9.8-58.8,12.5c-26.4,3.4-54.8,4.9-84.5,5.3c-59.5,0.7-124-3.2-188.1-6c2.9-7.5,6.3-14.9,9.9-22.3
	c51.3,1.7,101.6-2.1,143.6-7c-4.7,2.2-1.3,8.5,0.4,12.7c-4.3-0.3-8.4-0.4-13-0.7c14.8,7.6,15,5.3,13,0.7c35.6,2,64.7,0.8,94.2-0.3
	c23.5-1,47.5-1.2,75-0.4l-221.7-147.6l488.9-19.5c0.8,0,1.7-0.1,2.5-0.1c-1.5-14.2,4.8-25.2,15.3-0.6c13-0.5,26-0.9,38.9-1.4
	c2.2-2.7,4.5-5.5,6.9-8.7c20.9,0.3,43.1,2.1,65.6,4.2c-0.1,0.6-0.3,1.2-0.4,1.8l13.9-0.5c-4.5-0.4-9-0.9-13.5-1.3
	c0.4-1.8,0.8-3.7,0.9-5.8c8.9-7.4-16.5-95.6-55.2-118.3c-110.6,1.1-240.1,36.1-245.7,28.6c-30.3-30.2,131.6-68.7,118.8-76.3
	c-13.3-3.4-26.2-6.3-38.8-8.9c5.6-6.1,10.9-12.3,14.7-19.4c16.2-7.4,51,0.3,54.3-14.7c17.3-44.8,87.1-29.3,123.3-58.9
	c19.9-22.3,41.7-52,63.6-81.7c-11-15,16.6-7.3-1.8-22.5c41.6,0.4,89.6,0.9,75.4-42.8l2.2-1.2c2.9,0,5.3-2.4,7.3-5.8
	c75,8.6,93-32.7,135.4-60.8c19-3.5,39.3-5.8,62-5.4c-14.9-0.2-42.5-8-52-0.7c-3.5,2-6.8,4-10,6.2c-49.2,9.2-88.1,28.7-129.6,44.4
	c-1.1,4.4-2.9,11.5-5.8,16.4c-4.1-0.4-8.3-0.9-12.8-1.7c1.3,3.1,2.4,6,3.3,8.7c-35.3,20.9-87,28.3-114.1,50
	c-62.8,24.8-158.9,11.6-245.3,6.7c32-12.3,62.6-25.6,92-39.9c-40.7,12.5-78.4,25.1-113.8,38.9c-7.3-0.3-14.4-0.5-21.4-0.5l-44-0.2
	c16.2,3.4,31.7,6,46.9,8.3c-20.9,8.5-41.1,17.5-60.2,27.3c-120.4,34.3-257.1,52.3-413.9,40.5c-4.2-9.2-7.9-18.3-11.2-27.3
	c67.9-4.4,139.2-4.4,167.1-44.3c-41.4-0.1-59.9,13-98.4,14.5c-3.3-4.3-8.4-10.6-7.2-13.3c-18.9,8.5-42.4,16.6-69.5,18.9
	c-5.8-19.5-10.3-38.8-14.8-58.1c3.1-15,25.1-15,41.3-22.5c85.3-12.8,177.9-8.7,258.2-26.5c85.9,3.3,171.7,6.6,253.1,5.9
	c-66,20.5-124.7,41.8-176.8,68.7c65.3-18.7,125.7-42.4,181.9-68.7c152.6-1.7,288.7-18.1,379-78c58.4-45.7,203.3-45.1,281.7-97.8
	c-35.7,5.2-67,12.6-89.5,24.6c-1.4,0.9-3.1,1.5-4.6,2.3c-14.5-0.9-28.8-1.5-43.1-2.1c-11,7-23.6,12.3-39.3,14.5
	c-37.5-0.5-74,0.1-109.7,1.6c11.5-7.3,25.5-13.3,41.1-18.7c-59.6-0.4-118.3,0.7-176.9,1.8c-45.2,15.4-91.8,28.9-138.8,41.7
	c88.8-11.1,179-20.8,274.6-24.8c-2.7,1.8-5.8,3.4-8.2,5.4c-139.8,92.3-388.6,81.6-639,71.9c12.6-2.7,24.8-6,36.7-9.9
	c87-33.5,181.9-57.2,276.4-81.8c-90.8-0.4-183.7-3.8-281.8-15.2c-23.9-23.6-37.4-46.1-44.2-68c236.6-10.1,515,10.2,714.3-27
	c21.3-5.3,42.6-10.4,64.1-15.4c-2.9-1.7-5.8-3.5-8.8-5.2c-216.7,23.5-451.1,32.4-696.5,19.7c-35.7,4.3-71.2,8.6-107.2,12.9
	c-110.1,14-232.6,23.1-360.3,32.5c-16.2,0.5-33,0.7-50.8,0.3c-18.1-0.6-36.7-1.6-55.5-2.8c-37.5-2.4-75.5-5.7-111-8.9
	c47.7-7.6,95.9-14.2,144.6-20c47.8-6.3,94.7-12.7,142.6-18.2c51.7,6.3,101.9,11.2,146.5,10.3c44.8-0.8,81.5-8.6,110-25.5
	c14.1-6.1,28.2-11.9,42.6-17.2c-49.5,5.5-98.8,10.9-147.8,16.4c-50.6,4.9-101.1,10.1-151.3,15.9c-30.6-3.9-61.5-7.8-92.5-11.8
	c-30.8-3.8-61.6-7.3-92.7-10.4c1-0.4,1.9-0.9,3-1.2l33.2-3.9l32.3-4.3c21.6-2.8,43.2-5.5,64.9-8c45.5,5.6,89.8,10,130.2,10.3
	c40.4,0.3,77-3.4,105.1-15.1c7.1-2.9,14-6.1,20.1-9.9c13.9-6.1,28-11.8,42.3-17.1c-30.2,3.3-60.4,6.7-90.4,10
	c-29.9,3.6-61.6,6.1-92.3,9.4c-38.3,3.9-76.7,7.9-114.9,12.4c-26.8-3.4-53.9-6.9-81-10.4c2-1.6,4.1-3.3,5.8-5.1
	c20.4-5.7,44.1-88.6,0.3-113.3c-84.1-4.3-186.7-5.5-267.3-4.8c-40.4,0.3-75.6,0.7-100.9,0.6c-25.1,0-41.3-1.4-41.7-3.1
	c-5.4-7.8,9.7-13.3,33.4-18.9c23.8-5.5,57.1-10,90.4-14c66.6-7.8,132.8-13.1,125.7-17.3c-17.9-4.8-35.6-9.1-53-13
	c13.3-4.6,26.1-9.4,37.2-15.2c15.1-2.2,34.5-0.5,52.1,0.2c17.4,0.5,32.9-0.3,40.5-6.9c55.9-39.2,148.5-18.3,219.2-42
	c41.5-19.4,88.4-45.9,133.9-72.5c-6.6-12.1,15.3-8.3,13.8-14.8l-34.6-11c-10.1,2.5-19.8,5.2-28.4,8.6c-25.1,4.8-52.1,7.2-80.2,7.9
	c-14.1,0.3-28.4,0.3-43-0.1c-14.7-0.6-29.6-1.6-44.7-2.8c-60.2-4.7-122.5-13.2-182.2-19.5c53-8.3,104.1-17.7,153.1-28.1
	c-63.9,7.8-124.5,15.9-183.4,25.2c-10.1-0.9-20-1.7-30-2.6l-63-5.7c20.9,5,41.4,9.3,61.7,13.2c-35.6,5-70.9,10.4-105.7,16.8
	c-49.9,3.9-101.1,6.6-153.3,8c-52.8,0.2-106.8-0.9-161.5-3.5c-27.3-1.3-54.8-3-82.5-5c-13.8-1-27.7-2.2-41.5-3.4
	c-13.9-1.3-28-3.2-42.1-4.9c-56.2-7.1-112.7-15.9-168.9-26.4c3.3-8.1,7.3-16.1,11.7-24c52.9,5.2,106,11.4,155.5,13
	c24.8,1,48.5,0,70.7-2.9c22.2-2.9,43-7.6,61.7-15c-59.8-7-98.1,2.1-156.6-5c-0.7-4.1-2.4-10.2,1.9-12.2
	c-35.6,3.1-78.1,4.8-120.4,1.2c11.2-16.7,23.6-33.1,35.6-49.5c18.7-11.5,49.9-7.2,79.6-10.1c33.1,1.9,65.5,3.2,97.8,5.2
	c32.3,2,64.3,4.3,96.2,6.5c31.9,2.2,63.6,4.2,95.1,5.5c31.6,1.7,62.7,0.6,93.7-0.6c58.4,6.6,117,13.2,175,19.3
	c29.1,3.3,57.9,5.3,86.5,7.6c28.6,2.1,57.1,4.1,85.3,5.8c-51.5,6.3-100.8,13.6-149.4,20.4c-48.6,6.5-96.1,13.8-143,22.5
	c53.4-4.2,105.3-9.8,155.4-16.5c49.9-7.3,97.8-16.4,144-26c30.1,1.6,59.8,3.2,89.2,4.2l-78.1-24.7l458.9-17.7
	c-12.6-9.1-24.7-18.4-36.4-27.9c-213.4,41.6-495.3,17.7-772.2-14.7c18.9-0.9,37.6-2.4,56.2-4.6c20.2-2.9,40.4-5.6,60.5-8.1
	c20.1-2.5,40.2-4.8,60.3-7.7c40.2-5.3,80.2-10.2,120.1-14.7c39.9-4.7,79.5-8.5,119.2-13.5l118.2-15.2c51.2-1.7,102.7-3.9,154.7-5.7
	c-17.1-23.4-29.3-47.1-37.1-70.2L-41.8,1157l305.9-6.4c46.5-1,92.7-2.2,139-3.3c2.9-0.9,5.6-1,7.9-0.2c88.2-2.3,176-4.9,263.5-7.9
	c14.7-27.7,16.6-83.6-29.4-101.6c-111.8-1-241.6,4.6-343.8,10.3c-102.6,5.1-178.1,9.6-180.5,5.9c-17-15.3,65.5-29.7,149.2-41.5
	c83.4-12.3,168.2-21.8,158.4-25.8c-23.9-3.9-47.4-7.3-70.6-10.2c16.4-5.6,32.2-11.4,45.8-18.1c38.6-6.5,102.1,2.5,120.9-11.9
	c70.1-43.4,196.4-26.1,290.2-54.4c55.7-21.8,119.6-51,182.7-80.2c-11.1-15,37.3-7,11.8-22.3c79.9,0.5,172.4,0.8,173.1-43l4.9-1.2
	c5.6,0,11.7-2.4,17.6-5.8c138.4,8.5,197.3-34.2,293-63.2c37.8-3.8,76.8-7,119.3-7.3c-27.7,0.2-75.2-6.9-97,0.8
	c-7.6,2-15.1,4.2-22.3,6.4c-97.9,10-182.7,30.7-271.6,46.7c-4.9,4.4-12.8,11.5-21.4,16.5c-7.6-0.4-15.3-0.9-23.3-1.7
	c0.6,3.1,0.9,6,0.9,8.7c-80.9,21.1-185.3,28.6-252.9,49.6c-69.6,11.9-148.7,14.6-231.5,12.7c-82.8-1.9-168.6-7.6-251-11.2
	c71.9-11.2,141.6-23.4,209-36.6c-88.2,11.1-171,22.6-250.9,34.9c-14.1-0.6-27.8-1-41.5-1.4l-86.3-2.1c29.1,4,57.4,7.1,85.4,10
	c-47.7,7.4-94.7,15.2-140.4,23.9C-43.8,853.7-334.8,862-639.5,837c0.4-8.9,1.7-17.7,3.8-26.4c140.5,2.1,283,7.1,374-28.7
	c-81.8-3-130.3,8.1-208.5,6.7c-2.6-4.3-7.1-10.5-2.2-13c-45.4,6.6-100,11.9-156.2,11.9c6.9-18.6,16.1-37,25.2-55.4
	c20-13.8,63.6-11.7,102.3-17.7c89.6-3,179-2,267.5-1.6c88.2-0.2,175.6-1,261.2-7.3c164.4,7,328.9,14.2,486.2,15.3
	C371.5,739.6,240,757,115.8,781c143.5-15.4,280.2-35.3,407.8-60.1c148.4,1.7,290-2.4,421.3-13.3c65.4-5.8,127.8-13.7,186.9-23.7
	c59.2-10,114.7-22.5,165.8-38.1c43.8-15.2,101.5-25.7,165.4-34.8c63.6-9.4,133.1-17.7,201-27.7c68.1-9.8,133.7-22.5,189.7-40
	c55.9-17.6,102.5-39.9,130.5-71.3c-25.9-2.7-49.3-3.7-70.9-3.4c23.1-10.7,42.7-23.2,58.6-37.5c90.5-9.1,180.7-17.7,271.1-25.7
	c20.3-28.7,41.8-57.5,84.4-74.7c12.7-2.7-0.8-28,1.1-37.8c2.4-26.5,18.1-45.9,42.8-60c24.9-14,59.5-22.4,98.9-27.6
	c3.1,6.6,6,13.1,8.4,19.3c-62.7,50.4-126,101.3-193.4,155.4l-1.5,1.1c-9.9,8.1-20.1,15.9-30.3,23.4c13.5-1.2,27.1-2.4,40.6-3.5
	c-1.9-6.4-4.6-13.3-8.8-20.9c15.6,4.4,26.5,11.4,32.7,9.9c43.3-10.2,98.1-12.8,92.7-49.1c-10.8-7,8.2-11.2-19.7-23.9
	c27.6-15.2,71.5-25.3,89.3-47.1c9.9-8,6.3-25-1.7-45.2c21-16.6,42-33.2,63.1-49.9c22.1-16.3,44.2-32.6,66.6-49.1
	c45-33.1,94.8-64.8,148.5-97.2c29.7-13.9,76.1-21.5,116.4-28.2c-26.8,33.8-60,63.9-95.5,92.7c-66.5,5.1-123.5,15.2-115.9,60.7
	c-0.8,8.8-2,17.2-3.9,25.2c20.6-13.9,40.9-28.1,61-42.4c20.3-14.1,40-28.6,58.8-43.6c39.4-3,81.4-4.7,117.5-10.1c0,0.6,0,1.2,0,1.9
	c-15.1,13.7-30.2,27.6-46.6,40.6c-58.6,4.6-110.1,12.8-115.4,46.6c-0.6,4.2-0.8,8.7,0.1,13.8c-0.7,8.8-2,17.2-3.8,25.2
	c25-17.5,49.9-34.8,74.6-52.1c15.2-10.9,30.2-22,44.5-33.5c17.5-1.2,35.2-2.4,52.8-3.6c0.8,2.1,1.6,4.2,2.9,6.4
	c-3.8,9.6,77.3,100.7,127.6,118.8c49.2-10.1,99.3-28.9,137.7-45c38.4-16.1,65.9-28.7,70.9-25c21.2,13.1,4.4,35.1-17.2,55.2
	c7.6-2.2,15.2-4.3,22.8-6.4c-9,22.9-13,52.1-28.2,65c-0.3,4.4-0.4,8.8,0.2,13.6c-7.1,7.5-28,8.2-36.4,14.3c8.7-0.7,17.3-1.4,26-2.1
	c15.5-7.6,32.7-14.4,48.4-23.6c-1.4,4.9-2.8,9.7-4.2,14.5c10.7-1.1,21.1-2.5,31.7-3.7c3.2-5.7,4.9-12.1,4-19.7
	c-0.2-1-0.1-1.8-0.2-2.8c11.3-0.7,22.1-1.7,32.7-3c1.6-8.3,2.5-17.5,2.4-27.8c-8.6-3.6-16-5.4-22.3-5.7c3.8-9.7,6.4-21,7.4-34.2
	c92.7-19.9-57-74.3,54.2-66c16.4,1.2,18.9-20.2,35.5-18.9c16.3,0.2,32.2,0,48-0.3c-0.7-1.7-1.6-3.3-2.7-5
	c64.6-3.9,126.4-12.9,189.6-30.5c31.2-4.4,67.9,6.2,101.8,9.5c12.8,1.2,23,30.7,33.9,38.9c11.1,9.6,21.4,18.7,31.4,27.2
	c84.9-1.7-541.3-130.8-446.3-130c29,0.1,49.9,7.9,68.7,16.7c18.7,8.7,35.3,18.3,57.9,22.5c23.2,5.2,45.7,10.2,67.6,15.1
	c22.4,5.2,44.2,10.2,65.8,15.1c42.7,9.7,84.2,19.1,126.4,28.7c41.9,9.3,83.6,17.9,129,27.1c22.4,4.5,45.2,8.8,68.5,13
	c23.4,4.2,48.6,9.1,74.1,13.5c0,0,4.5,14.7,6.8,22c29.4,0.8,56.3,3.7,79.5,8.9c-19.3,17.4-45.8,31.5-71.2,43.5
	c-25.4,12-48.8,22.4-61.3,33.6c-12.8,11-15.6,22.1-0.7,35c14.9,13,47.2,27.5,105,47.7c0,0.1,0,0.1,0.1,0.2
	c-11.1,1.1-20.8,2.4-30,3.9c-1.3-0.1-2.3-0.2-3.5-0.4c0.2,0.3,0.3,0.6,0.5,0.8c-44.5,7.8-66.9,20.2-83.4,42.1
	c29.3,2.4,58.7,4.8,88.2,7.3c-1.8,9.9-1.4,20,5.3,30.5c-1.7,1.8-3.2,3.6-5.3,5.3c-12.5-1-23-1.9-23-1.9c-1.3,3.9-1.8,7.8-1.9,11.7
	c96.3-8.3,194.4-13.2,291.5-14c116.8-1.2,231.5,3.7,340.6,13.4c219,19.5,414.4,57.8,594.5,108.1c11.3,3.2,22.5,6.5,33.6,9.9
	c489.3-58.3,1008.3-105.4,1561.5-127.6c9-0.4,18.2-0.7,27.3-1.1c11.4-9.7,22.9-19.3,34.8-28.9c22.5-13.2,58.4-21.6,90.8-28.5
	c-6.5,19.2-16,37-27.3,54c0.6,0,1.2,0,1.8,0l9.4-0.3c29-6.7,57.8-13.7,86.4-21c0.1-0.3,0.3-0.6,0.4-0.9c1.5-0.3,3-0.6,4.5-0.9
	c0.2,0.2,0.3,0.3,0.5,0.5c38.9-10.1,77.6-20.7,116-32.3c35.2-7.9,74.8-12.1,115.4-15.3l61.4-4.5l32.6-2.6l34.9-3.3
	c37.3-3.7,70.7,25.9,106,30.9c74.5,13.7,145.2,26.3,218.7,37.1c73.8,10.9,151.3,19.6,248.4,27.9c0,0,0.4,0.6,1,1.3
	c38.6,4.3,77.8,9.1,117.8,14.9c26.2,4,52.6,8.2,79.2,12.7c15.4-11.4,30.6-24.1,40.8-38.8c21,4.1,38.4,10,49.6,17
	c6.2,3.6,8.4,7.2,10.5,11.3c2,4.1,3.1,8.4,3.2,13.1c2.9,7.4-16.7,5.5-36.3,3.7c1,2.3,2.5,4.5,4.2,6.9c10.4,2,20.7,4.1,31.2,6.3
	l23.1,4.7l24.6,5.6l49.2,11.4c32,8.4,64.7,16.3,95.8,25.7c63.3,17.8,123.6,38.6,183,60.4c117,44.9,228.4,97.1,321.1,160.1
	c46.8,31,87.5,65,120.4,100c33.6,35.1,55.2,71.6,68.4,106.9c15.8,48.4,9.4,92.9-10.5,130.4c-12.8,23.6-30.5,44.6-51,63.6
	c27-1,54.2-2,81.7-3.1c67.1-10.9,141.6-15.8,219.9-17c-5.1,6.4-10.4,12.6-16,18.6c-4.4,0.9-8.8,1.9-13.1,2.8
	c3.2,0.3,6.4,0.6,9.6,0.8c1.2-1.2,2.4-2.4,3.6-3.6c251.1-53.8,499.8-107,777.5-158.7c71.1-10.6,161-14.5,239.9-17.9
	c-92.7,29.9-192.7,55.7-296.3,79.7c-122.9-0.4-235.6,4.5-291.5,47.3c-14.8,8.1-29.8,15.8-45.3,23.1
	c114.6-22.5,227.9-45.3,336.9-70.4c48.8,0.1,99.1,1,148.2,0.8c21.7-5.8,43.2-11.5,65-17.3c111.7-30,229.7-57.3,354-85.5
	c64-11.8,147.4-16,220.1-20.1c-41.4,15.4-84.4,29.7-128.6,43.3c-44.1,13.7-88.9,27.2-134.8,39.9c-50.7,0.5-99.3,2.2-141.5,7.8
	c-0.6,10.8-0.6,20-0.2,27.8c-8.2,1.5-18.3,4.5-30.4,9.4c8.4-2.1,16.8-4.3,25.2-6.4c1.8-0.5,3.6-0.9,5.3-1.4c0-0.6-0.1-1.1-0.1-1.6
	c4-0.7,7.5-1,10.7-1c44.3-11.2,88.1-22.6,131.1-34.6c66.8-0.6,136.2-0.1,200.8-3c-0.8,0.6-1.4,1.2-2.3,1.8
	c-40.9,12.1-81.6,24.7-123.6,36.3c-68.4,0.8-133.1,3.6-183.1,15.6c0.9,17.2-20.6,38.2-29.8,9c-10.6,4-20.6,8.5-29,13.9
	c-6.1,4.1-11.9,8.4-16.6,13.4c-11.9,8.5-24.2,16.6-36.9,24.2c61.5-15.6,122.7-31,183.4-46.4c37.7-9.7,75.2-19.5,112-29.8
	c29.5-0.2,59.4-0.3,89.2-0.5c-1.1,2-2.4,4.1-3.1,6.3c-17.5,9,3.2,101.2,62.5,121.3c92.1-7.2,196.7-22,278.5-35.2
	c81.8-13.1,141.7-23.5,145.5-19.5c40.1,28.8-243.6,85.8-223.7,92.5c21.4,2.4,42.2,4.3,62.6,5.7c-11.1,7-21.6,14.2-29.9,22.1
	c-21.5,7-57.9,6.1-78.9,12c67.5-5.7,134.4-12.1,202.9-16.7c5.4-3.2,10.5-6.7,14.6-10.6c0.9-1,2-1.8,3-2.7
	c119.6-0.3,228.3-11.6,338.1-22.3c109.4-11,222.8-18.2,349.7-10.2c28.8,23,48.5,45.6,62.2,67.9c-135.8,17.3-293.8,20.8-429.6,38
	c0.8,1.3,1.9,2.6,2.6,3.9c-27.3,3.4-55.5,6.3-84.1,9c-29.2,5.6-56.8,12.2-82,20.2c-7.1,3.1-14.3,5.9-21.5,8.9
	c25.6-1.2,51.4-2.1,77.4-2.9c3.9-0.7,7.6-1.5,11.5-2.2c55.4-9.2,112.4-17.1,170.9-23.6c116.7-13.4,241.2-19.2,370.9-17.8
	c3.4,9.3,6.1,18.6,8.1,27.9c-115.5,8.6-235.5,12.7-293.9,57.4c68.2-2.9,102.7-18.5,167.9-22.2c3.9,4.3,10.3,10.5,7.3,13.5
	c34.5-10,76.7-19.8,122.8-23.9c2.3,20,2.6,39.9,3.1,59.8c-10.5,15.9-46.8,17.1-76.2,25.9c-72.6,9.1-145.4,15.3-218,21.4
	c-72.4,6.3-144.1,12.9-210.8,26.3c-26.8,0.8-53.6,1.7-80.4,2.6c-143.1,14.1-288.5,19.1-423.7,41.2c-56,1.3-111.8,2.6-167.4,4.1
	c-27.9,4.5-55.1,9.3-81.5,14.7c-63.4,12.5-121.2,28.5-172.8,47.9c90-4.3,182.3-7.2,275.4-9.6c195.8-30.9,428.2-40.2,661.4-47.2
	c-20.8,4-41.1,8.6-60.9,13.9c-42.5,12.8-86,24.3-129.2,36c-43.2,11.7-86.7,22.9-130.5,33.9l-131.2,32.3l-129.3,33.4
	c-114,18.2-226.5,37.5-343.6,53.4c22.6-9.7,45-19.6,67.5-30.1c41.4-14.4,83.6-28.3,127.2-40.9c43.8-12.6,88.3-24.6,133.2-36.4
	c-69.4,11.6-139.9,22.1-209.8,33.3c-70.1,11-141.3,21.2-214.4,29.9c4.2-2.3,8.9-4.5,12.6-7c4.9-2.8,10.3-5.2,15.4-7.8
	c-48.8,9.4-97.7,18.7-146.4,28.2c39.9-4.2,79.2-8.8,118.5-13.4c-67,36.8-185.7,59.7-288.8,92.5c25-24.6,50-49.2,90.2-64.6
	c-41.4,4.9-83,9.8-124.7,14.6c-83.6,28.2-152.6,65.2-168.8,123c22.7,1.2,42.5,0.8,60.1-0.9c-13.2,11.9-23.4,25.2-30.2,39.8
	c1.6,0.5,3.2,0.9,4.7,1.4c56.1-12,112.1-24.4,168.1-37.4c-28.2,25.1-62.8,46-124.3,51.1c9.8,3.2,19.7,6.3,29.3,9.6
	c68.3,22.9,130.8,47.8,187.3,73.9c56.6,26.2,106.9,53.8,150,82.8c42.6,27.9,77.7,57.8,105,88.2c7.6,0.3,15.1,0.5,22.8,1
	c24.3,18.6,42.4,36.9,56.5,55.1c200.8-26.3,385.9-66.2,614.3-69.1c35.7,22,60.6,44.3,78.5,66.8c-209.1,39.4-465.5,55.7-650,106.5
	c1,7.1,1.8,14.1,2.3,21.2c73.9-16.4,150-31.3,228.8-44.2c139.2-23,286.3-39.9,440.3-49.3c4.7,9.6,8.5,19.2,11.5,28.9
	c-136.9,19-279,33.5-348.5,85.3c81.7-8.6,123-27.6,200.3-37.1c4.9,4.3,12.8,10.3,9.3,13.7c40.7-13.6,90.5-27.6,145.2-35.8
	c3.9,21,5.4,42.1,7,63.2c-11.8,17.8-55.3,22.2-90.2,34.1c-151,28.3-308.5,43-454.7,71.4c-13,3.2-25.7,6.6-37.2,10
	c0.6-0.6,0.6-1.4,0.5-2.3c-8.6,1.9-17.4,3.5-26,5.5c-167.4,14.8-334.6,29.5-493.3,48.6c71.5-20.4,139.1-40.4,203.8-61
	c-1.1-1.6-2.2-3.5-3.2-5.9c-49.8,23.1-112.5,42.6-182.7,58.7c-1.2,0.3-2.3,0.5-3.5,0.8c-8,2.9-16.3,5.7-24.2,8.6
	c-3.6,0.4-7.1,0.9-10.7,1.3c0.2,0.8,0.3,1.5,0.5,2.3c3.4-1.2,6.8-2.4,10.2-3.7c3.3-0.4,6.6-0.8,9.8-1.1c-6.6,1.9-13.2,3.8-19.8,5.7
	c4.6,17.3,13.7,36,27.6,50.8c160.1-19.1,328.5-34.2,497.3-49.1c-25.4,5.8-50.4,12.2-74.7,19.3c-2.4,0.8-4.9,1.5-7.4,2.3
	c51.4-8.1,85.1-13,87.8-10.3c28.5,19.2-101.4,52.7-185.2,74.9c17-0.5,34-1,51.2-1.2c23.6,14.3,41.6,28.7,55.5,43.2
	c5.5-3.1,10.6-6.3,14.9-9.9c1-1,2.4-1.8,3.5-2.8c263.4-2.7,476.7-56.5,754.7-44.6c31,22.8,51.9,45.3,66.4,67.7
	c-215.4,29.5-481.1,29.8-655.5,82.5c-34,13.5-68.9,26.1-104.6,38.1c-14.7,3.3-28.9,6.7-43.4,10.1c-0.2,1.3-0.3,2.6-0.5,3.9
	c14.8-4.6,29.5-9.2,43.9-14c57.9-12.8,117.5-24.6,178.7-35.2c61.6-10.2,124.8-19.2,189.6-26.8c129.3-15.4,266.1-23.9,408.5-25
	c3.5,9.4,6.2,18.8,8.1,28.2c-127.3,11.1-259.2,17.7-326.4,63.8c75.5-4.1,114.5-20.4,186.4-25.5c4.2,4.3,10.9,10.5,7.5,13.5
	c38.5-10.9,85.3-21.7,136.2-26.8c1.8,20.3,1.5,40.4,1.3,60.7c-12.2,16.3-52.4,18.4-85.3,27.9c-80.6,10.8-161.9,18.1-242.7,25.6
	c-67.1,6.3-133.6,13-197.5,23.4c0,0.6-0.1,1.2-0.1,1.8c1.6,2.9,3.3,5.7,4.7,8.6c-2.4,0.2-5,0.4-7.4,0.6
	c-57.1,7.1-110.9,18.1-158.2,29.6c58-0.2,116.8,0.7,176.5,3c1.9,9.2,2.9,18.3,3.1,27.4c-39,1.5-78.4,2.5-116.4,4.4
	c-0.6,0.1-1.2,0.3-1.8,0.4c-20.4,5.6-40.8,11-61.4,16.3l12.3-0.7c138.7-8.9,282-12.9,436.7-2.2c28.3,23.3,45.4,45.9,55.3,68.1
	c-167.8,13.1-356.5,13.7-525.2,26.5c0.7,7.5,0.8,14.7,0.3,21.6c22.9-1.9,45.6-3.9,68.7-5.6c74.7-5,150-9.6,228.1-10.6
	c77.9-1.3,157-0.9,237.2,1.3c1.3,9.2,1.6,18.4,1.1,27.5c-37.5,1.5-75.2,2.7-112.1,4.3c0,6.2-0.1,12.4-0.6,18.5
	c-33.5,1.6-65.5,5.8-95.1,10.9c12.6-1,25.7-1.8,40-2.1c3.5,4.3,9.4,10.5,4.8,13.4c46-9,101.6-17.6,160.1-20.5
	c-3.6,19.7-9.6,39.2-15.4,58.7c-18.2,15.3-63.6,15.7-102.9,23.6c-46.6,3.5-92.7,6.7-138.8,9.4c-46.3,2.4-92.2,4.8-138,7.2
	c-91.6,4.8-182.6,9.8-269,22.1c-56.6,0.7-113,1.5-169.3,2.4l-11.2,1.4l-204.9,26.1c-38.5,12.3-77.6,24.4-117.6,36.2
	c72.5-3.6,146.4-6.4,221.5-8.3c42.5-13.7,84.3-27.6,124.6-42.2c4.2-0.5,8.7-1,13-1.4c-1.1,16.6-0.9,29.9,0,40.9
	c46.6-0.7,93.4-1.3,140.3-1.8c-26.9,3.7-53.5,7.9-79.6,12.8c-6.5,1.4-13.2,2.6-19.8,4c3,19.4-25.8,47-37.2,7.5
	c-28.6,5.7-57.2,11.3-85.8,16.8c-6.7,3.8-13.6,7.9-20.9,12.4c-26.3,2.8-53.3,5-80.6,7.1c-24.1,4.6-48.3,9-72.6,13.4
	c-19.9,17.1-5.8,106.4,66,122.5c247.7-29.3,556.8-102.8,565.6-95.4c51.2,27.8-331.1,113.5-306.1,119.1c27.9,0.7,55.3,0.8,82.1,0.6
	c-15.6,8.5-30.6,17.1-42.8,26.4c-39.9,12.7-113.6,12.5-128.6,30.8c-58.2,54.2-195.2,56.3-290,94.4c14.2,0.7,28.5,1.4,43,2.4
	c7.6,6.2,14.3,12.4,20.4,18.5c41.3-15.8,81-32.9,116.9-53.2c118.5-54.7,347.1-63.1,424.4-121.7c1.3-1.1,2.9-2.1,4.3-3.1
	c318.5-21,575.5-93.9,908.1-103.2c37.3,21.8,62.6,44,80.1,66.6c-258.8,48.5-579.2,68.6-792.8,136.7c-41.9,16.7-85,32.4-129.1,47.5
	c-62.3,15.4-122.8,31.7-182.2,48.4c-94.4,4.6-182.6,13.4-268.6,23.9l36.2,6.1c58.5-4.7,117.5-8.9,174.8-13.7
	c-31,9-61.3,18.3-91.5,27.6l16.4,2.7c42-11.5,83-23,122.8-34.7c16-1.5,31.6-3,47.1-4.7l97.5-10.7c-34.2,0.1-67.2,0.9-99.7,2
	c50.5-15.2,99.8-30.6,147.1-46.9c284.5-70.2,599.2-125,942.3-149.8c4.2,9.7,7.4,19.4,9.8,29.2c-153.6,21.8-312.4,39.3-395.6,92.9
	c91.7-10.1,139.7-30,226.4-41.2c5,4.2,13.1,10.3,8.9,13.8c46.6-14.6,103.3-29.8,164.8-39.2c2.2,21.4,1.6,42.8,1.1,64.3
	c-15,18.3-63.7,23.7-103.7,36.4c-195.6,35.9-398.6,53.9-585,94.6c-164,15.2-327.6,30.6-486,48.3l-141.6,73.8
	c202.9-25.6,418.2-45.5,633.8-65.5c-29.1,6.3-57.7,13.1-85.7,20.7c-242,70.5-499.4,128.3-751.9,190c-49,8.6-98.2,17.1-147.5,25.6
	l-89.9,36.8l-85.7,35.1l319.1,65.8c181.7-42.1,365.8-84.1,565.3-125.5c69-11.6,156.6-17,233.6-21.5
	c-88.4,31.6-184.5,59.1-284.5,84.6c-120.6,1.2-230.8,7.7-283.1,51.4c-14,8.4-28.2,16.3-43.1,23.8c111.3-24,221.1-48.4,326.2-75.2
	c71.2-0.8,146,0.3,214.6-3.3c-0.9,0.6-1.6,1.2-2.5,1.8c-43.9,12.8-88.8,25-134.7,36.6c-107.3,1.1-206.2,6.4-263.6,38.2
	c-7.1,4-13.9,8.3-19.6,13.2c-13.9,8.4-28.3,16.3-43.1,23.8c68.7-14.7,136.6-29.8,203.4-45.4c41.4-9.7,82.5-19.5,122.9-29.8
	c31.5-0.3,63.8-0.3,95.8-0.5c-1.4,2-2.9,4.1-3.8,6.3c-19.2,9-5.2,101.3,57.1,121.4c202.1-13.7,452.8-66,460.3-58.5
	c43.2,29.2-267,88.8-246.3,95.6c23,2.2,45.4,3.9,67.4,5.2c-12.5,7.2-24.4,14.5-34,22.5c-32.2,9.8-92.8,5.4-104.3,21.9
	c-47.7,50.3-168.8,41.5-244.8,77.6c-43.8,26.4-93.2,60.9-142.7,95.5c15,14.9-32.4,9.8-4,24c-74.8,4.4-161.3,9.4-149.6,55
	c-1.4,0.5-2.9,1-4.2,1.5c-5.3,0.3-10.3,3.2-14.9,7.1c-132.1-0.4-177.3,46.1-261.3,81.5c-35,6.1-71.9,10.9-112.5,13.3
	c26.5-1.5,73.8,3.6,92.8-5.4c6.8-2.5,13.3-5.2,19.7-7.8c90.7-15.8,166.5-41.3,245.8-63.1c3.4-4.9,8.8-12.7,15.5-18.4
	c7.3,0,14.7,0.1,22.4,0.4c-1.4-3.2-2.5-6.2-3.3-9c70-26.8,165.7-40.5,221.6-67.1c121.4-34.1,290.8-30.7,445.1-35.1
	c-62.1,16.9-122.1,34.7-179.9,53.4c77.7-18.1,150.1-35.9,218.9-54.7c13.1-0.5,25.8-1.1,38.4-1.8l79.6-4.6
	c-28.1-1.9-55.2-2.9-81.8-3.7c40.8-11.5,80.6-23.4,118.8-36.1c230.6-50.5,486.7-84.6,767.3-88.7c3.9,9.4,6.9,18.8,9.2,28.2
	c-125.2,12-254.8,19.6-320.8,65.7c74.9-4.4,113.4-20.5,184.1-26.2c4.2,4.3,11.1,10.4,7.9,13.5c37.7-11.2,83.5-22.4,133.6-27.8
	c2.7,20.4,3.1,40.6,3.6,61c-11.6,16.5-51.3,18.8-83.6,28.6 M944.1,3312.7c-30.5,1.1-49.9,0.3-50.8-1.4c-7.9-7.8,9-14.3,36.9-21
	 M8746.1,4569.4 M12318.2,4606.9c-159,23-325,28.6-476.2,56.5c-153.7,5.9-307.2,11.9-453.8,21.8c125.8-29.6,239.3-59,343.5-93.8
	c-125,27.4-242.5,59.6-352.6,94.4c-275.4,18.9-525.6,52.4-705.2,127.6c-152,72.3-538,78.9-630.1,210.9c26,1.9,49.3,2.1,70.4,0.9
	c-20.9,12-38.4,25.5-52.1,40.7 M11173.4,3208.8c-0.9-2.9-3.8-6.5-5.8-9.2c4.3-0.1,8.5-0.3,13.2-0.3c-17.5-6.7-16.8-4.3-13.2,0.3
	c-35.9,0.9-64.4,4.6-93.3,8.1c-11.3,3.9-21.9,8.1-31.7,12.8C11094.8,3219.6,11132.9,3213.7,11173.4,3208.8 M9534.5,4581.8
	c-160.9,11.5-333.1,12.7-512.9,3.4c-108.6,25-219.4,75.5-114.7,138.9C8882.2,4593.9,9403.1,4630.8,9534.5,4581.8 M9118.6,4529.6
	c16.2,0,31.7-0.5,46.9-1.2l-0.2-0.1c-8.6-0.1-17.3-0.3-26-0.4C9132.3,4528.4,9125.4,4528.9,9118.6,4529.6 M999.5,1928.9
	c13.4-3.7,26.8-7.5,40.3-11.2c-0.3-0.1-0.5-0.1-0.8-0.2c-31.9,5.9-63.2,12.1-94.1,18.8C963.4,1933.9,981.4,1931.4,999.5,1928.9
	 M218.9,1421.4c5,0,9.9-0.1,14.9-0.1c-17-16-31.6-32.5-43.4-49.1c-4.1,1.2-8.3,2.4-12.4,3.5C189.4,1391.2,203.2,1406.5,218.9,1421.4
	 M3642.4,337.5c16.1,0.3,27.2-6.4,33.8-15.1c-15.2,2.7-30.5,6-45.4,9.7C3634.7,333.8,3638.5,335.6,3642.4,337.5 M8171.1,766.8
	c-0.2,1.6-0.2,3.2-0.6,4.8c-9.5,0.2-17.5,0.3-17.5,0.3c0.7,2.3,1.7,4.5,2.6,6.7c58.4,9.1,112.3,20.6,154.9,32.7
	c64.4,18.2,125.7,43.4,167.4,66.9c20.4,11.8,35.6,22.9,45.7,32.6c10.2,9.7,15.6,17.6,18.5,25.5c2.3,7.5,2.2,15.4-1.4,24.6
	c-3.6,9.1-11.1,19.3-22.9,30c-22.7,20.8-61.9,42.5-110.6,63.2c5,3.3,9.9,6.4,13.4,8.4l12.3,7.3c51.6-21.8,93.5-45,118.3-67.9
	c12.4-11.4,20.5-22.6,24.5-33c4-10.4,4-19.9,1-29.1c-3.7-9.8-10.6-19.7-22.8-31.2c-12.1-11.3-29.5-24-52.1-37
	c-46.3-25.9-111.6-52.8-180.7-72.3C8278.2,787,8226.6,775.9,8171.1,766.8 M9063.3,1297.2c-0.7-1.2-1.4-2.3-2.1-3.4
	c-0.4,0.3-0.9,0.6-1.4,0.9L9063.3,1297.2z M10690.7,1478.3c-0.8,0.7-1.6,1.4-2.4,2.1c2,1.9,3,3.5,3.4,4.8c9.4-2.4,18.7-4.9,28-7.4
	c-10.4,0.9-20.8,1.7-31.4,2.6c1.7-1,3.5-1.8,5.1-2.8C10692.5,1477.8,10691.6,1478,10690.7,1478.3 M10422.5,2781.2
	c-3,0.9-6.2,1.7-9.3,2.6c5,1.8,10,3.5,14.9,5.3c15.8-5.3,33-9.9,51.1-14C10460.3,2777.1,10441.4,2779.2,10422.5,2781.2
	 M10236.6,3690.7c-111.9-2.5-225.1-7.9-307.2,15l47.4,7.6c2.6,0.4,5.1,0.8,7.7,1.2c33.9-1.8,65.9-4.6,106.5-3.2
	c2.3,4.3,6.3,10.5,1.8,12.9c18.8-2.7,39.4-5.2,60.8-7.1C10185.3,3710.8,10213.6,3702.4,10236.6,3690.7 M1171.6,1952.9
	c0.7-0.2,1.4-0.4,2-0.5c-8.5-2.1-17-4.2-25.5-6.4l-44.9-0.4C1126.5,1948.5,1149.2,1950.8,1171.6,1952.9 M531.6,1957.5
	c15.3-3.9,29.6-8.4,42.7-14c-2.6,0.5-5.4,0.9-7.9,1.4C553.4,1946.8,542,1951.3,531.6,1957.5 M8119.7,829.9
	c-13.5,14.7-17.9,28.7,7.3,44.9c1.2,0.7,2.4,1.2,3.5,1.8c18.9-10,43.2-17.3,66.4-25.4c9.4,8.1,18.5,16.3,27.4,24.4
	c-6.6,2.6-12.1,5.9-17.2,9.5c3.1,4.9,8.7,10.4,14.9,15.9c14.8,13.1,31.4,25.9,21.5,30.3c-35.9,1.6-64.1,11.8-100.9,15.1
	c-32.8,3-65.4,6.8-97.4,11l133.8,14.5l71.9,7.8l36,3.9l9,1l4.5,0.5l1.2,0.8l4.8,3.1c4.5,2.9,9,5.8,13.5,8.7c2.4-1.1,4.9-2.2,7.2-3.3
	c37.1-17.5,64.4-35,76.6-48.4c6.3-6.7,9.3-12.1,10.5-15.8c1.2-3.7,0.9-5.6,0.9-6.7c-0.6-0.6-0.4-0.9-3.7-4.1
	c-3.2-3-10.3-8.6-22.7-15.6c-24.6-14.3-71.2-32.8-116.7-45.6c-5.7-1.4-11.3-2.9-17-4.5c-5.5-1.4-11-2.4-16.4-3.8
	c-2.3-0.7-5.8-1.4-9.8-2.2l-11.2-2.3c-7.3-1.7-15.3-3-23.2-4.4C8171.3,837,8146,833.3,8119.7,829.9 M8684.3,1302
	c-30.8,10.5-62.4,20.5-94.7,30.1c-0.9,1.9-2,3.8-3,5.6c1.7-0.5,3.4-0.9,5-1.5c12.8-1.4,25.9-2.4,38.9-3.3
	c43-13.3,84.6-27.5,124.7-42.5c-20.4,3.6-41.2,7.1-62.3,10.2C8690.1,1301.1,8687.2,1301.5,8684.3,1302 M10691.4,1487.8
	c-2,3.8-10.6,5.1-12.1,8.1c1.9-0.1,3.8-0.1,5.7-0.2l63.7-2.7c0.7-0.4,1.6-0.8,2.3-1.2c0.5-0.2,1-0.3,1.5-0.5
	C10731.7,1489.9,10711.4,1488.7,10691.4,1487.8 M9981.7,4129.5l56.1-23c-21.7,3.4-43.2,6.9-65.1,10.2l-14.7,6l-76.4,31.3l26.5,5.5
	L9981.7,4129.5z M3045.3,911.7c10.2-3.2,20-6.5,29.1-10c0.1,0,0.1-0.1,0.2-0.1l-4.2-8.7c4.3,1.7,8.8,3.3,13.2,4.9
	c6.4-2.7,12.4-5.6,18-8.5c4.9-9.7,11.5-18.5,19.4-26.7c0.9,4.3,1.7,8.6,2.4,12.8c12.2-9.8,19.3-20.5,19.4-32
	c-7.6,6.2-15.1,12.5-21.8,19.2c-2.9-14.5-5.9-29.2-5.4-42c-8.4,3.5-14,5.3-15.6,2.9c-0.6-0.7-0.9-1.4-1.4-2.1
	c-10,16.4-31.8,29-62,38.8C3034.3,875.2,3036.5,892.2,3045.3,911.7 M9611.4,1775.6c-20.1-0.3-40.1-0.3-60-0.1
	c5.9,3.6,11.8,7.3,17.6,10.9C9582.1,1782.1,9596.2,1778.4,9611.4,1775.6 M9471.7,3527.6c4.3-1.1,8.6-2.2,12.9-3.3
	c-19.1,0.6-38.2,1.3-57.3,2c-18.8,6.3-39.2,12.4-61,18.2l-7.5,4.8c-5.3,0.4-10.5,0.8-15.9,1.2c-1.4,0.3-2.7,0.7-4.1,1
	c0.3,0.3,0.7,0.6,1,0.9c20.9-1.3,40.8-3.2,59.2-6c18.6-4.8,37.2-9.6,55.8-14.4c2.3-0.9,4.7-1.7,6.8-2.8c1.4-0.8,3-1.4,4.5-2.1
	C9468,3527.3,9469.8,3527.4,9471.7,3527.6 M4859.5,1196.2c7.5,0.3,15,0.6,22.3,0.8c15-3.5,29.9-7,44.7-10.5
	c-9.5,0.8-18.7,1.6-27.8,2.5l-15.4,1.6L4859.5,1196.2z M4761,1276.3c5.3-3.6,10.9-7,16.3-10.6c-27.1,6-54.3,12-81.6,17.8
	c15.4,0.5,30.8,0.9,46.1,1.4C4748.5,1282.2,4754.9,1279.4,4761,1276.3 M8431.9,3847.7c0.9-0.1,1.8-0.3,2.7-0.4 M8434.6,3847.3
	 M8944.2,3592.8c-0.8-0.1-1.5-0.1-2.2-0.2c-1.2,0.5-2.5,0.9-3.7,1.4C8940.2,3593.6,8942.2,3593.2,8944.2,3592.8 M4974.6,1174.8
	c-6.7,0-13.4-0.1-20.1-0.1c-8.8,3.8-17.6,7.5-26.2,11.4C4943.9,1182.4,4959.4,1178.6,4974.6,1174.8 M9098.7,3571.8
	c5.3-4.2,11-8.2,17.2-12c-12.2,1.5-24.7,2.5-37.5,3.3c-32.1,7.5-64.3,15-97.1,22c-6.7,0-13.2,0.1-19.8,0.1c-1.3,0.5-2.6,0.9-3.9,1.4
	l1.1,0.1c3.3,0.3,6.9,0.6,10.3,0.9c4.1-0.9,8.3-1.7,12.3-2.6c23.6,0.1,47.5,0.3,71.3,0.4c12.6-3.6,25.1-7.4,37.3-11.7
	C9092.7,3573.1,9095.7,3572.5,9098.7,3571.8 M5159.9,1175.9c-3.8,0-7.5,0-11.3-0.1l-11.4,3.4l-0.5,0.1
	C5144.5,1178.2,5152.2,1177,5159.9,1175.9 M9236.4,3444c5.2-2,10.4-4,15.4-6.1c25.9-4.9,50.8-10.3,75.3-16
	c-21.9,3.8-43.6,7.6-65.3,11.5c-3.4,1.5-6.5,3-10,4.5c-11.4,2.1-23.1,4-34.9,5.9C9223.4,3443.9,9229.9,3444,9236.4,3444
	 M6793.8,1240.6c9.2-5,17.6-10.2,24.1-16.4c-28.8-2-57.8-3.8-87-5.6c-10.6,3.9-21.1,8-30.9,12.6c-8.5,1.1-10.6,7.4-12.2,14.5
	c18.9-0.9,37.9-1.7,56.8-2.7C6761.2,1242.3,6777.4,1241.4,6793.8,1240.6 M5471.5,1270.2c-28.5,2.6-57.4,4.9-82.6,9.6
	c30-0.4,60.1-0.7,90-1.1C5476.5,1275.8,5474,1273,5471.5,1270.2 M5323.7,1177.7c-6.2-0.1-12.4-0.1-18.6-0.2
	c-50.4,32.1-109.3,57-146.5,100.4c-2,1.7-4.4,3.2-6.6,4.8c13.7-0.2,27.5-0.3,41.2-0.5c28.2-8.1,57.3-16.2,76.6-32.7
	C5287.3,1229.1,5305.4,1204,5323.7,1177.7 M9312.6,3530.4c-0.8,0-1.5,0.1-2.3,0.1l0,0.1C9311.1,3530.5,9311.8,3530.4,9312.6,3530.4
	 M3000.1,1033.1c-6.3,2.9-12.6,5.9-18.9,8.8c24.3-2.9,48.8-5.8,73-8.8c-4.7-1.6-9.3-3.2-14-4.8
	C3026.8,1029.9,3013.4,1031.5,3000.1,1033.1 M7396.8,1139.7c9.5-13.5,21.1-25.7,34.8-36.9c-29.8-1.9-59.7-3.9-89.5-5.7
	c-2.4,4.2-4.6,8.4-6.6,12.9c-2.6,9.1-8.1,17.3-15.3,24.9C7345.7,1136.5,7371.1,1138.1,7396.8,1139.7 M7530.8,1148.5
	c15.4-12.4,31.1-24.4,47.2-36.1c-5.1-0.3-10.1-0.6-15.2-1c-30.1,11.6-61.2,22.7-93.5,33c19.6,1.3,39,2.5,58.7,3.8
	C7528.9,1148.4,7529.9,1148.5,7530.8,1148.5 M2495.3,1088.6c-0.4,2-0.5,4.2-0.2,6.6c0,0,0,0.1,0,0.1c17.8-1.8,35.7-3.5,53.5-5.3
	c2-2.5,4.1-4.9,6.4-7.3C2535.1,1084.7,2515.1,1086.6,2495.3,1088.6 M9709.5,4402.7l-7.9-10.2c-3.2-0.6-6.4-1.2-9.6-1.8l7.9,10.2
	C9703,4401.4,9706.3,4402,9709.5,4402.7 M7858.6,1132.2c-8.2-0.6-16.5-1.2-24.7-1.8c-47.3-3.6-94.4-6.8-141.5-10.1
	c-14.6,10-29.3,20-43.9,30.1c-4.5,1.8-9.1,3.6-13.6,5.4c18.9,1.4,37.7,2.7,56.7,4.1c1.2,0.1,2.5,0.2,3.7,0.3
	C7751.5,1151.6,7806,1142.3,7858.6,1132.2 M656.8,1389.4c-7-6.5-11.1-12.3-13.2-17.7l-3.4,2.1c2.5,5.2,6.6,10.8,13.4,17
	C654.6,1390.3,655.8,1389.9,656.8,1389.4 M9779.1,4416.6l-5.6-7.3c-4.9,1.1-9.8,2.1-14.8,3.2
	C9765.5,4413.9,9772.3,4415.2,9779.1,4416.6 M9749.8,4401.9c-8.8-1.8-17.7-3.6-26.6-5.3l6.8,8.9
	C9736.6,4404.3,9743.1,4403,9749.8,4401.9 M10189.4,3826.7c1.2-0.5,2.5-0.9,3.7-1.4c-3.2,0.1-6.4,0.3-9.5,0.4L10189.4,3826.7z
	 M8085.3,1177.9c-4.2-6.1-9.4-12.3-15.8-18.3c-13.1,3.1-26.2,6.1-39.5,9c-65.9,14.3-134.7,27.1-205.9,38.7c2.4,7.1,3,13.9,1.7,20.5
	c80.6-12.7,158.3-27,231.8-43.5C8067,1182.2,8076.1,1180.1,8085.3,1177.9 M3155.1,438.7c1.3-2.1,2.6-4.3,3.8-6.5
	c-16.1,2.6-31.9,5.4-47.7,8.2c0.2,5.5,0.5,11.2,1,17.1c5.1-0.1,10.1-0.3,15.2-0.4C3137.4,452.1,3146.7,446,3155.1,438.7
	 M2614.5,899.5c-0.7,0.3-1.4,0.6-2.2,0.9c-13.6,11.7-11.4,26.2-16,38.2l81.2-20.6c-0.1-5.6,0-11,2-15.3c0.2-2,0.6-3.9,1.1-5.7
	C2658,897.8,2635.8,898.6,2614.5,899.5 M2604,987.5c-2.6,8.9-9.3,15.8-33.8,14.4c2.3,1.3,4.9,3,7.4,4.9c16.5-3,33.2-5.9,50.2-8.4
	l-21.4-10.9C2605.6,987.5,2604.8,987.5,2604,987.5 M1285.3,1419c-2,0.7-3.9,1.4-5.8,2.1c56.1-2.6,111.7-5.5,167.4-8.4
	c2.5-0.7,5-1.4,7.4-2.2C1398,1413.4,1341.8,1416.4,1285.3,1419 M8495.2,4251.7c3.5-1.2,7-2.3,10.3-3.5c-4.2,1.1-8.3,2.2-12.6,3.3
	L8495.2,4251.7z M9183.1,4526.5c-1,0.4-2,0.8-3,1.2c1.4-0.1,2.8-0.1,4.2-0.2L9183.1,4526.5z M9817,4196.8
	c-8.9-1.8-17.8-3.6-26.6-5.3l-3.8,1.6c7.9,1.6,15.8,3.2,23.7,4.8c2.1-0.3,4.3-0.6,6.4-0.9L9817,4196.8z M9945.9,3715.9
	c-10.8-1.7-21.7-3.4-32.5-5.2c-4,1.4-8,2.8-11.9,4.3C9917.5,3715.9,9932,3716.1,9945.9,3715.9 M6363.7,792.3
	c-12.9,6.9-27.6,12.6-43,17.9c34-2.8,68.1-5.5,102.2-8.1c5.4-2.7,10.9-5.4,16.2-8.3c-2.5,2.6-5,5.1-7.6,7.6
	c5.8-0.4,11.5-0.9,17.2-1.4c6-5,14-9,26.1-10.3c7.7-2.4,14.2-5,20.2-7.7c-13.5,1-27.1,1.9-40.5,2.9c-5.1,3-10.2,6-15.4,8.8
	c2.6-2.8,5.2-5.5,7.8-8.3C6419.1,787.7,6391.4,790,6363.7,792.3 M3478.7,633.7c-8.7,1.6-17.5,3.3-26.2,4.9l-163.3,30.1l636.5,145.5
	l-80.5,13.8c10.8,0.2,21.6,0.4,32.3,0.7c42-7.2-634.3-145-593.1-152.8c89.9-16.6,180-33.3,270-50
	C3528.9,628.1,3503.8,630.7,3478.7,633.7 M9108.9,4470.8l12.6,10.3c1.4-0.6,2.7-1.1,4.1-1.7l-12.6-10.3
	C9111.6,4469.7,9110.2,4470.3,9108.9,4470.8 M9454.9,4523.6c27.2-1.8,54.2-3.9,80.7-6.3c-1.1-0.9-2.4-1.7-3.6-2.6
	c-21.2,1.9-42.7,3.6-64.4,5.1C9463.4,4521.1,9459.2,4522.3,9454.9,4523.6 M9978.2,4232.5l3.9-1.6l-49.5-10.2l-3.9,1.6L9978.2,4232.5
	z M10293,4073.3c7.5-1.9,15-3.8,22.5-5.7c-3.7,0.1-7.2,0.4-11.1,0.5c5.9-3.2,12.2-6.1,18.7-8.8c-1,0.2-2,0.4-3,0.5l-18.6,9.4
	C10298.5,4070.5,10295.9,4071.9,10293,4073.3 M10246.2,4013.6l67.3-32.7c-15.2,1.4-30.3,2.6-45.5,3.8l-88.5,42.5
	C10201.4,4022.6,10223.6,4018,10246.2,4013.6 M10413.5,3932.4l16.4-8c-5.2,0.8-10.2,1.6-15.3,2.4
	C10414.2,3928.7,10413.8,3930.5,10413.5,3932.4 M10320.7,3838c-6.5-1.1-12.9-2.1-19.4-3.2c-11,1.5-22.1,3-33.2,4.5
	c14.8-0.2,29.8-0.2,45.1,0C10315.7,3838.9,10318.2,3838.4,10320.7,3838 M10240.8,3688.6c7.4-4,14.3-8.3,20.3-13.2
	c-8.8-7.4-17.5-14.8-26.3-22.1l-7.4,9.2c-2.1,0.1-4.3,0.1-6.4,0.1c7.6,0.7,15.1,1.3,22.7,2.1
	C10243.5,3672.7,10242.4,3680.7,10240.8,3688.6 M10179.1,1456.6c-0.8-0.1-1.6-0.2-2.4-0.3c-1.7,1-3.4,2.1-5.1,3.2
	C10174.1,1458.5,10176.6,1457.5,10179.1,1456.6 M5254.8,658.1c-3.7,0.5-7.4,0.9-11.1,1.4c5.4,1.7,11,3.3,16.3,5.1
	c3.6-0.4,7.2-0.9,10.9-1.3C5265.7,661.4,5260.2,659.8,5254.8,658.1 M4439.2,769.5c-1.5,0.2-3.1,0.5-4.6,0.7
	c12.1,0.2,24.3,0.5,36.7,1c1.4-0.2,2.9-0.4,4.3-0.6C4463.3,770.1,4451.2,769.7,4439.2,769.5 M2737.1,519.7c1.2,15,1.7,29.6-2.4,42
	c9.8-2.1,30.5-0.6,38.9-5.1c-6.3-12.5-12.7-25.1-18.8-37.6c-0.3-1.2-0.4-2.2-0.6-3.2C2748.5,517.1,2742.8,518.4,2737.1,519.7
	 M1459.3,941.9c1.9-0.1,3.7-0.3,5.5-0.4c18.3,0,34.3-2.9,48-7.2c-6.5-4.2-14.2-8.4-23.9-12.4
	C1457.7,910.2,1461.7,926.7,1459.3,941.9 M1524.8,1166.6c-30.5,4.2-61,8.4-91.7,12.6c41.5-2.4,82.8-5.1,124.2-7.7l8.9-4.1
	c11.7,0.5,23.3,0.9,34.9,1.3c2.9-0.2,5.8-0.4,8.6-0.5c3.1-2.6,6.3-5,9.4-7.5C1587.8,1162.7,1556.3,1164.6,1524.8,1166.6
	 M464.9,1212.5c-15.3,2.8-30.7,5.5-45.9,8.5c128.1-3.1,255.6-7,382.6-11.7c8.8-1.2,17.5-2.5,26.3-3.7c10.4,0.6,20.6,1.1,30.9,1.6
	c81.6-3.2,163-6.7,244.1-10.5c10.1-2.4,19.7-5.2,28.8-8.5c-85.4,4.1-171.1,7.9-257.1,11.3c-15.6,2-31.2,4-46.7,6.1
	c-14.9-0.9-29.9-1.8-45-2.8C677.4,1206.6,571.4,1209.9,464.9,1212.5 M230.7,1432.2c13.3,11.7,27.6,23.1,42.9,34.1
	c3.6-1.1,7.6-2.1,11.4-3.1c-15.6-11.2-30.1-22.9-43.5-34.9C237.9,1429.6,234.3,1430.9,230.7,1432.2 M1061.4,1978.6l0.6,0.5
	c26.3-3.4,52.4-6.9,78.2-10.6c-1.4-1.6-2.8-3.2-4.1-4.7C1110.9,1968.6,1085.9,1973.4,1061.4,1978.6 M953.5,2718.8 M953.5,2718.8
	c-25.2,7.4-50,15.1-74.3,23.2c33-1.2,66.2-2.3,99.3-3.4 M9078.7,4483.2l12.6,10.3c7-2.9,14-5.7,21-8.6l-12.6-10.3
	C9092.7,4477.5,9085.7,4480.4,9078.7,4483.2 M10285.4,4293.5l-25.6-5.3c-3.8,0.1-7.5,0.1-11.3,0.2l31,6.4L10285.4,4293.5z
	 M10003.3,4235.2l-3.9,1.6l241.7,50c0.5-0.7,1-1.5,1.6-2.2L10003.3,4235.2z M10216.3,4135.1c-41.2,6.9-82.5,13.7-124.1,20.4
	l-68.3,27.9l49.4,10.2l82.9-33.9L10216.3,4135.1z M10728.2,3885.3c-11.6,1.3-23.5,2.6-35,3.9c18.9-4.9,37.5-9.9,56-14.8l0.8-0.4
	l22.8-11.8l3.7-1.9c-31.8,9.9-63.4,19.9-94.3,30.1c-12.7,1.5-25.3,3.1-37.9,4.6l-144,73.1l-8.7,4.4c30.4-4.4,61.2-8.6,92.3-12.6
	L10728.2,3885.3z M10807.5,3850.9l1,0.2l5.9,1l2.9,0.5c1.6,0.1-0.4,0.5-0.4,0.7l-11.5,6l-0.4,0.2c111.7-30.4,215.4-61,312.9-94.5
	C11009.9,3791.6,10906.7,3820.6,10807.5,3850.9 M10632.7,3829.2c-12.5,3.9-24.6,7.9-36.9,11.8l11,1.8l0,0
	c13.9-3.7,27.7-7.4,41.3-11.1L10632.7,3829.2z M10503.8,3807.6c-20.3,2.6-40.6,5.1-60.8,7.8l23.1,3.9c22.9-2.3,46.1-4.4,69.4-6.4
	L10503.8,3807.6z M10884.8,2993.3c-1.8-2.6-5-5.3-7.4-7.5c5.8-0.6,11.4-1.2,17.6-1.8c-23.6-5.3-22.6-2.8-17.6,1.8
	c-24.6,2.5-46.5,5.6-67.2,9C10834.9,2994,10859.7,2993.5,10884.8,2993.3 M10922.5,2887.5c-1.6,0.4-3.2,0.8-4.8,1.1
	c0.4,0,0.8,0,1.2,0C10920.1,2888.3,10921.3,2887.9,10922.5,2887.5 M10758.2,2888.2c0,0.1,0,0.2-0.1,0.3c1.1,0,2.2-0.1,3.3-0.1
	C10760.3,2888.3,10759.3,2888.3,10758.2,2888.2 M10523.7,2513.3c48.2-15.6,95-31.6,139.7-48.4c-47.5,12.5-93.5,25.8-138.8,39.4
	C10525,2507.2,10524.6,2510.3,10523.7,2513.3 M10360.4,1649.6c64.8-17.4,120.6-40.3,179.1-61c0.2-0.5,0.5-1.1,0.7-1.6
	c-2,0.4-3.9,0.8-5.9,1.3c2-0.6,4.1-1.2,6.1-1.7c0.5-1.2,1-2.4,1.6-3.7c-32.5,1.8-64.7,3.8-96.5,6.1c-39.2,16.3-65.6,40.4-101.4,62.3
	C10349.6,1650.6,10355,1650.1,10360.4,1649.6 M10765.8,1310.7l-19.4-18.8l-4.3,8.2c-46.7-1.9-92.3-11-133.8-14.8
	c-0.8,0.2-1.5,0.4-2.3,0.6c-8.8,5.5-19,10.4-29.9,15c19.2,2,38.2,3.7,56.8,5c-13.2,6.9-25.9,13.9-36.2,21.8
	c-33.5,9.2-94.6,4-107.5,20.2c-51.8,49.1-173.9,38.8-253.4,73.5c-9,5-18.2,10.3-27.6,15.9c1.2,2.8,2.2,5.6,2.7,8.4
	c14.4-4.6,29.1-9,44.1-13.2c66-18.5,135-34.5,195.9-55.4c36.3-11.7,83.2-15,130.4-17.9c70.1-10,136.6-20.3,170.5-45.8
	c1.1-1,2.5-1.7,3.7-2.6C10759,1310.8,10762.4,1310.7,10765.8,1310.7 M10363.5,1133.2c-0.8,0-1.7,0-2.5,0c-0.6,0.4-1.1,0.7-1.7,1.1
	C10360.7,1133.9,10362.1,1133.5,10363.5,1133.2 M9967.8,1154.5c19.5-1.6,39.2-2.9,59.4-3.9c-3.2,6.6-6.7,13.1-10.4,19.3
	c-14.3,4.1-28.8,8.2-43.1,12.2c13.6-2.8,27.1-5.6,40.7-8.3c0.8-1.3,1.7-2.6,2.5-3.9c43.8-12.4,87.6-24.8,131.4-37.1
	c-24.3,0.5-47.9,1.4-70.3,3.1l-15,13.4c-12,0.4-23.9,0.8-35.6,1.4c1.6-3.3,3.2-6.7,4.8-10
	C10008.5,1143.9,9986.9,1148.4,9967.8,1154.5 M8212.3,562.4c-0.1,0-0.2,0-0.2,0c0.5,2.7,1.4,5.5,2.4,8.2c2.8,0.5,5.7,1,8.5,1.5
	c17.3,3,34.8,6.4,52.2,10.1c17.5,3.6,34.7,7,53.1,11.4c36.5,8.1,72.1,17.4,107.5,27c140.1,39.6,271.7,90.4,383.4,152.7
	c55.3,31.3,105.2,65.5,144.6,101.8c39.4,36.2,67.6,74.7,80,111.6c10.5,32,9.2,62.3-0.9,89.4c-10.1,27.1-28.6,51-51.4,72.3
	c-21.5,19.8-46.6,37.3-73.8,53.4c10-0.3,20-0.5,30.1-0.8c23.1-14.5,44.6-30.3,63.2-47.8c22.8-21.6,41.3-45.9,51.3-73.5
	c10.1-27.5,11.2-58.4,0.5-91c-12.9-38.5-42.7-78.5-83.9-116.1c-41.3-37.7-93.4-73.1-150.9-105.2c-57.5-32.3-121.1-61.1-187.7-87.1
	c-66.7-26-136.6-49.1-209.2-69.1l-55-14.4l-56-13C8283.4,575.8,8248,568.6,8212.3,562.4 M8062.4,539.6c-1.9,2.3-3.8,4.7-5.8,6.9
	c26.5,3.3,53.4,7.1,80.4,11.2c0.7-1.3,1.5-2.6,2.4-3.9c0.7-1,1.8-2,2.6-3C8115.2,546.7,8088.7,543,8062.4,539.6 M5408.1,640
	c4.6,1.8,9.2,3.6,13.8,5.4c298.6-34.2,603.9-63.4,918.5-85.2c86.3-6.3,173.8-11.5,261.8-16.3c4.5-3.1,9.3-6,14.8-8.5
	c-102.7,5.5-204.5,11.7-304.8,19.3l-78.5,5.5l-77.6,6.3l-154.9,12.7l-152.9,14.3l-76.4,7.2l-75.5,7.8l-150.8,15.8L5408.1,640z
	 M4033.7,548.8l-72,7.7l-30.5,3.8c22.1,0.8,49.8-5.2,82.7-9c2.3,1.5,4.6,3,7,4.4c0.7-0.1,1.4-0.1,2.1-0.2
	c95.8-9.9,194.5-16.3,292.8-18.2c98.4-2,196,0.6,290.7,7.2c170.6,11.9,331.4,37,484.2,73.1c4.2-0.5,8.5-1.1,12.7-1.6
	c-151.8-36.5-312-62.4-482.4-75.3c-94.8-7.1-192.8-10.4-291.8-8.8C4230.2,533.3,4130.5,539.2,4033.7,548.8 M4012.4,447.1
	c115.7,9.8-476.1-140.5-330-147.3c-0.5-2-1.2-4-2.3-5.7c-33.2-2.7-66.4-3.4-100.4-3.2c-33.5,0.4-66.1,2.5-99.2,4.8
	c-32.3,2.7-63.9,6.2-95.5,9.7C3354.5,309.1,4042.3,443.4,4012.4,447.1 M3508.3,193.4c-0.4,0.3-0.9,0.6-1.3,0.9
	c8-1.2,16.1-2.4,24.1-3.6c-0.1-0.2-0.3-0.5-0.4-0.7C3522.5,189,3514.5,189.1,3508.3,193.4 M3250.1,312.7c2.7-0.2,5.5-0.4,8.2-0.7
	c-1.4-1.6-3.6-3.2-6.5-4.7C3251.2,309.2,3250.7,311,3250.1,312.7 M2828.5,362c10.3-0.6,20.5-1.2,30.8-1.8c4.1-5.6,8-11.3,11.2-17.3
	c16.1-7.3,31.9-14.7,46.4-22.6c1.1,0,2.3,0.2,3.5,0.3c-2.6,15.4-12.9,27.5-27.1,38c18.5-1,37-1.9,55.5-2.8
	c14.5-8.8,29.4-17.2,44.5-25.7c-24.5-2.2-50.9-7.6-72.9-9.5c0.2-0.8,0.4-1.7,0.6-2.5l-4.1,2.3c-18-1.3-32.7,0.2-39.7,8.7
	c-2,4.8-4.2,9.4-6.6,14C2856.4,349.1,2842.2,355.4,2828.5,362 M819.8,958.9l16.1,22.6l9.1-7.3c54,5.1,103.6,17.6,150.8,24.3
	c-2,0.6-4,1.3-6,1.9c4-0.4,7.9-0.7,12-1.1c31.3,4.2,61.6,5.6,91.3,0.1c12.9-3.5,26.2-6.8,39.6-10c136.6-9.6,277.4-18.6,391.7-46.4
	c-2.3-2.1-4.9-4.2-7.7-6.3c-63.5,9.7-136.2,15-209,19.7c47.2-6.6,96.6-11.3,147.1-14.4c-4.4-1.4-8.6-2.7-12.3-3.7
	c7.8-9.5-25.1-24-52.2-36.7c-56.6,7.2-112.9,14.4-166,23.8c-31.6,5.5-66.9,7.2-103.5,7.5c-36.8,0.1-74.8-1.3-111.7-1.7
	C935.1,930.4,866.1,933.6,819.8,958.9 M175.2,1371.6c4.9-0.1,9.7-0.2,14.6-0.3c-11.8-16.7-20.9-33.6-26-50.1l-29-93.9l191.6-4
	c23.7-0.5,47.3-1.2,71-1.7c1.3-2.6,2.4-5,3.6-7.5c-27,0.6-53.8,1.4-80.8,1.9l-202.4,4.1l30.4,99.4
	C153.5,1336.7,162.9,1354.2,175.2,1371.6 M87.7,1423.7c-7.1-6.9-13.7-14-19.9-21.2c-19.8,3.7-39.7,7.2-59.8,10.5
	c-40.3,6.3-81.2,11.9-122.5,17.4l92.6-3.2l46.4-1.3l46.7-1.7C76.6,1423.9,82.2,1423.8,87.7,1423.7 M11.2,1804.4
	c0.1-0.3,0.1-0.5,0.2-0.8c14.8-0.2,29.4-0.8,43.8-1.7c56.5-16.3,132.8-19.2,208.1-23c-34.8,5.4-69.3,11.6-102,19.3
	c0.9,1.7,2,3.3,2.9,4.7c-4.6-0.1-8.9,0-13.8-0.2c1.3,0.6,2.4,1,3.5,1.4c3.6-0.2,7.2-0.3,10.8-0.5c-0.2-0.2-0.3-0.5-0.4-0.7
	c7.2,0.1,14-0.1,20.7-0.2c14.9-0.7,29.7-1.4,44.5-2.3c31.3-2,61.7-4.9,91.3-8.7c59-7.6,113.7-19.6,158.2-40.7
	c0.6-0.2,1.2-0.5,1.9-0.7l-97.1-30.8c-61.1,8.9-124.2,15-181.8,26.8c-46.6,8.3-104.5,1.5-158.8-1.5c-27.2-1.5-53.5-2-77.4,0.7
	c-11.9,1.4-23.3,3.6-33.8,6.9c-10.7,3.1-20.7,7.4-29.7,13.1l11.1,22.4l7.2-6.7C-46.9,1787.1-17.4,1796.6,11.2,1804.4 M761.5,2519.6
	c28.9,4.6,58.5,16.9,84.6,23.4l-2.3,2l5.6-1.2c17.2,4,32.8,5.2,45.6-0.5c5.2-3.6,10.6-7,16.1-10.3c59.1-9.1,120.4-17.1,168.3-38.6
	c-2.6-3-5.1-6-7.4-9c-25.9,6.4-55.1,10.4-84.1,14.4c23.2-6.9,48.2-12,75-14.6c3,0,5.8-0.3,8.4-0.8c-12.9-16.4-22.7-32.4-29.4-47.1
	c-36.7,10-74.3,18.5-107.2,31.5c-56.6,21.9-164.9-16.6-191.6,35.6l16.7,22.6L761.5,2519.6z M813.1,2709.7
	c35.7-1.3,71.5-2.5,107.3-3.7c5.6-3,10.6-6.5,14.8-10.8c3.2-3.3,6.2-7,8.5-11.3c6.2-7.1,12.8-13.7,19.7-19.9
	c-35.6,9.8-70.8,19.9-105,30.8C843.2,2699.6,828.1,2704.6,813.1,2709.7 M737.6,2726.4c-2.6,5.7-5.9,11-9.6,16.1
	c-4.2,1.8-8.2,3.9-12.4,5.8c17.4-0.7,34.8-1.3,52.2-2c-14-1.1-27.8-2-40.9-2.2c0.4-0.5,0.7-1,1-1.6c13.9-6.1,28.1-11.8,42.6-17.3
	C759.5,2725.6,748.6,2726,737.6,2726.4 M498.8,2966.5c15.3,0.3,30.6,0.7,45.9,1c-3.7-2.4-7.6-4.8-11.3-7.2l-291.1-193l399.7-16.3
	c-1-4-2.1-7.9-3-11.4c4.9-1.2,10.6-4.5,17.2-10.3c-6.7,0.3-13.5,0.5-20.1,0.8c1,2.9,1.9,6,2.9,9.5c-9.2,2.3-15.4-2.2-19.1-8.9
	l-448.9,17.8L498.8,2966.5z M785,3121.9c6-0.3,12.1-0.6,17.9-1c9-0.6,17.6-1.6,26.3-2.6c-12-5.2-23.8-10.6-35.6-15.9
	c-16,0.6-32.2,0.9-48.4,1.3C758.4,3109.8,771.7,3115.9,785,3121.9 M8428.1,4492.4l532.5,31.5c46.5,2.7,92.5,4.7,138,5.9
	c6.2-0.8,12.5-1.6,18.7-2.4c-52-1.2-104.7-3.3-158.2-6.4l-517.4-30.6C8437.2,4491.1,8432.6,4491.7,8428.1,4492.4 M9303.7,4994.1
	c32.3-9.8,57.1-27.1,89.3-36.8c89.3-36.9,242.6-37.9,269.5-94.9c5.8-8.3,32.3-9.8,30.6-25.5 M9693.1,4836.9
	c-68.5,43.6-201.1,51.3-318.6,74c-39.8,2.3-49.4,34.5-102.5,37.6c-58.8,11.3-83.5,28.6-129.1,39.2l54.8,12.7 M10664.6,4518.9
	c110.1-30.2,293.3-1.2,360.1-60.6c-7.5-7.5-15-15-22.5-22.5l-5.7,8.3c-51-1.7-100.5-11.5-145.7-15.5c1.5-0.8,3.3-1.5,4.8-2.4
	c-3.5,0.7-7,1.3-10.6,1.9c-29.9-2.4-58-1.8-83.2,5.8c-10.6,4.4-21.7,8.8-32.9,13c-152.4,22.9-311.7,44.4-414.6,100.2
	c-70.3,27.8-112.2,69.9-182.5,97.8c26.4-1.5,73.7,3.6,92.8-5.4C10344.4,4577.2,10522.3,4558.8,10664.6,4518.9 M11617,4552.6
	c35.6-11.9,70.3-24.3,104-37.7c172.6-52.5,434.7-53.4,645.1-84.7c-15.3-22.4-37-44.9-68.5-67.6c-272.6-10-480.6,44.6-741.1,46.5
	c-1.1,0.9-2.4,1.7-3.4,2.7c-61.1,51.1-248.3,46.2-343.3,91.3c-87.5,52.6-205.1,75.3-300,120.5c191.5-11.1,357.4-37.9,559.7-35.3
	C11517.5,4575.7,11566.5,4563.7,11617,4552.6 M10279.6,5033.2c47.4-7.5,95.1-15,142.8-22.9c128.6-26.3,236-56.2,341.7-91
	c-93.6,9.6-189.2,17.7-287.9,23.5C10385.3,4956.4,10339.3,4999,10279.6,5033.2 M10849.2,4890.4c-28.4,10.1-56.7,19.6-85,28.9
	c138.7-14.2,273.1-31.5,406.4-49.6c204.7-44.2,413.5-84.4,609.3-137.5c22.7-5.6,45.9-10.4,69.5-14.7
	c-446.3,17-891.3,33.9-1168.3,150c-4.8,2.4-10.8,4.5-16.1,6.7c171.8-15.4,335.8-36.4,498.3-58.4
	C11056.7,4838.8,10951.1,4862.8,10849.2,4890.4 M11422.9,4600.2c13.2-0.4,26.1-0.8,39.1-1.4c12.3-3.3,24.3-6.7,36.3-10.2
	c-9.6-0.2-19.3-0.4-28.8-0.5C11453.9,4592.2,11438.1,4596.1,11422.9,4600.2 M10850.8,4428.6c-1.9-0.2-3.8-0.4-5.7-0.5
	c-37.6,6.7-76.6,12.8-116.1,18.8c-45.7,17-96.1,32.2-150.5,44.7C10684.5,4476.4,10789.2,4461,10850.8,4428.6 M11512.4,1606.9
	c76.3-3.1,116.6-18.2,188.7-22.7c-4.3-4.6-5.3-7.1,13.2-0.8c-4.7,0.2-8.8,0.6-13.2,0.8c3.8,4.3,10.4,10.5,6.9,13.5
	c39.1-10.4,86.5-20.6,137.7-25c-0.5-8.3-1.2-16.6-2.6-24.9C11715.2,1557.4,11583,1562.5,11512.4,1606.9 M11811.4,1502.1
	c4.5-0.3,8.6-0.7,13.2-0.8C11806.2,1495,11807.2,1497.5,11811.4,1502.1 M9492,1157.7c-13.5,0.6-40.4,1.9-54,2.5
	c-3.9,4.9-7.7,9.8-11.6,14.7c13-0.2,26.2-0.3,39.5-0.3L9492,1157.7z M12133.5,1541.8c-4.2-4.6-5.3-7.1,11.7-0.7
	C12141,1541.3,12137.4,1541.6,12133.5,1541.8c3.8,4.3,10.2,10.5,7.3,13.5c34-10,75.5-19.8,120.9-23.8c-1-8.2-2.3-16.5-4.1-24.8
	c-113.6,8.7-232,12.5-290.3,56.4C12034.8,1560.2,12069.6,1545.8,12133.5,1541.8 M12237.8,1460.3c-16.9-6.4-15.9-3.9-11.8,0.7
	C12230.1,1460.8,12233.7,1460.4,12237.8,1460.3 M10231.4,1827.4c-57.7,19.1-109.3,41.8-143.2,72.1
	C10163.9,1892.2,10198.3,1860.3,10231.4,1827.4 M10930.9,1090.2c34.3-24.6,59-35.9,75.8-39.4c-1.7-10.9-3-24.4-3.4-41.3
	c-3.3,0.2-6.8,0.4-10,0.5c-44.7,16.6-91.4,31.9-139.3,46.5c-14.8,10.7-27.7,22.1-34.3,35.8
	C10857.1,1091.9,10895.1,1091.9,10930.9,1090.2 M11006.7,1050.7C11022,1144.2,11072.7,1037.3,11006.7,1050.7 M10230.8,1903.3
	c38.1-8.7,75.8-18,114.8-26.6c51.4-14.4,98.3-29.7,142.6-46.1c22.2-8.2,43.7-16.6,64.8-25.3c21.3-8.6,42.5-17.2,63.5-26.3
	c-79.4,10.3-158.9,20.9-242.5,28.4C10299.1,1823,10271,1866.9,10230.8,1903.3"/>
<rect x="-483.4" y="1508.5" class="st0" width="11814.9" height="1930.7"/>
</svg>
