<?xml version="1.0" encoding="utf-8"?>
<!-- Generator: Adobe Illustrator 22.0.1, SVG Export Plug-In . SVG Version: 6.00 Build 0)  -->
<svg version="1.1" id="Layer_1" xmlns="http://www.w3.org/2000/svg" xmlns:xlink="http://www.w3.org/1999/xlink" x="0px" y="0px"
	 viewBox="0 0 1134.2 739.2" style="enable-background:new 0 0 1134.2 739.2;" xml:space="preserve">
<style type="text/css">
	.st0{fill:#EDF4FA;}
</style>
<path class="st0" d="M64.4,248.9c-4.2,4.7-9.8,4.1-15.4,4c0.2-1,0.4-2.1,0.6-3.1c2.3-0.1,4.5-0.8,6.4-1.7c-0.2,0.3-0.1,1.2-0.1,1.7
	c-0.2,0-0.4,0-0.6,0c0.6,0.9,0.6,0.6,0.6,0C59,250,61.1,248.5,64.4,248.9 M48.5,258.8c0.6,0.9,0.6,0.6,0.6,0
	C48.9,258.8,48.7,258.8,48.5,258.8 M104.7,261.2c-0.5,0.2-1,0.3-1.5,0.5l0.4,0C104,261.6,104.3,261.4,104.7,261.2 M89.5,274.8
	c-1.8,1-3.7,2.1-5.5,3.3c-8.8,4.2-19.7,1.1-29.3,2.4c0,2.9,0.2,5.8,0.8,9c11,4.4,21.2,0.4,32,3.3l0.2-0.3c4.1-5.4,11.7-2.5,17-6.7
	c5.3-5.2,10.9-6.5,16.3-10.7c-8.3-1.1-16.1,0.1-24.4-2.7C94.3,273.2,91.9,274.1,89.5,274.8 M99,271.4c-0.6-0.1-1.1-0.2-1.7-0.3
	c-0.6,0.2-1.2,0.5-1.8,0.8c0.4,0.1,0.8,0.3,1.2,0.4C97.5,272,98.3,271.7,99,271.4 M117.2,299.1c0.1,0,0.1,0.1,0.2,0.1
	c1.8-0.3,3.6-0.6,5.4-0.8c2.4-1.5,5-2.6,7.7-3.4C125.6,295.4,120.8,296,117.2,299.1 M978.1,494.5c0.4,0,0.7,0,1.1,0.1
	C978.2,493.6,978.1,493.9,978.1,494.5 M1039.7,418c0.3-1.1,0.6-2.2,0.8-3.3c-11.7,1.2-23.5,1.7-31.5,7.5c6.9-0.3,11-2.3,17.6-2.8
	c-0.2-0.6-0.2-0.9,1.2-0.1c-0.4,0-0.8,0.1-1.2,0.1c0.2,0.6,0.5,1.4,0.1,1.8C1030.5,419.9,1035,418.6,1039.7,418 M1039.5,408.7
	c0.4,0,0.8-0.1,1.2-0.1C1039.4,407.7,1039.3,408.1,1039.5,408.7 M1030.2,478.4c0.3-1,0.7-2.1,0.9-3.2c-10.5,0.3-21.1-0.1-28.6,5
	c6.1,0.2,10-1.4,15.8-1.5c-0.1-0.6-0.1-0.9,1.1,0c-0.4,0-0.7,0-1.1,0c0.1,0.6,0.3,1.4-0.1,1.8C1021.8,479.5,1026,478.6,1030.2,478.4
	 M1030.7,469.2c0.4,0,0.7,0,1.1,0C1030.7,468.3,1030.6,468.6,1030.7,469.2 M136.3,459.1c-3,0.7-5.9,1.2-9.5,1.5
	c0.2,0.6,0.2,0.9-1.3,0.1c0.5,0,0.9-0.1,1.3-0.1c-0.2-0.6-0.5-1.4,0-1.8c-4.3,1.3-9.4,2.6-14.6,3.1c-0.4,1.1-0.7,2.2-1,3.3
	c12.9-1.2,26.2-1.5,34.8-7.8C142.2,457.7,139.2,458.4,136.3,459.1 M110.5,471.4c1.5,0.9,1.5,0.5,1.3-0.1
	C111.3,471.3,110.9,471.4,110.5,471.4 M234.8,516.6c-5.1,3.8-8.4,5.6-10.4,6.2c-0.4,1.5-0.9,3.4-1.8,5.8c0.4-0.1,0.8-0.1,1.1-0.2
	c5.9-2.7,11.8-5.3,17.9-7.7c2.2-1.7,4.2-3.3,5.6-5.3C243,515.7,238.8,516,234.8,516.6 M224.3,522.8
	C227.5,509.8,216.3,525.2,224.3,522.8 M321.6,467.8c-2.4,0.8-4.8,1.7-7.1,2.6c-2.4,0.9-4.7,1.9-7,2.9c2.5-0.8,4.9-1.6,7.3-2.5
	c2.4-0.9,4.8-1.8,7-2.7c4.5-1.9,8.7-4,12.2-6.4c-1.3,0.3-3.1-0.4-4.4-0.1C328.2,464,325.4,466.8,321.6,467.8 M252.2,464.9
	c-9,1.9-18.2,3.5-27.9,4.2c-5.2,2-10.4,4-15.8,5.8c-2,0.9-4,1.9-5.9,2.9l-2.9,1.5l-3,1.4c-4.9,1.9-10.2,3.4-15.8,4.7
	c-2.8,0.6-5.6,1.2-8.6,1.7c-3,0.4-5.9,0.8-9,1.2c-6.1,0.7-12.2,1.4-18.2,2.1c-6.2,0.5-12.2,1.1-18.1,1.9c0.2,3,1,6,2.8,9
	c6.9,0.5,13.8,0.6,20.4,0.2c6.6-0.5,13.1-1.3,19.6-2.2c3.2-0.5,6.5-0.8,9.7-1.4c3.2-0.5,6.4-1,9.6-1.5c6.4-1,12.9-1.6,19.5-2
	c0.2-0.1,0.3-0.3,0.5-0.4c4.2-3.7,10.9-5.7,17.9-7.7c1.8-0.5,3.6-0.9,5.3-1.5c1.7-0.5,3.5-1.1,5.2-1.7c3.4-1.2,6.6-2.6,9.3-4.4
	c2.6-2,5.3-3.8,8.1-5.5c2.7-1.7,5.5-3.3,8.3-4.8c5.6-3.1,11.2-6.1,16.3-9.8C269.9,460.5,261.1,462.8,252.2,464.9 M229.2,467.1
	c-1.3,0.2-2.5,0.4-3.8,0.5c-1.3,0.6-2.6,1.1-3.9,1.7c0.9,0,1.9-0.1,2.8-0.1C225.9,468.5,227.6,467.8,229.2,467.1 M292,478.8
	c-4.8,2-9.3,4.1-12.8,6.8c0.2,0,0.4,0,0.5,0c3.9-1.4,7.9-2.7,11.9-4c4.9-3,10.2-5.9,15.8-8.3C302.1,475,296.9,476.8,292,478.8
	 M32.4,341.8c0.8,1.1,0.9,0.8,1,0.2C33,341.9,32.7,341.9,32.4,341.8 M108.2,411.6c-4.9,1.9-8,2.6-9.7,2.6c-0.8,1.2-1.8,2.7-3.2,4.6
	c0.3,0.1,0.6,0.1,0.9,0.2c5.2-0.8,10.4-1.5,15.7-2c2.1-0.8,4.2-1.8,5.8-3.2C114.6,413,111.4,412.2,108.2,411.6 M98.5,414.2
	C105.1,403.7,91.9,414.2,98.5,414.2 M181.6,424.3c1.1,0.1,3.2,0.4,4.2,0.5c0.6-0.5,1.2-1,1.8-1.6c-1-0.2-2-0.4-3-0.5L181.6,424.3z
	 M22.6,141.6c1.8-0.1,3.5-0.5,5.3-1.3c-2.1-0.6-3.9-0.9-5.7-1.1c-1.8-0.2-3.6-0.4-5.6-1c-0.2,0.6-0.3,0.8-0.7-0.2
	c0.3,0.1,0.5,0.1,0.7,0.2c0.2-0.5,0.3-1.3,0.8-1.5c-2.8,0.1-6,0-9-0.7c-0.7,0.8-1.4,1.6-2,2.5c3.7,1,7.3,2.2,10.9,2.7
	C19,141.6,20.8,141.7,22.6,141.6 M3.2,143.5c0.4,1,0.6,0.8,0.8,0.2C3.7,143.7,3.4,143.6,3.2,143.5 M53,213.5
	c-4.3,1.7-6.9,2.2-8.4,2.2c-0.8,1.2-1.9,2.6-3.3,4.3c0.2,0.1,0.5,0.1,0.7,0.2c4.4-0.6,8.9-1,13.3-1.3c1.9-0.7,3.7-1.6,5.2-2.9
	C58,215.1,55.5,214.1,53,213.5 M44.6,215.6C51.5,205.7,39.1,215.4,44.6,215.6 M77.9,161.7c-0.7,0.1-1.4,0.1-2.1,0.2l0.5,0.1
	C76.9,161.9,77.4,161.8,77.9,161.7 M124.7,195.7c-1.6,1.7-4,3.2-6.4,2.7c-3.2-0.2-6.4-0.1-9.5,0.3c6.5,0.2,13,0.4,18.3-1.6
	C126.2,196.9,125.5,195.8,124.7,195.7 M85.5,175.8c-1.4-0.2-2.8-0.5-4.2-0.7c-5.5-1-11-2.2-16.5-4.4c-3.5,0.3-7.1,0.4-10.7,0.5
	c-2.8,0.4-5.7,1-8.6,1.6c-1.7,0.2-3.4,0.3-5.2,0.2c-1.7-0.1-3.5-0.3-5.3-0.5c-3.6-0.5-7.1-1.3-10.8-2.1c-1.8-0.5-3.6-0.9-5.4-1.4
	c-1.8-0.5-3.6-1.1-5.4-1.6c-3.6-1.1-7.2-2-10.9-2.7c-1.3,2.5-2.2,5.2-2.5,8.1c3.6,2.1,7.5,3.8,11.4,5.2c2,0.7,3.9,1.4,5.9,1.9
	c2,0.5,4,1,5.9,1.4c7.9,1.7,15.8,3.4,23.4,6.2c0.1-0.1,0.3-0.1,0.4-0.2c3.8-1.9,8.2-1.7,12.8-1.4c4.6,0.4,9.3,0.6,13.6-0.8
	c4.3-1.9,8.4-2.9,12.5-3.8c4.1-1,8.1-1.9,12.2-3.5c-2.8-0.6-5.6-1-8.4-1.4C88.3,176.2,86.9,176,85.5,175.8 M68.2,170.3
	c-0.8-0.2-1.5-0.4-2.2-0.6c-0.9,0.1-1.8,0.3-2.7,0.3c0.5,0.2,1,0.4,1.5,0.7C65.9,170.6,67.1,170.5,68.2,170.3 M402.7,15.2
	c1.4-3.2,2.5-4.7,3.3-5.1c-0.2-1.4-0.4-3.2-0.5-5.4c-0.2,0-0.3,0-0.5,0.1c-2,2.2-4.1,4.1-6.3,6c-0.6,1.4-1.1,2.9-1.3,4.7
	C399.2,15.4,401,15.4,402.7,15.2 M406,10.1C407.6,22.4,409.1,8.3,406,10.1 M361.9,19.6c-0.6,0.1-1.7,0.3-2.3,0.4
	c-0.1,0.7-0.1,1.3-0.2,2c0.6-0.1,1.1-0.1,1.7-0.1L361.9,19.6z M425,30.1c0.2-0.4,0.4-0.9,0.6-1.3c-2.2-2.3-4.2-0.2-6.2,2.7
	C421.3,30.9,423.1,30.5,425,30.1 M416.9,39.9c2-1.2,4-2.8,5.8-5.6C420.6,33.8,418.7,36.8,416.9,39.9 M557.8,87.7
	c0.1-0.3,0.2-0.6,0.2-0.9c-1,0-1.9,0-2.8,0C556.6,87.3,557.8,87.7,557.8,87.7 M550.6,97.2c0-0.3,0-0.5,0.1-0.8
	c-0.3,0.2-0.5,0.4-0.8,0.5C550.1,97,550.3,97.1,550.6,97.2 M558.1,86.8c0.9-3.4,0.7-7.1,3.2-9.9c1.6,0.6,4.6,1.9,6.2,2.5
	c2.2-1.1,1.4-3.5,2-5.3c1.6,0.7,3.2,1.3,3.6,0.5c0.4-0.5,0.7-1,0.8-1.5c0.1-0.5,0.2-1,0-1.5c-0.4-1-1.5-2.1-3-3
	c-2.8,1.7-6,2.8-8.9,3.8c-2.9,1-5.6,1.9-7.4,3C550.9,77.5,550.9,80.4,558.1,86.8 M555,86.8c-2.1,0.1-3.9,0.4-5.4,1
	c-1.6,0.6-2.9,1.5-4.3,2.7c2.3,0.7,4.6,1.5,7,2.3C553.5,90.9,555.1,89.2,555,86.8 M107.2,49.2c-6.2-1.1-10.5-0.1-16.5-1.1
	c0,0.6-0.1,0.9-1.1-0.2c0.4,0.1,0.7,0.1,1.1,0.2c0-0.6,0-1.4,0.5-1.6c-3.8,0.4-8.4,0.6-12.7,0.1c-0.6,0.9-1.2,1.9-1.7,2.8
	C87.5,50.8,98.4,52.9,107.2,49.2 M75.7,55.1C75.4,55.1,75,55,74.6,55C75.6,56,75.7,55.7,75.7,55.1 M250.2,59.6
	c5.4,0.3,10.8,0.8,16.3,1.3c6.5-0.2,11.8-3.1,17.2-5.8C271.8,56.7,259.3,56.9,250.2,59.6 M310.7,44.4c-8.2-2.4-14.5-0.6-20.4,2.2
	c6.3-0.3,12.6-0.6,18.8-0.9C309.6,45.3,310.2,44.9,310.7,44.4 M283.8,55.1c6.8-1,13.3-2.5,18.9-5.2
	C295.3,49.2,289.5,52.1,283.8,55.1 M183.1,68.7c-1,0.1-2,0.2-2.9,0.3c0.3,0,0.5,0.1,0.8,0.1C181.6,68.9,182.4,68.8,183.1,68.7
	 M166.5,78.4c-4.8,0.5-9.6,0.9-14.5,1.1c-3.8,0.6-7.5,1.4-11.2,2.1c-8.9,1.1-18.7,0.5-28.7-0.8c-5-0.7-10-1.3-15-2
	c-5-0.7-9.9-1.3-14.8-1.6c-0.6,2.8-0.8,5.7-0.1,8.8c5.3,1.8,10.6,3,15.9,4c5.3,0.9,10.6,1.5,15.9,2.1L122,93
	c2.6,0.3,5.3,0.5,7.9,0.9c5.3,0.7,10.6,1.5,15.9,2.8c0.2-0.1,0.3-0.1,0.5-0.2c8.9-4.5,23.6-0.2,34.6-3.6c10.9-4.3,22-4.8,32.8-8.3
	c-8-1.1-15.9-1.5-23.7-2.3C182.3,81.4,174.5,80.5,166.5,78.4 M290.3,46.6c-4.1,0.2-8.3,0.5-12.5,0.7c-5.8,0.6-11.3,1.4-16.6,2.3
	c-5.3,0.9-10.5,1.9-15.8,3.1c7.9,0.4,15.9,0.9,24,1.7C277.4,54.2,283.6,49.9,290.3,46.6 M207.2,58.1l7.5-0.6l7.4-0.8
	c4.9-0.6,9.9-1.2,14.8-1.9c2.9-0.7,5.7-1.4,8.5-2c-2.9-0.1-5.9-0.2-8.8-0.3c-2.9-0.1-5.9-0.2-8.8-0.3c-5.8-0.1-11.7-0.2-17.5-0.3
	c-9.5,0.7-19.1,1.4-28.7,2c-4.8,0.3-9.6,0.7-14.4,1.1c-4.8,0.4-9.7,0.8-14.5,1.4c-2.2,0.2-4.4,0.3-6.6,0.3
	c36.3,6.8,73,12.7,102.4,3.6c0.5-0.2,1.1-0.4,1.7-0.5c-7.2-0.4-14.4-0.7-21.6-1C221.5,58.4,214.3,58.3,207.2,58.1 M171.1,77.9
	c-1.1-0.2-2.1-0.4-3.2-0.6c-1.2,0.1-2.4,0.3-3.7,0.4c0.8,0.2,1.5,0.4,2.3,0.6C168.1,78.2,169.6,78.1,171.1,77.9 M204.5,107.8
	c0.1,0.1,0.3,0.1,0.4,0.2c3.5-0.1,7.2-0.1,10.8-0.1c4.9-1.1,10.1-2.1,15.4-2.6c-4.8,0-9.6,0-14.2,0.3
	C212.4,105.9,208.2,106.6,204.5,107.8 M997,524.8c0.5-1,1-2,1.4-3c-11.6-0.5-23.3-1.8-32.1,2.7c6.7,0.6,11.1-0.6,17.6-0.2
	c-0.1-0.6,0-0.9,1.2,0.1c-0.4,0-0.8-0.1-1.2-0.1c0.1,0.6,0.2,1.4-0.3,1.7C987.6,525.2,992.3,524.6,997,524.8 M998.7,515.9
	c0.4,0,0.8,0,1.2,0.1C998.7,514.9,998.6,515.2,998.7,515.9 M302,525.4c0.1,0.3,0.2,0.7,0.2,1c0.9-0.3,1.7-0.6,2.4-0.9
	C303.3,525.4,302,525.4,302,525.4 M304.3,514.4c0.2-0.3,0.3-0.5,0.5-0.8c-0.3,0-0.5,0-0.8,0C304.2,513.8,304.2,514.1,304.3,514.4
	 M302.3,526.4c0.9,3.7,2.7,7.4,2.1,11c-1.4-0.1-4.3-0.2-5.8-0.2c-1.1,1.9,0.8,4,1.2,6c-1.4-0.1-2.9-0.1-2.7,0.9
	c-0.4,2.6,1.5,4.4,4.4,5.1C305.5,538.2,320.6,534.8,302.3,526.4 M312.2,518.8l-7.6-0.3c-0.3,2.3-1,4.5,0.3,6.8
	C308.5,523.9,310.5,522,312.2,518.8 M986.7,587.8c7.7-0.4,12.5-2.5,19.8-3.1c-0.2-0.6-0.2-0.9,1.3-0.1c-0.5,0-0.9,0.1-1.3,0.1
	c0.2,0.6,0.5,1.4,0,1.8c4.4-1.4,9.6-2.8,14.9-3.4c0.4-1.1,0.7-2.2,0.9-3.3C1009.2,581.1,995.9,581.9,986.7,587.8 M1022.8,573.5
	c-1.5-0.8-1.5-0.5-1.3,0.1C1021.9,573.6,1022.3,573.6,1022.8,573.5 M893.9,584.7c-0.3,0-0.6,0-0.9,0.1c-0.8,0.3-1.7,0.5-2.5,0.8
	C891.6,585.3,892.7,585,893.9,584.7 M902.1,573.5c1.3,0,2.7-0.1,4-0.1c1.4-0.4,2.8-0.8,4.2-1.3c-1,0-1.9-0.1-2.8-0.1
	C905.7,572.5,903.9,573,902.1,573.5 M424.9,625.7c0.2,0.3,0.3,0.6,0.5,1c0.5-0.4,1-0.8,1.4-1.2C425.8,625.6,424.9,625.7,424.9,625.7
	 M422.8,613.4c0.2,0.3,0.3,0.5,0.5,0.8c0-0.3,0.1-0.6,0.1-0.9L422.8,613.4z M425.4,626.7c1.8,3.6,4.1,7.1,4.8,10.8
	c-1,0.1-3.1,0.4-4.1,0.6c-0.1,2.1,1.8,3.9,2.7,5.9c-1,0.1-2,0.3-1.6,1.3c0.5,2.7,2.4,4.2,4.6,4.6
	C431.2,638.2,440.8,632.7,425.4,626.7 M426.9,625.3c2.1-2.1,3-4.2,3.2-7.7l-5.5,0.8C425.1,620.8,425.4,623.1,426.9,625.3
	 M679.9,615.4c-6.5,1.7-12.7,3.9-17.8,7.3C669.4,622.6,674.7,619.1,679.9,615.4 M552,700.6c0.1,0.3,0.2,0.7,0.3,1
	c0.6-0.3,1.2-0.6,1.7-0.9C552.9,700.6,552,700.6,552,700.6 M552.5,688.7c0.1,0.3,0.2,0.5,0.3,0.8c0.1-0.3,0.2-0.5,0.3-0.8
	C552.9,688.7,552.7,688.7,552.5,688.7 M552.2,701.6c1,3.7,2.6,7.3,2.4,11c-1.1,0-3.2-0.1-4.3-0.1c-0.6,2,0.9,4,1.3,6
	c-1.1,0-2.2,0-1.9,1c-0.1,2.6,1.4,4.4,3.7,5C555.6,713.4,566.5,709.6,552.2,701.6 M559,693.8c-1.9,0-3.8-0.1-5.7-0.1
	c-0.1,2.3-0.4,4.6,0.7,6.9C556.6,698.9,558,697,559,693.8 M1011.3,694.4c-10.4,0.4-21,0.2-28.5,5.3c6.1,0.1,9.9-1.6,15.8-1.6
	c-0.1-0.6-0.1-0.9,1.1,0c-0.4,0-0.7,0-1.1,0c0.1,0.6,0.4,1.4,0,1.8c3.5-1.1,7.7-2.1,11.9-2.3
	C1010.8,696.6,1011.1,695.5,1011.3,694.4 M1011.9,688.4c-1.2-0.9-1.2-0.6-1.1,0C1011.2,688.4,1011.5,688.4,1011.9,688.4
	 M843.5,707.2c-5.3,0.1-10.7,0.2-16.1,0.1c-6.3,0.7-11.3,4.1-16.3,7.3C822.7,712,835,710.8,843.5,707.2 M785.3,727.2
	c8.5,2,14.6-0.3,20.2-3.6c-6.3,0.8-12.5,1.5-18.7,2.1C786.2,726.2,785.7,726.7,785.3,727.2 M811.1,714.6c-6.6,1.5-12.9,3.4-18.3,6.6
	C800.2,721.3,805.7,718,811.1,714.6 M918.5,632.2c4.2-2.8,6.9-4,8.5-4.3c0.4-1.4,1-3.1,1.9-5.2c-0.3,0-0.6,0-0.9,0
	c-4.6,1.7-9.3,3.2-14.1,4.6c-1.8,1.2-3.5,2.5-4.8,4.2C912.2,631.8,915.4,632.1,918.5,632.2 M927,627.9
	C923.4,639.7,933.3,626.8,927,627.9 M906.9,690.7c0.9-0.2,1.8-0.4,2.8-0.6c-0.2,0-0.5,0-0.7,0C908.3,690.3,907.6,690.5,906.9,690.7
	 M843.1,660.6c4.2-0.3,8.3-0.9,12.3-1.8c-8.4,0.9-16.9,1.8-23.5,4.6c1.1,0,2.4,1,3.5,1.1C837.1,662.4,839.9,660.5,843.1,660.6
	 M986.7,688.5c-13.6,1.5-27,0.7-40.2,2.8c-12.4-0.6-24.8-1.2-36.8-1.3c11.3-2.6,21.7-5.2,31.6-8.6c-11.2,2.3-22,5.3-32.4,8.6
	c-22.6-0.1-43.9,1.9-61.7,9.7c-15.5,7.7-46.2,5.1-59.9,20.7c2,0.5,3.8,0.7,5.5,0.7c-2.2,1.3-4.3,2.8-6.1,4.6
	c-27.8,2.9-55.3,4.5-84.5,3.9c-4.3-0.1-6.9,2.9-11.2,2.8c-4.3,0.1-8.6,0.2-12.8,0.3c0,0.2,0.1,0.4,0.3,0.7
	c-17.5,0.9-34.6,2.5-52.3,5.5c-8.4,0.8-17.3-0.3-25.9-0.5c-3.2-0.1-4.1-4.1-6.5-5.1c-9.8-5.2-17.1-9.3-27.3-11.5c0,0-0.5-2-0.7-3
	c-1.4,0.3-2.8,0.3-3.9-0.1c2.1-11.1,13.1-14.9-1.2-22.9c0,0,0,0,0,0c0.6-0.3,1.2-0.6,1.7-0.9c0.1,0,0.1,0,0.2,0c0,0,0-0.1,0-0.1
	c2.6-1.6,3.9-3.5,5-6.8c-1.9,0-3.8-0.1-5.7-0.1c0-1.4,0-2.8-0.5-4.2c0.1-0.3,0.2-0.5,0.3-0.8c0.8,0,1.5,0,1.5,0
	c0.1-0.8,0.1-1.5,0.1-2.3c4-4.2,11.3-6.3,8.9-10.5c-1.6-2.2-4.8-0.4-8.7,0.8c-0.3-0.4-0.7-0.7-1-1c5.2-0.9-1.6-7,1.4-7.9
	c4.3,0.1,8.4-0.8,12.7-0.8c17.6,0.3,32.2-0.4,48.8-3c0.7-0.1,1.5-0.2,2.2-0.3c8.1-1.1,16-1.1,24.3-0.2c-0.4,0.7-0.8,1.3-1.2,1.9
	c6.7,0.8,13.4,1.1,19.7-0.3c12.1-2.9,24.2-5.8,37.1-7.2l-46.6-9.9c-8.9,0.8-17.8,1.4-26.9,1.9c-5.5,0.3-8.6,3.5-14,3.9
	c-5.5,0.5-10.9,1-16.2,1.5c0.1,0.2,0.2,0.4,0.4,0.7c-22.1,2.5-43.5,5.8-65.7,10.4c-10.6,1.6-21.9,1.3-32.8,1.9
	c-4.1,0.2-5.4-3.8-8.5-4.6c-1.9-0.7-3.8-1.3-5.6-1.9c-0.2,0-0.3,0-0.5,0c-4.1,0.4-8.3,0.6-12.3,1.2c-3,0.4-4.7-3.6-7.2-4.3
	c-5.1-2-9.7-3.7-14.2-5.1c-2.9-0.8-5.7-1.5-8.7-2c-1.2,2-2.3,4.3-2.8,7c-2.8-0.5-4.9-2.1-4.9-4.8c-0.3-1,1-1.1,2.4-1.2
	c-0.5-1.5-1.7-2.9-2-4.3c-1,0.3-2.1,0.4-3,0.3c-0.5-11.7,9.2-17.3-6.3-23.2c0,0,0,0,0,0c0.5-0.4,1-0.8,1.4-1.2c0.1,0,0.1,0,0.2,0
	c0,0,0-0.1-0.1-0.1c2.1-2.1,3-4.2,3.3-7.7c-1.8,0.3-3.7,0.5-5.5,0.8c-0.3-1.4-0.6-2.9-1.4-4.2c0-0.3,0.1-0.6,0.1-0.9
	c0.8-0.1,1.5-0.2,1.5-0.2c-0.1-0.8-0.2-1.6-0.4-2.4c1.5-2.5,3.9-4.5,5.5-6.4c1.7-1.9,2.5-3.7,0.9-5.6c-2-2-4.8,0.3-8.3,2.2
	c-0.4-0.3-0.8-0.6-1.2-0.9c4.9-1.7-3-6.9-0.2-8.4c4.3-0.6,8.1-2.1,12.4-2.7c17.4-2.3,31.8-4.8,48-9.7c0.7-0.2,1.4-0.4,2.2-0.6
	c7.4-1.9,14.7-2.8,22.6-3c-8.6-2.3-17.2-4.7-25.8-7c-0.7,0.1-1.5,0.1-2.3,0.1c-5.8-0.1-11.5-0.1-17.2-0.1c0,0.2,0.1,0.4,0.3,0.7
	c-23.6,0.3-46.6,1.4-70.6,3.7c-11.4,0.5-23.1-0.9-34.7-1.4c-4.3-0.2-5.1-4.2-8.2-5.3c-12.5-5.4-22-9.8-35.4-12.3c0,0-0.4-2-0.6-3
	c-1.9,0.3-3.7,0.2-5.3-0.2c4-11,19.1-14.3,0.8-22.7c0,0,0,0,0,0c0.9-0.3,1.6-0.6,2.4-0.9c0.1,0,0.2,0,0.3,0c0,0,0-0.1,0-0.1
	c3.6-1.5,5.6-3.4,7.3-6.5c-2.5-0.1-5.1-0.2-7.6-0.3c0.2-1.4,0.2-2.8-0.3-4.2c0.2-0.3,0.3-0.5,0.5-0.8c1.1,0,2.1,0.1,2.1,0.1
	c0.2-0.8,0.3-1.5,0.4-2.3c2.8-1.9,6.5-3.4,9.3-4.8c0,0-0.1,0-0.2,0c1-0.9,1.9-1.9,2.9-2.8c0.4-0.1,0.8-0.1,1.2-0.2
	c0.2-0.4,0.3-0.9,0.1-1.3c-1.7,0.8-3.4,1.6-5.1,2.3c-3.2,1.4-6.4,2.9-9.6,4.3c-6.5,2.8-12.9,5.8-19.7,8.5
	c-6.7,2.7-13.5,5.5-20.6,8.2c-7.1,2.6-14.4,5.2-22,7.8c-3.8,1.2-8.1,2-12.5,2.8c-4.4,0.8-8.8,1.4-13,2c5.4-2.5,11-4.9,16.6-7.2
	c2.8-1.1,5.6-2.3,8.4-3.5c2.8-1.2,5.6-2.3,8.4-3.5c3.1-0.3,6.1-0.7,9.1-1.2c1.5-0.2,2.9-0.5,4.3-0.8c1.4-0.3,2.7-0.7,4-1.1
	c5.2-1.6,9.7-3.9,13.1-7.3c1.7-1.4,3.4-2.7,5.1-3.9c-12,4.8-23.9,9.6-35.6,14.3c-7.4,0.8-14.8,1.5-22.2,2.4c0.1-0.1,0.2-0.2,0.3-0.3
	c5.2-2,10.2-4.2,15.4-6.3c5.5-0.6,10.8-1.3,15.6-2.5c4.8-1.2,9-3.1,12.4-5.6c0.8-0.7,1.7-1.3,2.4-2.1c1.7-1.4,3.4-2.6,5.1-3.9
	c-7.3,2.9-14.6,5.9-21.9,8.8c-4.6,1.8-9.1,3.5-13.7,5.4c-3.2,0.3-6.5,0.7-9.8,1c0.2-0.3,0.5-0.6,0.6-0.9c2.4-1.5,4.5-14.3-0.9-16.6
	c-2.6,0.5-5.3,1-8,1.7c-2.8,0.6-5.6,1.2-8.4,1.8c-5.6,1.3-11,2.7-15.9,3.9c-1.2,0.3-2.4,0.6-3.5,0.9c-1.1,0.3-2.2,0.5-3.3,0.8
	c-2.1,0.5-3.9,0.9-5.4,1.2c-3.1,0.7-4.9,1-5,0.7c-0.7-1,0.9-2.3,3.7-3.7c1.4-0.7,3.1-1.5,5-2.2c0.9-0.4,1.9-0.7,2.9-1.1
	c1-0.4,2-0.8,2.9-1.2c7.9-3.2,15.9-5.9,15-6.3c-2.2-0.2-4.4-0.2-6.6-0.3c1.6-1.1,3.1-2.2,4.4-3.3c3.6-1.6,9.6-1.3,11.3-3.8
	c3.3-3.7,7.8-5.6,12.6-7.2c4.8-1.6,9.9-3,14.1-6c5.1-4.2,10.9-9.6,16.6-15.1c-1-1.9,3.3-1.8,1-3.5c6.3-1.4,13.4-2.9,15.1-7.5
	c-1.1,0-2.5,0-3.4,0l0.2-0.1c-6.6,3.6-14,6.5-19.1,10.2c-6.3,3.1-13.5,4.9-21,6.3c-7.5,1.3-15.4,2-22.9,3c6.6-2.9,13-5.9,19.1-9
	c-8,3.2-15.6,6.3-22.9,9.5c-1.3,0.2-2.5,0.4-3.8,0.5l-7.9,1.1c2.7,0.1,5.3,0.1,7.8,0c-4.4,1.8-8.8,3.7-13.1,5.7
	c-3.1,1.1-6.2,2.1-9.4,3.1c-3.2,0.9-6.4,1.7-9.7,2.5c-3.3,0.8-6.6,1.6-9.9,2.3c-3.3,0.7-6.7,1.5-10.1,1.9c-6.9,1-13.8,1.9-20.8,2.5
	c-3.5,0.4-7.1,0.5-10.7,0.5c-3.6,0.1-7.2,0.1-10.8,0c0.2-1.2,0.5-2.5,0.8-3.7c3.4-0.3,6.7-0.6,10-0.8c1.7-0.2,3.3-0.3,4.9-0.5
	c1.6-0.2,3.2-0.5,4.7-0.8c6.1-1.2,11.8-3,16.2-6.1c-7.7,0.6-12.4,2.7-19.7,3.5c-0.2-0.6-0.5-1.4,0-1.8c-2.2,0.8-4.6,1.4-7.1,2
	c-2.5,0.6-5.2,1-7.9,1.3c1-2.7,2.1-5.3,3.2-7.9c2.1-2.1,6.2-2.2,9.9-3.6c8.4-1.5,16.7-2.4,25-3.5c8.2-1.3,16.2-2.7,24.2-4.8
	c7.5-0.8,15-1.7,22.4-2.6l5.6-0.7l5.5-0.9c0.7-0.1,1.3-0.2,2-0.3c5.5-1.9,11.2-3.6,16.9-5.2c2.4,0.2,4.8,0.4,7.1,0.5
	c1.8-0.4,3.6-0.9,5.3-1.3c3.4-0.9,6.7-1.8,10-2.8c0.1-0.1,0.3-0.2,0.4-0.3c1.4-0.9,2.7-1.8,4.1-2.6c-9.1,2.1-18.2,4.2-27,6.6
	c-5.2-0.5-10.6-1.3-15.8-1.5c0.1-0.1,0.2-0.1,0.3-0.2c1.5-0.5,3-0.9,4.5-1.4c-1.1,0.2-2.3,0.4-3.5,0.6c-0.3,0.3-0.7,0.5-1,0.8
	c-4.4,1.4-8.8,2.9-13.1,4.6c-0.3,0-0.5,0-0.8,0c0.4-1.2,0.8-2.3,1.1-3.2c-7.5,1-15,1.9-22.6,2.7c2.4-0.7,4.8-1.5,7.2-2.4
	c4.9-2,9.9-3.9,14.8-5.8c0.7-1.3,1.8-2.1,1.9-0.8c4.7-1.9,9.4-3.7,14.1-5.5c1.6-0.6,3.3-1.3,4.9-1.9c0.2-1.3,0.2-2.7,0.1-3.9
	c-6-0.3-12.1-0.8-18.3-1.4c-2.5-0.2-5-0.5-7.6-0.8c-6.8,0.9-11.7,1.6-11.8,1.1c-0.4-0.8,0.4-1.7,1.8-2.5c-9.5-1.5-19.2-3.4-29.1-6.1
	c-4.8,0.5-9.7,0.9-14.6,1.4c-11.5,1.1-23.6,1.7-36.3,2.2c-1.6,0-3.2-0.1-4.9-0.2c-1.7-0.2-3.4-0.4-5.2-0.6c-3.5-0.5-7-1.1-10.2-1.7
	c4.8-0.8,9.7-1.4,14.5-1.9c4.8-0.6,9.7-1.1,14.5-1.6c4.7,1.1,9.4,2,13.8,2.1c4.4,0.2,8.3-0.6,11.9-2.6c0.9-0.4,1.8-0.7,2.6-1.1
	c-1-0.1-2.1-0.3-3.1-0.4c-3.3,0.3-6.6,0.5-9.8,0.8c-5.1,0.3-10.3,0.7-15.4,1.2c-2.8-0.7-5.6-1.3-8.5-2c-1.4-0.3-2.8-0.7-4.3-1
	c-1.4-0.3-2.9-0.6-4.3-0.9c0.1,0,0.2-0.1,0.3-0.1c4.5-0.4,8.8-1,13.3-1.4c4.2,1,8.3,1.8,12.2,2.1c3.9,0.3,7.6,0,10.9-1.3
	c0.1,0,0.1-0.1,0.2-0.1c-1.7-0.7-3.4-1.3-5-2.1c-2.2,0.2-4.4,0.3-6.6,0.5c-3.9,0.3-7.8,0.6-11.7,1c-2.5-0.6-5-1.2-7.5-1.8
	c0.3-0.2,0.5-0.4,0.8-0.6c1.4-0.4,4.2-4.7,5.2-8.8c-3.9-2.2-7.7-4.5-11.5-7c-5.2-0.4-10.5-0.8-15.1-1c-4-0.2-7.4-0.3-9.9-0.5
	c-2.5-0.1-3.9-0.4-3.9-0.6c-0.2-1,1.4-1.7,3.9-2.3c2.5-0.6,6-1,9.4-1.3c2.4-0.2,4.8-0.4,6.8-0.6c-2.5-1.9-4.9-3.8-7.3-5.9
	c-0.1,0-0.1,0.1-0.2,0.1c-9.9-2.5-19.9-3.9-29.9-5.2c-2.5-0.4-5-0.7-7.5-1.1c-2.5-0.4-5-1-7.5-1.6c-5-1.2-10-2.7-14.9-4.7
	c-0.3-3.1,0.1-5.9,1-8.6c4.6,0.5,9.3,1.4,13.9,2.3c2.3,0.5,4.7,0.9,7,1.4c2.3,0.4,4.7,0.8,7,1.2c4.7,0.7,9.3,1.4,13.8,1.7
	c0.9,0.1,1.8,0.1,2.8,0.2c-0.8-0.9-1.5-1.8-2.3-2.7c-2.9-0.2-5.7-0.5-8.6-0.9c-2.7-0.3-5.4-0.7-8-1.1l-4-0.7c-1.3-0.3-2.7-0.6-4-0.9
	c-5.3-1.2-10.7-2.7-15.9-4.4c0.6-1.1,1.2-2.1,1.8-3.1c5.1,1,10.2,2.1,15.1,2.6c2.4,0.3,4.8,0.3,7.2,0c2.3-0.3,4.6-0.8,6.7-1.6
	c-5.8-1.3-9.9-0.3-15.6-1.5c0.1-0.6,0.1-1.4,0.6-1.6c-3.7,0.2-8,0.2-12.1-0.5c1.6-2.1,3.3-4.2,5-6.3c2.2-1.4,5.3-0.7,8.4-0.9
	c3.3,0.4,6.6,0.8,9.8,1.3c0.4,0.1,0.7,0.1,1.1,0.2l-5.3-10.5c-1.7,0.6-3.4,0.9-5.2,1c-2.2,0.2-4.6,0.1-6.9-0.1
	c-4.7-0.4-9.6-1.5-14.5-2.4c0.6-0.9,1.2-1.8,1.9-2.7c4,0.7,8.1,0.6,11.6,0.4c-0.5,0.2-0.5,1-0.6,1.6c-0.3-0.1-0.6-0.1-1-0.2
	c0.8,1.1,0.9,0.8,1,0.2c2.7,0.6,5.1,0.7,7.4,0.8c1.9,0.1,3.8,0.3,5.9,0.6L51,316.8l39.4,1.9c0.1,0,0.1,0,0.2,0
	c0.6-1.8,1.6-3.1,1.2,0.1c1,0.1,2.1,0.1,3.1,0.2c0.3-0.3,0.6-0.7,1-1c1.6,0.2,3.3,0.6,5,1.1c0,0.1-0.1,0.1-0.1,0.2
	c0.4,0,0.7,0,1.1,0.1c-0.3-0.1-0.7-0.2-1-0.3c0.1-0.2,0.2-0.5,0.3-0.7c1.1-0.8,3.4-12.1,1.4-15.2c-8.8-0.8-20.7,2.4-20.7,1.4
	c-0.9-4,13.7-7.4,13.1-8.5c-0.9-0.5-1.8-1-2.6-1.4c0.7-0.7,1.5-1.4,2.1-2.3c1.6-0.8,4,0.5,5-1.3c3.6-5.4,8.3-2.9,12.6-6.3
	c2.7-2.6,5.8-6.1,9-9.6c-0.1-2,1.7-0.8,1-2.8c3.3,0.4,7,0.9,8-4.7l0.2-0.1c0.2,0,0.5-0.3,0.9-0.7c5.5,1.7,8.9-3.3,13.6-6.4
	c1.7-0.3,3.4-0.4,5.1-0.1c-1.2-0.2-3-1.4-4.1-0.6c-0.4,0.2-0.7,0.4-1.1,0.7c-4.3,0.7-8.3,2.8-12.4,4.4c-0.3,0.5-0.8,1.4-1.3,2
	c-0.3-0.1-0.6-0.2-0.9-0.3c0,0.4-0.1,0.8-0.2,1.1c-3.8,2.3-8.2,2.8-11.4,5.2c-6.2,2.5-13.1,0-19.6-1.3c3.1-1.2,6.2-2.6,9.2-4.2
	c-3.8,1.2-7.4,2.4-10.9,3.8c-0.6-0.1-1.1-0.2-1.7-0.3l-3.5-0.4c1.1,0.6,2.2,1,3.3,1.4c-2.1,0.9-4.1,1.8-6.1,2.9
	c-11.2,3.2-22.8,4.2-34.6,1.4c0.1-1.2,0.3-2.4,0.5-3.5c5.6,0.1,11.2,0.7,15.3-4c-3.2-0.4-5.3,1.1-8.5,0.9c0-0.6-0.2-1.4,0.1-1.7
	c-1.9,0.9-4.1,1.7-6.4,1.7c0.5-2.5,1.1-4.9,1.7-7.4c1-1.8,2.7-1.7,4.3-2.4c7.3-0.8,14.4,0.5,21.6-1c6.6,1.2,13.2,2.3,19.6,3
	c-6.2,2-11.9,4.1-17.3,7c6.1-1.8,12-4.2,17.7-7c12.1,1.1,23.6,0.3,33.6-6.4c6.8-5.2,18.2-3.8,26.9-9.7c-3.1,0.3-5.9,1-8.2,2.3
	c-0.2,0.1-0.3,0.2-0.5,0.3c-1.1-0.2-2.2-0.4-3.3-0.6c-1.2,0.8-2.5,1.3-3.8,1.5c-2.9-0.4-5.8-0.6-8.7-0.8c1.3-0.8,2.7-1.4,4.1-2
	c-4.7-0.6-9.3-1-14-1.3c-4.3,1.5-8.6,2.8-13,4c7.5-0.6,15.1-1,22.8-0.7c-0.3,0.2-0.6,0.4-0.9,0.6c-15.5,10.3-34.6,6.7-53.8,3.3
	c1.1-0.2,2.2-0.5,3.4-0.9c8.5-3.4,17.1-5.5,25.8-7.8c-7.1-0.9-14.3-2.1-21.4-4.4c-0.7-3.2-0.7-6.1-0.2-8.9c19.1,0.8,40,5.8,57.5,3
	c1.9-0.5,3.9-0.9,5.8-1.4c-0.1-0.2-0.3-0.5-0.4-0.7c-18.2,1-37.1,0-55.8-3.7c-3,0.2-6,0.4-9.1,0.7c-9.4,0.8-19.4,0.8-29.9,0.9
	c-1.3-0.1-2.6-0.2-4-0.4c-1.4-0.2-2.8-0.5-4.2-0.8c-2.8-0.6-5.7-1.4-8.3-2.1c4.1-0.5,8.2-0.9,12.4-1.2c4.1-0.4,8.1-0.8,12.1-1
	c3.8,1.2,7.5,2.3,11,2.6c3.6,0.3,6.8-0.3,9.9-2.2c1.4-0.6,2.8-1.2,4.2-1.8c-4.2,0.2-8.3,0.5-12.4,0.7c-4.2,0.2-8.5,0.4-12.7,0.6
	c-2.2-0.8-4.5-1.5-6.7-2.3c-2.2-0.7-4.5-1.5-6.8-2.1c0.1,0,0.2-0.1,0.3-0.1l2.8-0.2l2.8-0.3c1.8-0.2,3.7-0.3,5.5-0.4
	c3.3,1.1,6.6,2,9.7,2.4c3.2,0.4,6.2,0.3,9-1c0.7-0.3,1.4-0.6,2.1-1.1c1.4-0.6,2.8-1.2,4.2-1.8c-2.5,0.1-5.1,0.3-7.6,0.4
	c-2.5,0.2-5.1,0.2-7.7,0.3c-3.2,0.1-6.4,0.3-9.7,0.5c-1.9-0.7-3.9-1.3-5.9-2c0.2-0.2,0.5-0.4,0.7-0.6c1.9-0.5,7.8-10.7,5.6-14.1
	c-6.4-1.3-14.4-2.3-20.8-3c-3.2-0.3-6-0.6-8-0.8c-2-0.2-3.2-0.5-3.1-0.8c0-1,1.4-1.6,3.6-2.1c2.1-0.5,5-0.7,7.8-0.9
	c5.6-0.4,11.1-0.4,10.7-1c-1.2-0.8-2.4-1.4-3.5-2.1c1.3-0.5,2.5-0.9,3.7-1.6c1.3-0.1,2.7,0.2,4.1,0.5c1.3,0.2,2.6,0.3,3.5-0.5
	c6.3-4.4,12.6-1,19.3-3.3c4.2-2,9.2-4.9,14.1-7.8c0.1-1.6,1.6-0.9,1.8-1.7l-2.2-1.7c-0.9,0.2-1.8,0.5-2.7,0.8
	c-2.2,0.4-4.5,0.4-6.7,0.3c-1.1-0.1-2.3-0.2-3.4-0.4c-1.1-0.2-2.3-0.5-3.4-0.7c-4.5-1.1-9-2.7-13.4-4c4.6-0.6,9.1-1.3,13.4-2.1
	c-5.4,0.4-10.6,0.9-15.7,1.5c-0.8-0.2-1.5-0.4-2.2-0.6l-4.7-1.3c1.4,0.8,2.8,1.5,4.2,2.2c-3,0.3-6.1,0.7-9.1,1.2
	c-4.1,0-8.3-0.1-12.5-0.4c-4.2-0.4-8.4-1.1-12.5-1.9c-2.1-0.4-4.2-0.9-6.2-1.4c-1-0.3-2.1-0.5-3.1-0.8c-1-0.3-2-0.6-3.1-1
	c-4.1-1.4-8.1-3-12-4.8c0.7-1,1.4-1.9,2.1-2.9c3.9,1.1,7.8,2.4,11.6,3c1.9,0.4,3.8,0.4,5.7,0.3c1.9-0.2,3.8-0.6,5.6-1.3
	c-4.4-1.4-7.8-0.6-12.1-2c0.1-0.5,0.3-1.3,0.7-1.5c-3,0.1-6.4-0.1-9.5-0.9c1.7-2,3.5-3.9,5.2-5.9c2-1.3,4.3-0.5,6.8-0.6
	c2.5,0.5,5,1,7.4,1.5c2.4,0.5,4.8,1.1,7.2,1.7c2.4,0.6,4.8,1.1,7.2,1.5c2.4,0.5,4.9,0.6,7.4,0.8c4.3,1.3,8.6,2.7,12.8,4
	c2.1,0.7,4.3,1.2,6.4,1.7c2.1,0.5,4.3,1,6.4,1.5c-4.4,0.3-8.6,0.8-12.8,1.2c-4.1,0.4-8.2,0.9-12.4,1.5c4.4-0.1,8.8-0.3,13-0.7
	c4.3-0.5,8.5-1.2,12.6-2c2.3,0.5,4.6,0.9,6.8,1.3l-4.9-3.8l37,1.9c-0.5-1.2-1-2.5-1.5-3.8c-18.8,3.3-39.8-2.2-60.1-8.7
	c1.5,0.1,3.1,0,4.6-0.1c1.7-0.2,3.4-0.3,5.2-0.5c1.7-0.1,3.4-0.2,5.1-0.4c3.4-0.3,6.8-0.6,10.2-0.8c3.4-0.2,6.7-0.4,10-0.6l10-0.8
	c4.1,0.2,8.3,0.4,12.5,0.7c-0.2-3.1,0-6.1,0.5-9.1l3.3-18.9l24.4,1.9c3.7,0.3,7.4,0.6,11.1,0.8c0.3-0.1,0.5-0.1,0.6,0
	c7.1,0.5,14.1,1,21.1,1.3c2.5-3.3,5.4-10.3,2.6-12.9c-8.7-1.1-19.2-1.6-27.6-1.8c-8.3-0.3-14.5-0.4-14.5-0.9
	c-0.6-2.1,6.6-3.1,13.8-3.9c7.2-0.8,14.3-1.2,13.7-1.8c-1.7-0.7-3.4-1.3-5.1-1.9c1.6-0.6,3.1-1.1,4.5-1.9c3.4-0.5,7.9,1.2,10.1-0.4
	c7.6-4.8,16.7-1.5,25.5-4.2c5.4-2.2,11.9-5.3,18.3-8.4c-0.1-2,3.3-0.5,2-2.7c6.3,0.8,13.5,1.6,15.7-3.8l0.4-0.1
	c0.4,0.1,1-0.2,1.7-0.6c10.5,2.3,17.2-2.5,26.1-5.3c3.2-0.1,6.4-0.2,9.7,0.2c-2.2-0.2-5.6-1.5-7.7-0.8c-0.7,0.2-1.4,0.4-2.1,0.6
	c-8.2,0.4-15.9,2.2-23.7,3.4c-0.6,0.5-1.6,1.3-2.5,1.9c-0.6-0.1-1.2-0.3-1.8-0.4c-0.1,0.4-0.2,0.8-0.4,1.1c-7.4,1.9-16,1.9-22.3,3.9
	c-6.1,0.9-12.4,0.5-18.8-0.5c-6.4-1-12.9-2.4-19.2-3.6c6.2-0.8,12.3-1.7,18.2-2.7c-7.5,0.6-14.6,1.3-21.5,2.1
	c-1.1-0.2-2.1-0.4-3.2-0.5l-6.7-1c2.1,0.8,4.2,1.4,6.2,2c-4.1,0.5-8.2,1.1-12.2,1.7c-22.3,1.1-45.6-0.5-68.3-6.3
	c0.5-1.1,1-2.2,1.6-3.3c11,1.5,21.9,3.4,30.8-0.3c-6.3-1.1-10.7-0.1-16.7-1c0-0.6,0-1.4,0.5-1.6c-3.9,0.4-8.5,0.6-12.9,0.1
	c1.5-2.3,3.1-4.5,4.7-6.7c2.3-1.5,5.6-0.9,8.9-1.3c7.2,0.4,14.2,1.3,21.1,2.2c7,0.8,13.9,1.4,20.9,1.4c12.6,2.3,25.2,4.7,37.5,6.2
	c-12.1,1.1-23.3,2.1-34.3,4c12-0.6,23.8-1.9,35-3.9c11.6,1.5,22.9,2.3,33.8,2.1c5.4-0.1,10.7-0.6,15.9-1.3
	c5.1-0.7,10.1-1.8,14.9-3.3c4.2-1.5,9.2-2.3,14.7-2.9c5.5-0.6,11.3-1,17.2-1.7c5.8-0.6,11.6-1.6,16.9-3.3c5.3-1.7,10-4.1,13.8-7.7
	c-1.9-0.6-3.7-0.9-5.4-1.1c2.3-1.1,4.5-2.5,6.4-4.2c7.6-0.3,15.1-0.6,22.6-0.8c3-3.4,6.1-6.8,10.3-8.6c1.1-0.2,1.3-3.5,1.9-4.7
	c1.5-3.3,3.7-5.6,6.3-7.1c2.6-1.5,5.8-2.3,9.1-2.6c-0.1,0.9-0.2,1.7-0.3,2.5c-7.4,5.7-14.9,11.5-22.8,17.7l-0.2,0.1
	c-1.2,0.9-2.4,1.8-3.5,2.6c1.1,0,2.2-0.1,3.4-0.1c0.2-0.8,0.3-1.7,0.3-2.7c1,0.7,1.5,1.7,2.1,1.5c3.9-0.9,8.3-0.7,9.7-5.3
	c-0.5-1,1.2-1.3-0.4-3.2c2.9-1.7,6.9-2.5,9.3-5.1c1.2-0.9,1.7-3.1,2.1-5.6c2.5-1.9,4.9-3.8,7.4-5.7c2.5-1.8,5.1-3.7,7.6-5.5
	c5.2-3.7,10.6-7.2,16.4-10.8c3-1.5,7-2,10.5-2.5c-3.8,4-7.8,7.4-12,10.7c-5.5,0-10.5,0.8-12.1,6.5c-0.5,1.1-1,2.1-1.5,3.1
	c2.3-1.6,4.6-3.1,6.9-4.7c2.3-1.6,4.5-3.2,6.8-4.9c3.2,0,6.6,0.1,9.7-0.2c0,0.1-0.1,0.2-0.1,0.2c-1.9,1.6-3.7,3.2-5.7,4.6
	c-4.8,0.1-9.3,0.6-11.4,4.8c-0.3,0.5-0.5,1.1-0.7,1.7c-0.5,1.1-1,2.1-1.5,3.1c2.8-2,5.6-3.9,8.4-5.8c1.7-1.2,3.4-2.5,5.1-3.8
	c1.4,0,2.9,0,4.3,0c0,0.3-0.1,0.5-0.1,0.8c-0.8,1.2,1.2,13.2,4.2,15.9c4.4-0.8,9.2-2.7,13-4.4c3.8-1.7,6.6-3,6.8-2.5
	c1,1.8-1.4,4.4-4.1,6.7c0.7-0.2,1.4-0.4,2.1-0.6c-1.8,2.8-3.6,6.4-5.4,7.9c-0.2,0.5-0.5,1.1-0.6,1.7c-0.9,0.9-2.6,0.8-3.6,1.5
	c0.7,0,1.4,0,2.1,0c1.6-0.8,3.3-1.5,5-2.5c-0.3,0.6-0.7,1.2-1,1.8c0.9,0,1.8-0.1,2.7-0.2c0.5-0.7,1-1.5,1.3-2.4
	c0-0.1,0.1-0.2,0.1-0.4c0.9,0,1.8,0,2.7-0.1c0.5-1,1-2.2,1.5-3.4c-0.5-0.5-1-0.8-1.5-0.9c0.8-1.2,1.5-2.6,2.2-4.2
	c8.3-1.7,16.5-1.9,24.8,0.1c1.2,0.3,2.5-2.3,3.7-2c1.3,0.2,2.5,0.3,3.8,0.4c0-0.2,0-0.4,0-0.6c5.3,0.1,10.6-0.5,16.4-2.1
	c2.7-0.3,5,1.4,7.5,2.1c0.9,0.3,0.3,4,0.8,5.2c0.4,1.3,0.8,2.5,1.1,3.7c6.8,0.5,13.9,1.5,21.4,2.5c2.3,0.3,3.5,1.4,4.6,2.7
	c1,1.3,1.9,2.6,3.5,3.3c1.6,0.9,3.1,1.7,4.6,2.5c1.5,0.8,3,1.7,4.4,2.5c2.9,1.6,5.7,3.1,8.5,4.7c2.8,1.5,5.7,3,8.8,4.5
	c1.5,0.8,3.1,1.5,4.8,2.2c1.6,0.7,3.4,1.6,5.2,2.3c0,0-0.4,1.9-0.5,2.8c2.3,0.4,4.3,1,5.8,1.8c-2.4,2-5.1,3.5-7.7,4.8
	c-2.6,1.3-4.9,2.4-6.5,3.6c-1.5,1.3-2.3,2.6-1.8,4.4c0.5,1.8,2.4,3.8,5.9,6.9c0,0,0,0,0,0c-0.9,0-1.8,0.1-2.5,0.2
	c-0.1,0-0.2-0.1-0.3-0.1c0,0,0,0.1,0,0.1c-3.9,0.6-6.3,1.9-8.6,4.5c2.2,0.6,4.4,1.1,6.6,1.7c-0.6,1.2-1.1,2.5-1.1,3.9
	c-0.2,0.2-0.4,0.4-0.7,0.6c-0.9-0.2-1.7-0.4-1.7-0.4c-0.3,0.5-0.5,1-0.7,1.4c8-0.2,15.9,0.1,23.6,0.8c9.3,0.9,18,2.5,26.2,4.7
	c16.3,4.4,29.8,10.9,41.5,18.7c0.7,0.5,1.5,1,2.2,1.5c41.4-2.9,84.5-4.2,129.1-2.1c0.7,0,1.5,0.1,2.2,0.1c1.4-1.1,2.7-2.2,4.2-3.3
	c2.4-1.4,5.7-2.2,8.5-2.7c-1.5,2.3-3.1,4.5-4.8,6.5c0,0,0.1,0,0.1,0l0.8,0c2.6-0.6,5.2-1.2,7.8-1.9c0,0,0.1-0.1,0.1-0.1
	c0.1,0,0.3-0.1,0.4-0.1c0,0,0,0,0,0.1c3.6-0.9,7.1-1.9,10.7-3c3.2-0.7,6.5-0.8,9.8-0.9l5.1,0l2.7,0l2.9-0.1c3.1-0.1,4.3,3.9,6.8,4.8
	c5.2,2.4,10.1,4.6,15.4,6.6c5.3,2,10.9,3.8,18.2,5.7c0,0,0,0.1,0,0.2c2.8,0.9,5.7,1.8,8.5,2.9c1.9,0.7,3.7,1.5,5.6,2.3
	c1.8-1.3,3.6-2.7,5.1-4.5c1.5,0.7,2.5,1.6,3.1,2.6c0.3,0.5,0.3,1,0.3,1.5c0,0.5-0.2,1.1-0.4,1.7c-0.1,0.9-1.6,0.5-3,0.1
	c0,0.3,0,0.6,0,0.9c0.7,0.3,1.4,0.7,2.1,1.1l1.6,0.8l1.7,0.9l3.3,1.9c2.1,1.3,4.3,2.6,6.3,4.1c4.1,2.8,7.8,5.9,11.4,9.2
	c7,6.6,13.2,14.1,17.4,22.8c2.2,4.3,3.7,8.9,4.6,13.5c0.9,4.7,0.8,9.4,0.2,13.9c-1.1,6.2-3.8,11.7-7.2,16.2
	c-2.2,2.8-4.6,5.3-7.1,7.5c2.2,0.1,4.4,0.2,6.6,0.3c5.8-0.8,11.9-0.7,18.1-0.2c-0.7,0.8-1.4,1.5-2.2,2.2c-0.4,0.1-0.8,0.2-1.2,0.2
	c0.2,0.1,0.5,0.1,0.7,0.2c0.2-0.1,0.3-0.3,0.5-0.4c22.4-4.5,44.6-8.9,68.9-12.9c6.1-0.7,13.4-0.4,19.8-0.1
	c-8.8,2.9-17.9,5.2-27.2,7.3c-9.7-1.1-18.8-1.5-25.3,3.3c-1.6,0.9-3.1,1.7-4.7,2.5c10.1-1.8,20.2-3.6,30-5.8c3.8,0.5,7.8,1,11.6,1.4
	c2-0.5,4-1,6-1.6c10.3-2.7,20.9-5.1,32-7.5c5.6-0.9,12.4-0.7,18.3-0.5c-4,1.5-8.1,3-12.2,4.3c-4.1,1.3-8.3,2.6-12.6,3.8
	c-4-0.4-7.9-0.6-11.5-0.3c-0.6,1.3-1,2.5-1.4,3.5c-0.7,0.1-1.7,0.4-2.9,0.9c0.8-0.2,1.5-0.4,2.3-0.6c0.2,0,0.3-0.1,0.5-0.1
	c0-0.1,0-0.1,0.1-0.2c0.3-0.1,0.6-0.1,0.9,0c4-1,8-2,12-3.1c5.3,0.5,10.7,1.2,16,1.4c-0.1,0.1-0.2,0.1-0.3,0.2
	c-3.8,1.2-7.6,2.4-11.5,3.4c-5.4-0.5-10.6-0.7-15.2,0.3c-0.8,2.2-3.5,4.6-2.8,0.9c-1,0.4-2,0.9-3,1.5c-0.7,0.5-1.3,0.9-2,1.5
	c-1.3,1-2.7,1.9-4.1,2.7c5.6-1.4,11.2-2.8,16.7-4.2c3.4-0.9,6.9-1.8,10.3-2.7c2.3,0.2,4.7,0.5,7,0.7c-0.2,0.2-0.4,0.5-0.5,0.8
	c-1.8,1-4.7,12.6-1,15.7c7.6-0.1,16.6-1,23.6-1.9c7.1-0.9,12.3-1.7,12.4-1.1c1.7,4-23.4,8.5-22.1,9.6c1.6,0.5,3.1,0.9,4.6,1.3
	c-1.2,0.8-2.4,1.6-3.4,2.5c-2,0.7-4.9,0.2-6.8,0.8c5.6-0.1,11.2-0.3,16.8-0.3c0.6-0.4,1.2-0.7,1.7-1.2c0.1-0.1,0.2-0.2,0.4-0.3
	c9.4,1,18.5,0.6,27.7,0.2c9.1-0.4,18.4-0.3,28,1.8c1.1,3.1,1.6,6.1,1.6,9c-11.5,1-24.1,0-35.7,0.9c0,0.2,0,0.3,0,0.5
	c-2.3,0.2-4.7,0.3-7.1,0.4c-2.6,0.4-5.1,1-7.4,1.8c-0.7,0.3-1.4,0.6-2.1,0.9c2.1,0.1,4.1,0.2,6.2,0.3c0.3-0.1,0.7-0.1,1-0.2
	c4.8-0.7,9.7-1.1,14.6-1.4c9.8-0.6,19.9-0.3,30.1,1.1c-0.2,1.2-0.4,2.4-0.7,3.5c-9.5,0-19.2-0.5-25.9,4.6c5.5,0.2,9-1.4,14.3-1.3
	c0.1,0.6,0.3,1.4-0.1,1.7c3.2-0.9,7-1.8,10.8-1.9c-0.8,2.5-1.7,5-2.7,7.5c-1.6,1.9-4.5,1.7-7.3,2.6c-6.2,0.5-12.2,0.6-18.2,0.7
	c-6,0.1-12,0.3-17.9,1.4c-2.2-0.1-4.3-0.3-6.5-0.4c-11.9,0.5-23.6-0.2-35.4,1.4c-4.5-0.3-8.9-0.7-13.4-1c-2.4,0.3-4.8,0.7-7.1,1.1
	c-5.6,1-10.9,2.5-15.9,4.4c7.3,0.3,14.7,0.7,22.1,1.2c16.9-2.1,35.7-1.2,54.4,0c-1.8,0.3-3.7,0.7-5.5,1.2c-4,1.2-8,2.3-11.9,3.3
	c-4,1.1-7.9,2.1-11.9,3.1l-11.9,2.9l-11.8,3c-9.9,1.3-19.7,2.7-29.7,3.6c2.2-1,4.5-2,6.8-3.2c4-1.4,8-2.8,12-4
	c4.1-1.2,8.1-2.3,12.3-3.4c-6,0.8-12.1,1.5-18.1,2.3c-6.1,0.8-12.2,1.4-18.3,1.8c0.4-0.3,0.9-0.5,1.3-0.8c0.5-0.3,1.1-0.6,1.6-0.8
	c-4.3,0.7-8.6,1.5-12.9,2.2c3.3-0.2,6.7-0.4,10-0.6c-7.1,4-17.5,5.8-27.3,9c3.2-2.8,6.3-5.7,10.3-7.2c-3.5,0.2-7,0.5-10.5,0.7
	c-8,2.8-15.2,6.8-19.3,13.8c1.7,0.4,3.3,0.5,4.8,0.4c-1.6,1.4-3.1,2.9-4.3,4.7c0.1,0.1,0.2,0.1,0.3,0.2c5-1,10-2.1,15.1-3.2
	c-3.4,2.9-7.2,5.2-12.3,5.3c0.6,0.5,1.2,1,1.8,1.5c4.3,3.5,8,7.1,11.1,10.9c3.2,3.8,5.8,7.7,7.8,11.7c2,3.9,3.3,7.9,4,11.9
	c0.6,0.1,1.2,0.2,1.7,0.3c1,2.5,1.5,5,1.8,7.4c17.1-1.5,33.6-4.8,51.7-3.2c1.7,3.1,2.6,6.1,2.9,9c-18.4,3.1-39.4,2.8-56.4,7.5
	c-0.3,0.9-0.6,1.8-0.9,2.7c6.6-1.4,13.3-2.6,20.2-3.5c12.1-1.6,24.5-2.4,37.1-2.2c-0.1,1.2-0.3,2.5-0.5,3.7
	c-11.7,1.2-23.6,1.7-31.6,7.5c6.9-0.3,11-2.3,17.6-2.9c0.2,0.6,0.5,1.4,0.1,1.8c3.9-1.3,8.5-2.6,13.2-3.2c-0.7,2.7-1.6,5.3-2.5,7.9
	c-1.8,2.1-5.4,2.3-8.8,3.5c-13.3,2.2-26.4,2.6-39.3,4.9c-1.2,0.3-2.3,0.6-3.4,0.9c0.1-0.1,0.1-0.2,0.2-0.3c-0.8,0.2-1.5,0.3-2.3,0.5
	c-13.9,0.4-27.8,0.7-41.2,1.7c6.6-1.9,12.9-3.8,19-5.8c0-0.2,0-0.5,0-0.8c-5.1,2.4-10.9,4.3-17.2,5.7c-0.1,0-0.2,0-0.3,0.1
	c-0.8,0.3-1.6,0.6-2.3,0.9c-0.3,0-0.6,0-0.9,0.1c0,0.1,0,0.2-0.1,0.3c0.3-0.1,0.7-0.2,1-0.4c0.3,0,0.6,0,0.8-0.1
	c-0.6,0.2-1.2,0.4-1.8,0.5c-0.5,2.2-0.7,4.6-0.3,6.6c13.5-1,27.5-1.4,41.5-1.7c-2.3,0.5-4.6,1.1-6.8,1.7c-0.2,0.1-0.5,0.1-0.7,0.2
	c4.4-0.6,7.3-0.9,7.4-0.5c1.3,2.6-10.6,5.7-18.2,7.7c1.4,0.1,2.7,0.2,4.1,0.3c1.2,2,1.9,3.9,2.3,5.9c0.6-0.3,1.1-0.7,1.7-1.1
	c0.1-0.1,0.3-0.2,0.4-0.3c20.9,2,40.3-2.8,61.6,1.1c1.3,3.1,1.9,6.1,1.9,9c-18.4,1.8-39.3-0.5-55.6,4.5c-3.3,1.4-6.7,2.6-10.1,3.8
	c-1.3,0.3-2.6,0.6-3.9,0.9c-0.1,0.2-0.1,0.3-0.2,0.5c1.4-0.4,2.8-0.9,4.1-1.4c5.2-1.1,10.5-2,15.8-2.8c5.3-0.7,10.8-1.3,16.2-1.7
	c10.9-0.8,22.1-0.6,33.4,0.5c-0.2,1.2-0.4,2.4-0.7,3.6c-10.6,0.3-21.3-0.1-28.8,5.1c6.1,0.2,10-1.5,15.9-1.5
	c0.1,0.6,0.3,1.4-0.1,1.8c3.6-1,7.8-1.9,12-2.1c-0.8,2.5-1.9,5.1-2.9,7.6c-1.8,1.9-5,1.8-8.1,2.7c-6.9,0.6-13.6,0.8-20.4,1
	c-5.6,0.2-11.2,0.4-16.7,1.2c0,0.1-0.1,0.1-0.1,0.2c0,0.4,0,0.7-0.1,1.1c-0.2,0-0.4,0-0.6,0c-4.8,0.4-9.6,1.3-13.9,2.3
	c4.6,0.5,9.2,1.1,13.7,1.9c-0.3,1.2-0.7,2.3-1.1,3.4c-3.1-0.2-6.3-0.4-9.4-0.5c-0.1,0-0.1,0-0.2,0c-1.9,0.5-3.8,1-5.6,1.5
	c0.3,0,0.7,0,1,0c11.3,0.1,22.8,0.9,34.5,3.6c1.1,3.2,1.3,6.1,1,9c-13.8,0.1-28.7-1.5-42.6-1.4c-0.3,0.9-0.7,1.8-1,2.7
	c1.9,0,3.8-0.1,5.7-0.1c6.1,0,12.3,0.1,18.5,0.7c6.2,0.5,12.4,1.3,18.6,2.3c-0.4,1.2-0.8,2.3-1.3,3.4c-3-0.1-6-0.3-9-0.5
	c-0.3,0.8-0.6,1.5-1,2.3c-2.7-0.1-5.4,0.1-8,0.5c1,0,2.1,0,3.3,0.1c0.1,0.6,0.2,1.4-0.3,1.7c4.1-0.7,8.9-1.3,13.6-1.1
	c-1.2,2.4-2.7,4.8-4.1,7.2c-2.2,1.7-5.8,1.4-9.3,2c-3.8,0-7.6,0-11.4-0.1c-3.8-0.1-7.5-0.2-11.2-0.3c-7.4-0.2-14.8-0.4-22.3,0.4
	c-4.5-0.4-9-0.8-13.4-1.2l-0.9,0.1l-17.4,1.4c-3.6,1.2-7.3,2.4-11,3.5c5.9,0.2,11.8,0.5,17.8,0.9c4-1.3,8-2.7,11.9-4.2
	c0.4,0,0.7,0,1.1-0.1c-0.9,2.1-1.5,3.7-2,5.1c3.7,0.3,7.4,0.7,11.1,1c-2.3,0.2-4.6,0.5-6.9,0.9c-0.6,0.1-1.2,0.2-1.8,0.3
	c-0.7,2.4-4.3,5.6-3.3,0.6c-2.5,0.5-5,0.9-7.6,1.3c-0.7,0.4-1.5,0.9-2.3,1.4c-2.2,0.1-4.4,0.2-6.7,0.2c-2.1,0.4-4.2,0.7-6.4,1
	c-2.4,2-5.7,13.2-0.8,15.9c20.9-1.5,48.9-7.9,49.2-6.9c2.7,3.9-31.6,11.2-29.9,12.1c2.2,0.3,4.3,0.6,6.4,0.8
	c-1.6,0.9-3.2,1.9-4.7,2.9c-3.8,1.2-9.6,0.5-11.6,2.7c-7.2,6.2-18.1,5.3-27.4,9.2c1.1,0.2,2.2,0.4,3.3,0.7c0.3,0.8,0.5,1.7,0.7,2.5
	c4-1.6,8-3.4,11.8-5.6c12-5.8,30.4-4.8,39.3-11.4c0.2-0.1,0.3-0.2,0.5-0.4c26.1,0.2,49.9-6.6,76.5-4.8c1.9,3,2.8,6,3,9
	c-22.7,3.8-48.9,3.4-69.1,10c-4.1,1.7-8.3,3.3-12.5,4.8c-5.7,1.4-11.2,2.9-16.7,4.4c-7.7-0.3-15,0-22.3,0.6l2.6,1.1
	c4.8-0.1,9.7-0.1,14.4-0.2c-2.9,0.9-5.7,1.7-8.6,2.6l1.2,0.5c3.9-1.1,7.7-2.1,11.4-3.2c1.3,0,2.6-0.1,3.9-0.2l8.2-0.5
	c-2.7-0.3-5.3-0.5-7.9-0.6c4.7-1.4,9.3-2.9,13.9-4.5c25.8-6.2,53.3-10.3,81.5-10.3c-0.1,1.2-0.4,2.5-0.7,3.7
	c-13.2,1.4-26.5,2.1-35.7,8.1c7.7-0.4,12.5-2.5,19.8-3.1c0.2,0.6,0.5,1.4,0,1.8c4.4-1.4,9.6-2.8,14.9-3.4c-0.9,2.7-2,5.4-3.1,8
	c-2.1,2.2-6.2,2.4-9.9,3.6c-17.1,2.7-34,3.2-50.7,6.6c-13.7,0.4-27.3,0.9-40.6,1.7l-14.8,7.9c17.2-1.4,35.1-2,53.1-2.5
	c-2.6,0.5-5.2,1.1-7.8,1.8c-22.5,6.6-45.6,11.6-68.5,17c-4.3,0.6-8.6,1.3-12.9,1.9l-8.9,3.8l-8.5,3.6l21.9,11
	c16.4-3.6,32.9-7.2,50.6-10.6c6-0.8,13.2-0.7,19.4-0.6c-8.5,3.2-17.4,5.7-26.5,8c-9.6-0.9-18.5-1.1-24.8,3.9c-1.5,0.9-3,1.8-4.6,2.6
	c9.9-2,19.8-4.1,29.3-6.5c5.6,0.5,11.5,1.3,17,1.5c-0.1,0.1-0.2,0.1-0.3,0.2c-4.1,1.2-8.2,2.3-12.4,3.4c-8.5-0.8-16.5-1-22.6,2.4
	c-0.8,0.4-1.5,0.9-2.2,1.5c-1.5,0.9-3,1.8-4.6,2.6c6.1-1.2,12.2-2.5,18.2-3.9c3.7-0.8,7.4-1.7,11.1-2.6c2.5,0.2,5,0.5,7.6,0.8
	c-0.2,0.2-0.4,0.5-0.6,0.8c-1.9,1-5.4,12.6-1.4,15.6c16.6,0.1,38.9-4.2,39.1-3.2c2,4-25.4,8.7-24.1,9.7c1.7,0.5,3.4,0.9,5.1,1.2
	c-1.3,0.8-2.6,1.6-3.8,2.5c-3,0.9-7.6-0.1-9.3,1.8c-6.2,5.9-15.3,3.7-23.1,7.5c-4.7,2.9-10.3,6.8-15.9,10.6c0.4,2-3,0.9-1.5,3
	c-6.1-0.1-13.2-0.3-14.5,5.5c-0.1,0.1-0.3,0.1-0.4,0.1c-0.4,0-1,0.3-1.5,0.8c-10.4-1.2-16.2,4.2-24.6,7.8c-3,0.4-6.2,0.7-9.5,0.7
	c2.2,0,5.6,1.1,7.6,0.1c0.7-0.3,1.3-0.5,1.9-0.8c7.9-1.2,15.1-3.7,22.4-5.7c0.5-0.6,1.3-1.5,2.1-2.2c0.6,0.1,1.2,0.1,1.7,0.2
	c0-0.4,0.1-0.8,0.2-1.1c6.8-2.7,15-3.6,20.7-6.4c11.2-3.2,24.4-1.2,36.7-0.4c-5.7,1.6-11.3,3.2-16.8,5.1c7-1.6,13.6-3.2,19.9-4.9
	c1.1,0.1,2.1,0.1,3.1,0.1l6.5,0.1c-2.1-0.5-4.2-0.9-6.3-1.2c3.8-1.1,7.5-2.2,11.1-3.4c20.6-4.2,42.4-6.2,64.7-4.3
	c-0.2,1.2-0.4,2.4-0.7,3.6c-10.4,0.4-21,0.2-28.5,5.3c6.1,0.1,9.9-1.6,15.8-1.6c0.1,0.6,0.4,1.4,0,1.8c3.5-1.1,7.7-2,11.9-2.3
	c-0.8,2.6-1.7,5.1-2.7,7.6C993,687.7,989.7,687.6,986.7,688.5 M965,504.1c0.1-0.4,0-0.8,0-1.2c0.3,0,0.7,0,1.1,0.1
	c-1-1-1.1-0.7-1.1-0.1c-2.9-0.2-5.3,0-7.7,0.2c-1.1,0.4-2.1,0.8-3.1,1.3C958.2,504.7,961.5,504.3,965,504.1 M584.5,700.4
	c1-0.4,2.1-0.9,3.1-1.4c-0.2-0.2-0.4-0.5-0.7-0.7C585.9,698.3,585.1,699.2,584.5,700.4 M610,701.8c-7.8-1.9-17.1,0.2-26.2,1.6
	c0,0.3,0,0.5,0.1,0.8C592.1,705.3,601.3,703,610,701.8 M644.4,723.2c-0.1-0.1-0.2-0.2-0.3-0.3c0,0.2,0.1,0.3,0.1,0.5
	C644.3,723.3,644.3,723.2,644.4,723.2 M768.9,660.7c-13.2,0-26.8-1.4-40.5-4.1c-9.8,2.2-21,7.5-15.8,16.3
	C716.9,656.5,756.1,665.7,768.9,660.7 M738.7,650.5c1.3,0.1,2.5,0.2,3.8,0.3l0,0c-0.7-0.1-1.4-0.2-2-0.3
	C739.8,650.5,739.2,650.5,738.7,650.5 M458.7,618.7c-0.3-0.2-0.5-0.4-0.8-0.6c-1,0.1-1.6,1.2-1.9,2.5
	C456.9,620,457.8,619.4,458.7,618.7 M457.6,624.5c-0.5-0.2-1-0.5-1.6-0.7c0.1,0.3,0.1,0.5,0.2,0.8
	C456.7,624.5,457.2,624.5,457.6,624.5 M456.1,551.7c2.1-0.4,4.3-0.8,6.5-1.2c-1.5-0.4-2.9-0.8-4.4-1.2c-1,0.7-2.1,1.5-3.3,1.9
	c-0.1,0-0.3,0-0.4,0C455,551.4,455.6,551.6,456.1,551.7 M159.3,223.9c1.2-0.3,2.5-0.7,3.7-1c0,0,0,0-0.1,0c-2.8,0.5-5.6,1-8.3,1.5
	C156.2,224.2,157.8,224,159.3,223.9 M122.7,153.7c0.4,0,0.8,0.1,1.2,0.1c-0.6-2.1-0.9-4.3-1-6.5c-0.4,0.1-0.8,0.2-1.1,0.3
	C121.9,149.6,122.2,151.7,122.7,153.7 M512.6,79.4c1.2,0.2,2.5-0.6,3.4-1.6c-1.3,0.2-2.7,0.5-4,0.8
	C512.2,78.8,512.4,79.1,512.6,79.4 M848,173c-0.1,0.2-0.2,0.4-0.3,0.6c-0.8-0.1-1.4-0.1-1.4-0.1c-0.1,0.3-0.1,0.6-0.1,0.9
	c4.2,1.6,7.8,3.6,10.6,5.5c4.2,2.8,7.8,6.5,9.9,9.8c1,1.7,1.7,3.2,2,4.5c0.3,1.3,0.4,2.3,0.2,3.3c-0.2,1-0.6,1.9-1.3,3.1
	c-0.7,1.1-1.8,2.3-3.3,3.5c-2.8,2.4-7,4.8-11.8,6.9c0.2,0.4,0.5,0.9,0.6,1.2l0.6,1c5.1-2.3,9.6-4.8,12.6-7.4
	c1.5-1.3,2.7-2.6,3.5-3.9c0.8-1.3,1.3-2.4,1.5-3.6c0.2-1.3,0.1-2.6-0.3-4.1c-0.4-1.5-1.1-3.2-2.3-5.1c-2.4-3.6-6.2-7.6-10.7-10.6
	C855.5,176.5,852,174.7,848,173 M892.3,247.1c0-0.2,0-0.3,0-0.4c0,0-0.1,0.1-0.2,0.1L892.3,247.1z M1011.6,284.1
	c-0.1,0.1-0.2,0.2-0.3,0.2c0.1,0.3,0.1,0.5,0,0.6c0.9-0.2,1.7-0.4,2.6-0.7c-0.9,0-1.7,0-2.6,0c0.2-0.1,0.4-0.2,0.5-0.3
	C1011.7,284,1011.6,284,1011.6,284.1 M926.8,444.1c-0.3,0.1-0.6,0.2-0.9,0.2c0.3,0.3,0.6,0.5,0.9,0.8c1.5-0.5,3.1-0.9,4.7-1.3
	C929.9,444,928.3,444,926.8,444.1 M867.7,555.9c-8.7-1.3-17.3-3-24.9-0.8l3.4,1.4c0.2,0.1,0.4,0.1,0.5,0.2c2.8,0.1,5.4,0,8.5,0.5
	c0,0.6,0,1.4-0.5,1.6c1.6-0.2,3.3-0.3,5.1-0.3C862.7,557.9,865.3,557.1,867.7,555.9 M520,560.5c1.7,0.5,3.4,0.9,5.1,1.4
	c0.1-0.3,0.1-0.6,0.2-0.9c-1.4-0.4-2.8-0.8-4.2-1.1c-0.4,0-0.8,0-1.1,0C520,560,520,560.3,520,560.5 M133.9,323
	c-2.3,0.7-4.6,1.4-6.9,2.2c11.5,0.7,23,1.4,34.5,2.2c-1.3-0.8-2.6-1.8-4-2.8c-3.4-0.2-6.9-0.5-10.3-0.7c-3,0.5-6.2,0.3-9.4-0.4
	c0-0.1,0.1-0.1,0.1-0.2c-0.4,0-0.8-0.1-1.3-0.1c0.4,0.1,0.8,0.2,1.2,0.3c-0.3,0.6-0.6,1.1-0.9,1.6c-0.6-0.1-1.7-0.2-2.3-0.3l1.5-1.7
	C135.3,323.1,134.6,323,133.9,323 M171.7,228.4c0.1,0,0.1,0,0.2,0c-0.6-0.3-1.1-0.7-1.7-1l-3.5-0.5
	C168.4,227.4,170,227.9,171.7,228.4 M121.1,223.3c1.4-0.3,2.7-0.8,4-1.4c-0.2,0-0.5,0.1-0.7,0.1
	C123.3,222.1,122.2,222.6,121.1,223.3 M840.9,180.4c-1.8,1.7-2.8,3.4-1.6,5.7c0.1,0.1,0.1,0.2,0.2,0.2c2-1.1,4.2-1.8,6.5-2.6
	c0.3,1.1,0.7,2.2,1,3.3c-0.6,0.3-1.2,0.6-1.8,1c0,0.6,0.2,1.4,0.4,2.1c0.5,1.8,1.2,3.5,0.2,4c-2.9-0.1-5.6,0.9-8.7,1
	c-2.7,0.1-5.5,0.3-8.2,0.5l9.8,3l5.3,1.6l2.6,0.8l0.7,0.2l0.3,0.1l0.1,0.1l0.2,0.4c0.2,0.4,0.4,0.8,0.6,1.2c0.2-0.1,0.5-0.2,0.7-0.3
	c3.8-1.8,6.8-3.8,8.4-5.4c0.8-0.8,1.3-1.4,1.6-1.9c0.3-0.5,0.3-0.7,0.4-0.8c0-0.1,0-0.1-0.1-0.5c-0.1-0.4-0.4-1.2-1-2.1
	c-1.2-2-4-4.7-7-6.7c-0.4-0.2-0.8-0.5-1.1-0.7c-0.4-0.2-0.7-0.4-1.1-0.6c-0.2-0.1-0.4-0.2-0.7-0.4l-0.8-0.4
	c-0.5-0.3-1.1-0.5-1.6-0.8C844.6,181.8,842.8,181.1,840.9,180.4 M862.3,244.3c-2.9,1-5.9,2-8.9,2.9c-0.2,0.2-0.3,0.5-0.5,0.7
	c0.2,0,0.3-0.1,0.5-0.1c1.1-0.1,2.2-0.1,3.2-0.1c4-1.3,8-2.7,11.9-4.2c-1.8,0.3-3.6,0.5-5.4,0.7
	C862.8,244.2,862.5,244.3,862.3,244.3 M1011.1,285.3c-0.3,0.5-1.1,0.5-1.3,0.9c0.1,0,0.3,0,0.5,0l5.1,0.2c0.1,0,0.2-0.1,0.2-0.1
	c0,0,0.1,0,0.1,0C1014.2,285.9,1012.7,285.6,1011.1,285.3 M826.2,608.3l5.5-2.4c-1.9,0.2-3.7,0.5-5.6,0.7l-1.5,0.6l-7.5,3.2l1.8,0.9
	L826.2,608.3z M370.1,115.2c1-0.3,1.9-0.6,2.8-1c0,0,0,0,0,0l0.1-1.1c0.3,0.2,0.5,0.5,0.8,0.7c0.6-0.3,1.3-0.6,1.8-0.9
	c0.9-1.2,1.8-2.2,2.8-3.2c-0.1,0.5-0.3,1.1-0.4,1.6c1.4-1.1,2.5-2.4,3.1-3.8c-0.9,0.7-1.8,1.4-2.7,2.2c0.5-1.8,1-3.7,1.6-5.3
	c-0.8,0.4-1.4,0.5-1.4,0.2c0-0.1,0-0.2,0-0.3c-1.6,2-3.9,3.3-6.8,4.3C371,110.5,370.3,112.7,370.1,115.2 M912.1,311.6
	c-1.6-0.2-3.1-0.4-4.7-0.6c0.3,0.5,0.6,1,0.9,1.5C909.5,312.1,910.7,311.8,912.1,311.6 M815.5,528.7c0.4-0.1,0.8-0.2,1.2-0.3
	c-1.5-0.1-3.1-0.2-4.6-0.3c-1.8,0.6-3.7,1.2-5.7,1.7l-0.8,0.5c-0.4,0-0.9,0-1.3,0c-0.1,0-0.2,0.1-0.4,0.1c0,0,0,0.1,0,0.1
	c1.7,0,3.4,0,5-0.2c1.7-0.4,3.4-0.9,5.1-1.3c0.2-0.1,0.5-0.2,0.7-0.3c0.1-0.1,0.3-0.1,0.5-0.2C815.2,528.7,815.3,528.7,815.5,528.7
	 M699.4,569.7c3-0.9,6.1-1.6,9.2-2.3c0.4-0.1,0.8-0.2,1.1-0.2c-5.1,0.5-10.3,0.9-15.7,1C695.8,568.7,697.6,569.2,699.4,569.7
	 M566.4,197.2c0.6,0.1,1.2,0.2,1.7,0.3c1.3-0.3,2.7-0.6,4-0.9c-0.8,0-1.6,0-2.3,0.1l-1.3,0.1L566.4,197.2z M554.8,206.3
	c0.6-0.4,1.2-0.8,1.8-1.2c-2.4,0.5-4.9,1-7.3,1.5c1.2,0.2,2.4,0.4,3.6,0.6C553.5,207,554.1,206.7,554.8,206.3 M747.4,443.4
	c-3.1,0.9-6.4,2.1-9.2,3.7C742.8,446.9,746.2,445.9,747.4,443.4 M718.2,559.4c-0.4-0.1-0.8-0.1-1.2-0.2c0.3,0.1,0.6,0.1,0.9,0.2
	C718,559.4,718.1,559.4,718.2,559.4 M717.1,558.7c-0.6-0.1-1.3-0.3-1.9-0.4c-0.3,0.1-0.6,0.2-0.9,0.3c0.6,0.1,1.1,0.2,1.7,0.3
	C716.3,558.9,716.7,558.8,717.1,558.7 M770.8,532.2c-0.1,0-0.1,0-0.2,0l-0.4,0.1C770.4,532.3,770.6,532.2,770.8,532.2 M576.5,195.6
	c-0.5-0.1-1.1-0.1-1.6-0.2c-0.9,0.4-1.8,0.8-2.6,1.2C573.7,196.2,575.1,195.9,576.5,195.6 M783.9,531c0.6-0.5,1.3-0.9,1.9-1.3
	c-1,0.1-2.1,0.1-3.1,0.1c-2.9,0.6-5.8,1.3-8.7,1.9c-0.5-0.1-1-0.1-1.6-0.2c-0.1,0-0.2,0.1-0.4,0.1l0.1,0c0.2,0.1,0.5,0.1,0.8,0.2
	c0.4-0.1,0.7-0.1,1.1-0.2c1.8,0.2,3.7,0.5,5.6,0.7c1.2-0.3,2.3-0.7,3.5-1.1C783.4,531.1,783.7,531,783.9,531 M591.1,197.3
	c-0.3,0-0.6-0.1-0.9-0.1l-1.1,0.3l0,0C589.7,197.5,590.4,197.4,591.1,197.3 M801,516.2c0.5-0.2,1-0.4,1.5-0.6
	c2.3-0.4,4.5-0.8,6.7-1.3c-1.9,0.3-3.8,0.6-5.7,0.9c-0.3,0.2-0.7,0.3-1,0.5c-1,0.2-2,0.3-3,0.4C800,516.1,800.5,516.2,801,516.2
	 M716.5,219.9c1-0.5,1.9-1.1,2.7-1.8c-2.2-0.5-4.4-1-6.6-1.5c-1,0.4-2,0.8-3,1.3c-0.7,0.1-1.2,0.8-1.7,1.7c1.5,0.1,3.1,0.1,4.6,0.2
	C713.8,219.8,715.2,219.8,716.5,219.9 M531.8,422.7c0.4,0.1,0.8,0.1,1.2,0.2c2.1-0.9,4.1-1.8,6.2-2.6c-0.4-0.1-0.8-0.1-1.2-0.2
	C535.9,420.9,533.8,421.8,531.8,422.7 M611,211.9c-2.4,0.1-4.8,0.1-7,0.5c2.4,0.2,4.8,0.4,7.1,0.7C611.1,212.6,611,212.2,611,211.9
	 M603.9,199c-0.5-0.1-1-0.1-1.5-0.2c-5.5,3.6-11.4,6.1-16.4,11.2c-0.2,0.2-0.5,0.4-0.8,0.5c1.1,0.1,2.2,0.2,3.3,0.3
	c2.6-0.8,5.3-1.5,7.6-3.4C598.5,205.1,601.1,202.1,603.9,199 M802.8,527.7c-0.1,0-0.1,0-0.2,0l0,0
	C802.7,527.7,802.7,527.7,802.8,527.7 M360.6,129.9c-0.6,0.3-1.3,0.6-1.9,0.9c2.1-0.1,4.1-0.3,6.2-0.4c-0.3-0.2-0.6-0.5-0.9-0.7
	C362.8,129.8,361.7,129.8,360.6,129.9 M768.9,212.7c1.4-1.6,2.9-3,4.5-4.3c-2.3-0.5-4.5-1-6.8-1.5c-0.4,0.5-0.8,1-1.1,1.5
	c-0.7,1.1-1.5,2.1-2.4,3C765,211.8,766.9,212.2,768.9,212.7 M779,214.9c1.8-1.4,3.6-2.8,5.5-4.1c-0.4-0.1-0.8-0.2-1.1-0.3
	c-2.9,1.2-5.9,2.3-9,3.3c1.5,0.3,2.9,0.7,4.4,1C778.8,214.9,778.9,214.9,779,214.9 M318.1,132.4c-0.1,0.2-0.2,0.5-0.3,0.8
	c0,0,0,0,0,0c1.5-0.1,3-0.1,4.5-0.2c0.3-0.3,0.6-0.6,0.9-0.8C321.4,132.2,319.8,132.3,318.1,132.4 M791.4,639.9l-0.1-1.3
	c-0.2-0.1-0.4-0.2-0.7-0.3l0.1,1.3C790.9,639.7,791.2,639.8,791.4,639.9 M805.6,215.8c-0.6-0.1-1.2-0.3-1.9-0.4
	c-3.5-0.9-7.1-1.7-10.6-2.5c-1.6,1.1-3.3,2.2-4.9,3.4c-0.4,0.2-0.9,0.4-1.3,0.5c1.4,0.3,2.8,0.7,4.3,1c0.1,0,0.2,0,0.3,0.1
	C796.2,217.3,801,216.6,805.6,215.8 M158.7,153.6c-0.2-0.9-0.3-1.6-0.2-2.3l-0.4,0.2c-0.1,0.7,0,1.4,0.2,2.2
	C158.5,153.7,158.6,153.6,158.7,153.6 M414.1,458c-0.1,0-0.1,0.1-0.2,0.1c4.3,0.8,8.5,1.6,12.8,2.4c0.1,0,0.2,0,0.3-0.1
	C422.7,459.7,418.4,458.8,414.1,458 M796.2,642.3l-0.1-1c-0.4,0.1-0.9,0.2-1.3,0.3C795.3,641.8,795.7,642.1,796.2,642.3
	 M794.6,640.2c-0.6-0.3-1.2-0.6-1.8-0.9l0.1,1.2C793.4,640.4,794,640.3,794.6,640.2 M857.3,572.4l0.4-0.1c-0.3,0-0.5,0-0.8,0
	L857.3,572.4z M821.2,223.5c0-0.8-0.1-1.6-0.3-2.4c-1.2,0.3-2.4,0.5-3.5,0.8c-5.9,1.2-11.9,2.2-18.1,3c-0.2,0.9-0.4,1.8-0.9,2.6
	c7-0.9,13.8-2,20.4-3.4C819.5,223.9,820.4,223.7,821.2,223.5 M401.8,57.2c0.2-0.3,0.4-0.5,0.6-0.8c-1.4,0.2-2.8,0.4-4.2,0.6
	c-0.3,0.7-0.5,1.4-0.8,2.1c0.4,0,0.8,0.1,1.2,0.1C399.8,58.7,400.8,58,401.8,57.2 M336.7,109.9c-0.1,0-0.1,0.1-0.2,0.1
	c-1.6,1.3-2.2,3.2-3.1,4.6l7.4-1.8c0.3-0.7,0.5-1.4,0.9-1.9c0.1-0.2,0.2-0.5,0.4-0.7C340.3,110,338.5,109.9,336.7,109.9
	 M331.6,120.7c-0.6,1.1-1.5,1.9-3.4,1.5c0.1,0.2,0.2,0.4,0.3,0.7c1.4-0.2,2.9-0.4,4.4-0.6l-1.2-1.5L331.6,120.7z M206.7,162.8
	c-0.2,0.1-0.4,0.1-0.6,0.2c4.5,0.2,9.1,0.3,13.6,0.4c0.2-0.1,0.5-0.1,0.7-0.2C215.9,163.1,211.3,163,206.7,162.8 M406.3,456.5
	c0,0-0.1,0-0.1,0.1c2.4,0.5,4.8,1,7.1,1.4c0,0,0.1-0.1,0.1-0.1C411.1,457.4,408.7,457,406.3,456.5 M406.5,462.1
	c-0.8,0.5-1.5,0.9-2.3,1.4c1.9-0.2,3.9-0.4,5.8-0.6C408.9,462.5,407.7,462.3,406.5,462.1 M703.2,610.4c0.3-0.1,0.7-0.2,1-0.4
	c-0.4,0.1-0.8,0.2-1.2,0.3C703.1,610.3,703.1,610.4,703.2,610.4 M743.9,650.7c-0.1,0-0.2,0.1-0.3,0.1c0.1,0,0.2,0,0.3,0L743.9,650.7
	z M809.9,615.2c-0.6-0.3-1.2-0.6-1.8-0.9l-0.4,0.2c0.5,0.3,1.1,0.5,1.6,0.8C809.5,615.3,809.7,615.3,809.9,615.2L809.9,615.2z
	 M843.6,556.4c-0.8-0.3-1.5-0.6-2.3-0.9c-0.4,0.1-0.8,0.3-1.1,0.4C841.3,556.2,842.5,556.3,843.6,556.4 M704.5,160.2
	c-1.3,0.7-2.8,1.3-4.3,1.9c2.8,0,5.6-0.1,8.4-0.1c0.6-0.3,1.1-0.6,1.7-0.9c-0.3,0.3-0.6,0.6-1,0.9c0.5,0,1,0,1.4,0
	c0.7-0.6,1.5-1,2.6-1c0.7-0.2,1.4-0.5,2-0.8c-1.1,0-2.2,0-3.3,0c-0.5,0.3-1.1,0.7-1.6,1c0.3-0.3,0.7-0.6,1-1
	C709.1,160.1,706.8,160.2,704.5,160.2 M485.2,114.8c-0.8,0.1-1.5,0.3-2.3,0.4l-14.3,2.3l-7.2,1.1l-7,1c0.8,0.1,1.7,0.2,2.5,0.4
	c3.7-0.5,7.3-1.1,10.9-1.7c7.9-1.3,15.8-2.6,23.7-3.8C489.5,114.6,487.4,114.7,485.2,114.8 M153.5,321.4c-0.6,0.4-1.3,0.8-1.9,1.1
	c1.1,0.1,2.3,0.2,3.4,0.2C154.5,322.2,154,321.8,153.5,321.4 M308.8,438c0.8,0.3,1.5,0.6,2.3,0.9c0.8-0.5,1.6-1.1,2.3-1.7
	C311.9,437.4,310.3,437.6,308.8,438 M400.2,460.7c-1,0.9-1.9,1.9-2.7,2.9c0.5,0.1,1,0.2,1.5,0.3c1-0.1,1.9-0.2,2.9-0.3
	c1.3-0.6,2.5-1.2,3.8-1.8C403.8,461.5,402,461.1,400.2,460.7 M366.4,477.9c0.1-0.3,0.2-0.6,0.2-0.9
	C366.4,477.2,366.3,477.5,366.4,477.9 M677.1,611.8c1.9,0.5,3.8,1,5.7,1.6c1-0.7,2-1.3,3.1-1.9c-1.2-0.3-2.4-0.7-3.7-1
	c-0.6,0.1-1.2,0.2-1.8,0.4C679.3,610.9,678.2,611.3,677.1,611.8 M685.5,614.1l1.6,0.4c1.8-0.5,3.6-0.9,5.4-1.3
	c-0.4-0.1-0.8-0.2-1.2-0.3C689.3,613.3,687.4,613.7,685.5,614.1 M740.8,643.1l0.5,1.4c0.1-0.1,0.3-0.1,0.4-0.2l-0.5-1.4
	C741.1,643,740.9,643.1,740.8,643.1 M765.4,652.8c2.2,0,4.5,0,6.7-0.1c0-0.1-0.1-0.2-0.2-0.4c-1.8,0.1-3.5,0.1-5.3,0.1
	C766.2,652.5,765.8,652.6,765.4,652.8 M820.9,621.1l0.4-0.2l-3.4-1.7l-0.4,0.2L820.9,621.1z M853.4,604.1c0.7-0.2,1.4-0.3,2-0.5
	c-0.3,0-0.6,0-0.9,0c0.6-0.3,1.3-0.7,1.9-0.9c-0.1,0-0.2,0-0.3,0l-1.9,1C854,603.8,853.7,603.9,853.4,604.1 M852.6,596.2l6.9-3.5
	c-1.3,0-2.5,0.1-3.8,0.1l-9,4.5C848.7,596.9,850.7,596.6,852.6,596.2 M869.8,587.6l1.7-0.8c-0.4,0.1-0.9,0.1-1.3,0.2
	C870,587.1,869.9,587.3,869.8,587.6 M867.1,575c-0.5-0.2-0.9-0.4-1.4-0.6c-0.9,0.1-1.9,0.2-2.8,0.3c1.2,0.1,2.4,0.2,3.5,0.4
	C866.7,575,866.9,575,867.1,575 M868.1,555.6c0.8-0.4,1.5-0.9,2.2-1.5c-0.3-1-0.7-2-1-3l-1,1.1c-0.2,0-0.3,0-0.5,0
	c0.6,0.2,1.1,0.3,1.7,0.5C869.1,553.7,868.6,554.7,868.1,555.6 M972.4,276.8c-0.1,0-0.1,0-0.2-0.1c-0.2,0.1-0.4,0.2-0.6,0.4
	C971.9,277,972.1,276.9,972.4,276.8 M623.8,133.6c-0.3,0-0.6,0-0.9,0.1c0.3,0.3,0.7,0.5,1,0.8c0.3,0,0.6,0,0.9-0.1
	C624.5,134.1,624.2,133.9,623.8,133.6 M554.2,140.3c-0.1,0-0.3,0-0.4,0c0.9,0.1,1.9,0.3,2.8,0.5c0.1,0,0.2,0,0.4,0
	C556.1,140.6,555.1,140.4,554.2,140.3 M365,63.6c-0.6,1.9-1.3,3.7-2.2,5.2c0.9-0.2,2.4,0.2,3.3-0.3c0.1-1.6,0.2-3.2,0.4-4.9
	c0-0.2,0.1-0.3,0.1-0.4C366,63.4,365.5,63.5,365,63.6 M243.8,104.9c0.2,0,0.3,0,0.5,0c1.4,0.2,2.8-0.1,4.1-0.5
	c-0.3-0.6-0.7-1.2-1.3-1.8C245.2,100.9,244.7,103,243.8,104.9 M237.9,133.5c-2.6,0.3-5.2,0.5-7.8,0.8c3.4,0.1,6.8,0.1,10.1,0.1
	l0.9-0.4c0.9,0.2,1.8,0.3,2.7,0.5c0.2,0,0.5,0,0.7,0c0.4-0.3,0.7-0.6,1.1-0.8C243.1,133.6,240.5,133.5,237.9,133.5 M152.3,129.8
	c-1.3,0.2-2.7,0.4-4,0.6c10.2,0.8,20.5,1.4,30.7,1.9c0.8-0.1,1.5-0.2,2.2-0.2c0.8,0.2,1.6,0.3,2.4,0.5c6.6,0.3,13.2,0.6,19.7,0.9
	c0.9-0.2,1.8-0.5,2.7-0.8c-6.9-0.2-13.8-0.5-20.8-0.9c-1.3,0.1-2.7,0.2-4,0.3c-1.1-0.2-2.3-0.5-3.4-0.7
	C169.3,131,160.8,130.4,152.3,129.8 M123.1,155.1c0.5,1.6,1,3.1,1.7,4.6c0.3-0.1,0.7-0.2,1-0.3c-0.7-1.5-1.2-3.1-1.7-4.7
	C123.8,154.9,123.5,155,123.1,155.1 M161.8,230.6L161.8,230.6c2.3-0.1,4.5-0.3,6.7-0.6c0-0.2-0.1-0.4-0.1-0.6
	C166.2,229.8,164,230.2,161.8,230.6 M138.5,321.5c0.1,0,0.2,0,0.4,0c0-0.1,0.1-0.1,0.1-0.2c3.6-1.1,7.3-2.2,11.1-3.3
	c-0.6-0.7-1.3-1.3-1.9-2c-1.8,0.1-3.5,0.4-5.1,1.1c-1.4,0.4-2.8,2.1-4.1,4.3C138.8,321.4,138.7,321.5,138.5,321.5 M122.6,320.3
	c-0.1,0-0.3,0.1-0.4,0.1l0.3,0C122.5,320.4,122.5,320.4,122.6,320.3 M117.1,321.9c-2.3,0.7-4.7,1.4-7,2.2c2.7,0.1,5.3,0.3,8,0.5
	c0.7-0.5,1.4-1.2,2-2c0.2-0.2,0.4-0.3,0.5-0.5C119.4,322.1,118.3,322,117.1,321.9 M147.3,413.8c0.8,0.3,1.6,0.6,2.4,1
	c-0.1-0.4-0.2-0.8-0.3-1.1C148.8,413.7,148,413.8,147.3,413.8 M298.5,443.9c0.2,0,0.5-0.1,0.7-0.1c0,0,0,0,0.1-0.1
	c1.7-0.4,3.4-0.9,5-1.3c1.9-0.7,3.6-1.5,5.1-2.5c-1.1-0.4-2.2-0.8-3.3-1.2l0,0c-0.1,0-0.2,0.1-0.4,0.1c-2.4,0.6-4.5,2.5-6.6,4.9
	C299,443.8,298.8,443.8,298.5,443.9 M341.5,449.2c1.6,0.5,3.1,1,4.7,1.4c0.9-0.9,1.9-1.8,2.9-2.7c-1.5-0.4-2.9-0.9-4.4-1.3
	c-0.1,0.1-0.3,0.1-0.4,0.2C343.5,447.7,342.5,448.4,341.5,449.2 M344.7,487.4c2.5,0.1,5,0.1,7.4,0.2c0.9-0.4,1.7-0.8,2.6-1.3
	c3.4-2.7,8.2-4.8,10.6-6.9C358.6,481.9,350.8,484.1,344.7,487.4 M476.4,548.6c0.8-0.1,1.7-0.2,2.5-0.2c-2.9-0.8-5.7-1.6-8.6-2.3
	c-0.9,0.1-1.7,0.1-2.5,0.2C470.7,547.1,473.5,547.8,476.4,548.6 M519.1,566c-0.2,0.9-0.5,1.8-0.7,2.7l5.9,1.6c1.7-0.2,3.4-0.4,5-0.7
	c-0.1-0.3-0.3-0.6-0.4-0.9c-0.6-0.2-1.2-0.3-1.8-0.5c-0.9,0.2-1.7,0.3-2.5,0.2c0-0.3,0-0.6,0-0.9L519.1,566z M520.3,570.5
	c-0.7-0.2-1.5-0.4-2.2-0.6c0,0.2-0.1,0.4-0.1,0.7C518.8,570.6,519.6,570.5,520.3,570.5 M514.4,569.9c0,0.1-0.1,0.1-0.1,0.2
	c0.1,0,0.1,0,0.2,0C514.4,570,514.4,569.9,514.4,569.9 M662.1,622.6c-0.7,0.5-1.4,1-2,1.5c2.9-0.8,5.8-1.6,8.7-2.5
	c3.8-1.2,7.2-3.5,11-4.7c1.6-0.7,3.3-1.3,5.1-1.8c-0.6-0.2-1.2-0.3-1.8-0.5c-1,0.2-2,0.5-3,0.7c0.5-0.4,1.1-0.7,1.6-1.1
	c-2-0.5-3.9-1.1-5.9-1.6c-2.1,1.3-4.4,2.7-7.5,2.9c-2.9,0.6-5.2,1.4-7.3,2.2c-1.5,1.2-2.9,2.6-4.1,4.1l1.1,0.4c-0.1,0-0.1,0-0.2,0
	C659.2,622.5,660.7,622.7,662.1,622.6 M737.8,644.4l0.5,1.4c0.7-0.3,1.4-0.6,2.1-0.9l-0.5-1.4C739.2,643.8,738.5,644.1,737.8,644.4
	 M842.1,631.4l-1.8-0.9c-0.3,0-0.6-0.1-0.9-0.1l2.1,1.1C841.7,631.5,841.9,631.5,842.1,631.4 M822.7,621.7l-0.4,0.2l16.6,8.4
	c0.1-0.1,0.2-0.2,0.2-0.3L822.7,621.7z M844.4,611.1c-3.6,0.5-7.2,1-10.8,1.4l-6.7,2.9l3.4,1.7l8.2-3.5L844.4,611.1z M896.9,584.5
	c-1,0.1-2,0.1-3,0.2c1.7-0.4,3.4-0.9,5.1-1.3l0.1,0l2.4-1.3l0.4-0.2c-3,1-6,1.9-8.9,2.9c-1.1,0.1-2.1,0.2-3.2,0.2l-14.9,7.8
	l-0.9,0.5c2.6-0.3,5.2-0.5,7.9-0.8L896.9,584.5z M904.8,580.9L904.8,580.9l0.5,0.2l0.2,0.1c0.1,0-0.1,0.1-0.1,0.1l-1.2,0.6l0,0
	c10.3-2.8,19.9-5.7,29.2-9C923.6,575.3,914.1,578,904.8,580.9 M892.1,576.6c-1.2,0.4-2.3,0.8-3.5,1.1l0.8,0.3l0,0
	c1.3-0.3,2.5-0.7,3.8-1L892.1,576.6z M883,572.8c-1.7,0.1-3.4,0.3-5.2,0.4l1.6,0.7c1.9-0.1,3.8-0.1,5.8-0.2L883,572.8z M952.8,474.7
	c0-0.3-0.1-0.7-0.2-1c0.5,0,1,0,1.5-0.1c-1.6-0.9-1.6-0.5-1.5,0.1c-2.1,0.1-3.9,0.3-5.7,0.5C948.8,474.3,950.8,474.5,952.8,474.7
	 M960.9,461.8c-0.1,0-0.3,0.1-0.4,0.1c0,0,0.1,0,0.1,0C960.7,461.9,960.8,461.8,960.9,461.8 M948,460.4
	C947.9,460.5,947.9,460.5,948,460.4c0.1,0,0.2,0,0.2,0C948.1,460.5,948,460.5,948,460.4 M947.8,411.6c4.6-1.5,9-3.1,13.4-4.8
	c-4.3,1.1-8.6,2.4-12.8,3.7C948.2,410.9,948,411.3,947.8,411.6 M977.2,302.5c6-1.6,11.5-4,17.1-6c0-0.1,0.1-0.1,0.1-0.2
	c-0.2,0-0.3,0.1-0.5,0.1c0.2-0.1,0.4-0.1,0.6-0.2c0.1-0.1,0.2-0.3,0.3-0.4c-2.6-0.1-5.3-0.1-7.9-0.1c-3.9,1.7-7.1,4.5-11,6.9
	C976.3,302.5,976.7,302.5,977.2,302.5 M1025.7,263.8l-0.6-2.5l-0.7,1c-3.6-0.6-6.7-2.2-9.8-3c-0.1,0-0.1,0-0.2,0
	c-1,0.6-2,1.1-3.1,1.6c1.4,0.4,2.8,0.8,4.2,1.1c-1.4,0.7-2.7,1.5-3.9,2.4c-3.1,0.8-7.6-0.3-9.4,1.6c-6.5,5.7-15.6,3.3-23.5,6.9
	c-0.9,0.5-1.9,1.1-3,1.7c0,0.4-0.1,0.7-0.2,1.1c1.4-0.4,2.7-0.9,4.1-1.2c6.1-1.7,12.3-3.1,18.1-5.2c3.4-1.1,7.3-1.1,11.1-1.1
	c6-0.6,11.7-1.3,15.7-4.2c0.1-0.1,0.3-0.2,0.4-0.3C1025.1,263.8,1025.4,263.8,1025.7,263.8 M1002.7,238.1c-0.1,0-0.1,0-0.2,0
	c-0.1,0-0.1,0.1-0.2,0.1C1002.4,238.2,1002.6,238.2,1002.7,238.1 M970.5,237.3c1.6,0,3.2,0,4.9,0c-0.6,0.8-1.2,1.6-1.8,2.3
	c-1.3,0.4-2.7,0.8-4,1.1c1.2-0.2,2.4-0.5,3.6-0.7c0.1-0.2,0.3-0.3,0.4-0.5c4.1-1.2,8.1-2.3,12.2-3.5c-1.9-0.2-3.8-0.2-5.7-0.2
	l-1.8,1.5c-1-0.1-1.9-0.1-2.9-0.1c0.3-0.4,0.6-0.8,0.9-1.2C974.2,236.3,972.3,236.7,970.5,237.3 M861.3,147.9
	C861.3,147.9,861.3,147.9,861.3,147.9c-0.1,0.3-0.2,0.7-0.2,1c0.2,0.1,0.4,0.2,0.6,0.3c1.2,0.5,2.4,1.1,3.6,1.7
	c1.2,0.6,2.4,1.2,3.6,1.9c2.5,1.3,4.8,2.8,7.1,4.3c9.1,6.2,17,13.7,22.7,22.4c2.8,4.4,5.1,9.1,6.4,14c1.3,4.9,1.7,9.9,0.8,14.6
	c-0.7,4.1-2.3,7.9-4.4,11.1c-2.1,3.3-4.7,6.1-7.6,8.6c-2.7,2.3-5.5,4.2-8.4,6c0.8,0.1,1.6,0.1,2.4,0.2c2.5-1.6,5-3.4,7.3-5.4
	c2.9-2.5,5.5-5.4,7.6-8.7c2.1-3.3,3.7-7.2,4.5-11.3c0.9-4.9,0.5-10.2-0.9-15.2c-1.4-5.1-3.8-9.9-6.7-14.5c-3-4.5-6.5-8.7-10.5-12.5
	c-4-3.8-8.4-7.3-13.1-10.5l-3.6-2.3l-3.8-2.1C866.2,150.2,863.8,149,861.3,147.9 M850.6,143.8c-0.3,0.3-0.5,0.5-0.8,0.8
	c1.9,0.6,3.9,1.4,5.8,2.1c0.1-0.2,0.2-0.3,0.4-0.5c0.1-0.1,0.2-0.2,0.3-0.3C854.4,145.1,852.5,144.4,850.6,143.8 M636.8,132.7
	c0.3,0.3,0.6,0.5,0.8,0.8c25.2-1.6,50.6-2.5,76.5-2.5c7.1,0,14.2,0.1,21.4,0.3c0.5-0.3,1-0.7,1.6-0.9c-8.4-0.2-16.7-0.4-24.9-0.3
	l-6.4,0l-6.4,0.1l-12.8,0.2l-12.7,0.4l-6.4,0.2l-6.3,0.3l-12.6,0.6L636.8,132.7z M533.1,109.2l-6,0.3l-2.6,0.2
	c1.7,0.3,4.2-0.2,6.9-0.4c0.1,0.2,0.2,0.4,0.3,0.6c0.1,0,0.1,0,0.2,0c8-0.4,16.1-0.3,23.9,0.3c7.8,0.6,15.4,1.8,22.5,3.5
	c12.8,3,24.3,7.5,34.5,13.4c0.4,0,0.7-0.1,1.1-0.1c-10.2-5.9-21.5-10.5-34.3-13.7c-7.1-1.7-14.7-3-22.5-3.7
	C549.3,109,541.2,108.8,533.1,109.2 M486.2,73.7c8.6,2.2,19.5,0.9,31.4,1.3c0.1-0.3,0.1-0.5,0.1-0.7c-2.5-0.6-5.1-1-7.7-1.3
	c-2.7-0.2-5.3-0.3-8-0.3c-2.7,0.1-5.3,0.2-8,0.4C491.3,73.3,488.8,73.5,486.2,73.7 M459,37.6c0,0-0.1,0.1-0.1,0.1
	c0.7-0.1,1.4-0.2,2.1-0.2v-0.1C460.3,37.2,459.7,37.1,459,37.6 M415.5,42.3c0.2,0,0.5,0,0.7,0c0-0.2-0.1-0.4-0.3-0.6
	C415.7,41.9,415.6,42.1,415.5,42.3 M379.9,44.7c0.8,0,1.7,0,2.5,0.1c0.6-0.7,1.2-1.3,1.7-2.1c1.6-0.8,3.2-1.5,4.8-2.4
	c0.1,0,0.2,0,0.3,0.1c-1,1.9-2.4,3.3-4,4.5c1.5,0,3,0.1,4.5,0.1c1.6-1,3.2-1.9,4.8-2.8c-1.8-0.5-3.6-1.4-5.3-1.8
	c0.1-0.1,0.1-0.2,0.2-0.3l-0.4,0.2c-1.4-0.3-2.6-0.3-3.6,0.7c-0.4,0.6-0.8,1.1-1.2,1.7C382.7,43.4,381.3,44,379.9,44.7 M192.6,101.3
	l0.2,3l1.1-0.8c4,1.1,7.3,3.1,10.7,4.4c-0.2,0.1-0.4,0.1-0.6,0.2c0.3,0,0.7,0,1,0c2.3,0.8,4.6,1.2,7.2,0.8c1.2-0.3,2.4-0.6,3.6-0.9
	c11.2,0,22.7,0.1,33.1-2.3c-0.1-0.3-0.2-0.6-0.3-0.8c-5.5,0.6-11.5,0.7-17.4,0.6c4-0.4,8.2-0.5,12.3-0.5c-0.3-0.2-0.5-0.4-0.8-0.6
	c1.1-1.1-0.8-3.2-2.3-5c-4.8,0.4-9.6,0.8-14.2,1.5c-2.8,0.4-5.6,0.3-8.5,0c-2.9-0.3-5.8-0.8-8.7-1.2
	C203.1,98.8,197.5,98.6,192.6,101.3 M121.7,147.1c0.4,0,0.8,0.1,1.2,0.1c-0.1-2.2,0-4.4,0.4-6.5l2.3-12l15.3,1.2
	c1.9,0.1,3.8,0.3,5.7,0.4c0.2-0.3,0.4-0.6,0.6-0.9c-2.2-0.2-4.3-0.3-6.5-0.5l-16.1-1.3l-2.5,12.7
	C121.7,142.5,121.6,144.8,121.7,147.1 M112.3,152.8c-0.2-0.9-0.4-1.9-0.5-2.8c-1.7,0.3-3.5,0.5-5.2,0.8c-3.5,0.4-7,0.8-10.5,1.1
	l7.4,0.4l3.7,0.2l3.8,0.2C111.4,152.7,111.8,152.8,112.3,152.8 M87.6,199.6C87.6,199.6,87.7,199.5,87.6,199.6c1.2,0,2.4,0.1,3.6,0.1
	c5.2-1.5,11.4-1.2,17.5-1c-3,0.4-6,0.8-9,1.5c0,0.2,0,0.4,0,0.6c-0.4-0.1-0.7-0.1-1.1-0.1c0.1,0.1,0.1,0.1,0.2,0.2
	c0.3,0,0.6,0,0.9,0c0,0,0-0.1,0-0.1c0.6,0.1,1.1,0.1,1.6,0.2c1.2,0,2.4,0.1,3.6,0.1c2.6,0,5.1-0.1,7.6-0.3c5-0.4,9.9-1.4,14.4-3.7
	c0.1,0,0.1-0.1,0.2-0.1l-6.1-4.7c-5.2,0.6-10.5,0.8-15.6,1.7c-4.1,0.6-8.3-0.7-12.4-1.6c-2.1-0.4-4.1-0.7-6.1-0.6
	c-1,0.1-2,0.2-3,0.6c-1,0.3-2,0.7-3,1.4l-0.2,2.9l0.9-0.8C83.9,196.9,85.8,198.4,87.6,199.6 M111.7,295.4c2,0.8,3.8,2.6,5.5,3.7
	l-0.3,0.2l0.5-0.1c1.2,0.7,2.3,0.9,3.6,0.3c0.6-0.4,1.2-0.8,1.8-1.1c5.1-0.6,10.3-1.1,15.1-3.3c-0.1-0.4-0.1-0.8-0.1-1.2
	c-2.4,0.6-4.8,0.8-7.3,1.1c2.2-0.7,4.4-1.1,6.6-1.2c0.2,0,0.5,0,0.7,0c-0.2-2.2-0.2-4.2,0-6.1c-3.4,0.9-6.8,1.6-10,3
	c-5.5,2.2-12.2-3.5-16.8,2.7l0.2,3L111.7,295.4z M106.5,319.6c2.9,0.2,5.8,0.3,8.6,0.5c0.6-0.3,1.2-0.7,1.7-1.2
	c0.4-0.4,0.8-0.8,1.2-1.3c0.8-0.8,1.7-1.6,2.5-2.3c-3.3,0.9-6.5,1.9-9.8,2.9C109.4,318.6,107.9,319.1,106.5,319.6 M99.7,321
	c-0.5,0.7-1,1.3-1.5,1.9c-0.4,0.2-0.8,0.4-1.3,0.6c1.4,0.1,2.8,0.1,4.2,0.2c-1-0.3-2.1-0.5-3.1-0.6c0.1-0.1,0.1-0.1,0.2-0.2
	c1.4-0.6,2.8-1.2,4.2-1.8C101.5,321.1,100.6,321,99.7,321 M69.2,348.8c1.2,0.2,2.4,0.4,3.6,0.5c-0.2-0.3-0.4-0.7-0.5-1l-13.5-26.6
	l32.3,1.5c0.1-0.5,0.2-1,0.3-1.4c0.4-0.1,1.1-0.5,1.9-1.1c-0.5,0-1.1-0.1-1.6-0.1c-0.1,0.4-0.1,0.8-0.2,1.2
	c-0.8,0.2-1.1-0.4-1.1-1.3l-36.2-1.8L69.2,348.8z M84.1,370.7c0.5,0,1,0,1.5,0c0.7,0,1.5,0,2.2-0.1c-0.7-0.8-1.4-1.5-2-2.3
	c-1.3-0.1-2.6-0.2-3.9-0.3C82.6,369,83.4,369.8,84.1,370.7 M106.1,390.8c2.2-0.2,3.6-0.4,3.6-0.7c-0.1-0.1-0.1-0.1-0.2-0.2
	c-1.5-0.7-3-1.3-4.5-1.9c0.4-0.2,0.9-0.3,1.3-0.5c-1.7-1.3-3.4-2.7-5.1-4.1c-1.1,0.2-2.2,0.5-3.2,0.9
	C100.7,386.6,103.4,388.8,106.1,390.8 M124.1,402.6c0.2-1.3,0.1-2.4-0.3-3.3c-0.5-0.3-1.1-0.6-1.6-0.9c-2-0.2-4.1-0.5-6.2-0.7
	C118.6,399.4,121.3,401,124.1,402.6 M202.7,428.2c1.9-0.7,4-1.5,6.2-2.1c-3.9-0.5-7.9-1-11.9-1.7c-3.1-0.2-6.3-0.6-9.5-1.2
	c0.2-0.2,0.4-0.3,0.5-0.4c-1.4-0.3-2.7-0.5-4.1-0.8c-2.8,0.3-5.6,0.6-8.4,1C184.9,425.2,193.9,426.9,202.7,428.2 M235.4,431.4
	c-0.3-1-0.7-1.9-1.4-2.4c-5.2,0-11,0.5-16.4,1.1c0.5,0,0.9,0.1,1.4,0.1C224.5,430.7,230,431.1,235.4,431.4 M262.2,442.1
	c0.8-0.5,1.6-1.1,2.4-1.6c-7.3,2.2-15,4.1-22.9,5.8c7,0.6,13.5,0.4,18.5-2.7C260.9,443.2,261.6,442.7,262.2,442.1 M226.8,459.3
	c-0.7,0-1.4,0-2.2,0c-2.7,1.1-5.3,2.3-8,3.3c-6.1,2.5-12,5-17.8,7.7c6.6-2.3,13.1-4.7,19.4-7.2C221.2,461.9,224,460.6,226.8,459.3
	 M295.8,445.5c-0.2,0.1-0.4,0.2-0.5,0.3c0.2,0,0.3,0,0.5,0C295.8,445.7,295.8,445.6,295.8,445.5l0.4-0.3c0.5-0.1,1-0.6,1.5-1.1
	c-0.7,0.2-1.3,0.3-2,0.5C295.8,444.9,295.8,445.2,295.8,445.5 M334,461.5c4.2-2.9,7.5-6.3,10.9-9.6c-1.7-0.5-3.3-1-5-1.5
	c-1.8,1.3-3.7,2.5-5.6,3.7c-3.6,2.1-7.4,4-11.3,5.8c-3.9,1.8-7.8,3.5-11.7,5.3c-3.9,1.7-7.8,3.4-11.4,5.3
	c-5.7,2.8-12.7,3.9-19.5,5.2c-6.7,1.3-13,3.1-17.3,7.7l1.5,2.9l0.8-1.2c4.9-0.3,9.5,0.5,13.8,0.6c-0.2,0.1-0.4,0.3-0.5,0.4
	c0.4-0.1,0.7-0.3,1.1-0.4c2.9,0,5.6-0.4,8.3-1.8c1.2-0.7,2.4-1.5,3.6-2.2c7.7-2.6,15.5-5.2,22.9-8.4
	C321.8,470,328.5,466.3,334,461.5 M345.7,526.3c1.4-0.4,2.8-0.8,4.3-1.3c-0.3-0.2-0.6-0.5-0.8-0.7
	C347.8,524.2,346.5,525.1,345.7,526.3 M344.6,530c7.2,0.9,15.1,0.3,23.1-0.4c-2.7-0.5-5.5-0.8-8.4-1.1c0,0-0.1-0.2-0.2-0.6
	c-4.8,0.4-9.7,0.9-14.6,1.3C344.5,529.5,344.5,529.8,344.6,530 M423.5,550.9c-0.1-0.1-0.2-0.2-0.3-0.3c0,0.2,0.1,0.3,0.1,0.5
	C423.3,550.9,423.4,550.9,423.5,550.9 M453.1,552.3c-0.9-0.2-1.8-0.5-2.8-0.8c-2,0.1-3.9,0.2-5.9,0.3c0.2,0.3,0.4,0.5,0.6,0.8
	C447.8,552.7,450.5,552.7,453.1,552.3 M490.4,561c7.4,2,14.8,4,22.2,6c-0.6-0.9-1-1.8-1-2.9c0.2,0,0.4-0.1,0.6-0.1
	c-5.4-1.5-10.9-3-16.3-4.4C494,560,492.2,560.6,490.4,561 M560.6,643c-0.1-0.1-0.2-0.2-0.3-0.3c0.1,0.2,0.1,0.3,0.2,0.5
	C560.4,643,560.5,643,560.6,643 M635.5,630.6c-12.3,1.7-24.5,3.1-37,4.3c-1,0.3-2,0.7-2.9,1.1c-1.4,0.1-3.1,3.2-5.5,4.4
	c-3.2,0.6-6.4,1-9.7,1.5c0.2,0.3,0.5,0.5,0.7,0.8c2.7-0.1,5.4-0.4,8-1.2c7.5-2.5,16.4-5,24.3-6.5C621,633.8,628.3,632.2,635.5,630.6
	 M686.2,639.8l40.4,8.6c3.5,0.8,7.1,1.4,10.6,2c0.5,0,1.1-0.1,1.6-0.1c-4-0.6-8.1-1.3-12.1-2.2l-39.2-8.4
	C686.9,639.7,686.5,639.7,686.2,639.8 M768.9,693.9c-7.5,4.8-18.3,4.6-28.7,6.4c-3.2-0.1-5.6,3.9-9.9,3.8c-5.2,0.9-8,2.8-12.1,3.7
	l3.7,2.1c-7.8-1.1-10.8,4.8-18.8,2.6c0.2,1-0.4,3-1.5,3c-5.2,0.9-11-1.2-14.9,0.7c-5.2,0.9-10.6,0.8-14.5,2.7
	c-1.1,0-2.6,2.9-4.5,3.9c-2.5,0.4-5.1,0.6-7.7,0.8c0.2,0.3,0.3,0.5,0.5,0.8c2.2,0.1,4.3,0,6.3-0.6c6-1.9,13.2-3.7,19.4-4.6
	c15.8-1.7,30-5.4,44.2-9.1c3-0.9,5.8-2.9,8.8-3.8c8.8-3.8,20.9-2.6,25.9-9.4C766.1,695.9,768.2,695.9,768.9,693.9 M860.9,662.9
	c10.1-2.8,23.1,2.4,31.3-4.4c-0.2-1-0.4-2-0.7-3l-0.9,1c-3.9-0.7-7.3-2.3-10.7-3.2c0.2-0.1,0.3-0.2,0.5-0.3
	c-0.3,0.1-0.6,0.1-0.9,0.1c-2.2-0.6-4.5-0.7-6.8,0c-1.1,0.5-2.1,0.9-3.2,1.3c-13.1,1.5-26.7,2.8-37.5,8.8
	c-6.9,2.8-12.2,7.7-19.1,10.6c2.2,0,5.6,1.1,7.6,0.1C832.8,667.3,847.7,666.6,860.9,662.9 M934.2,675.5c3.4-1.2,6.7-2.4,10-3.8
	c16.1-5,36.8-2.8,54.9-4.8c-0.1-2.9-0.7-5.9-2.1-9c-21-3.7-40,1.3-60.6-0.8c-0.1,0.1-0.3,0.2-0.4,0.3c-7.3,5.8-21.8,3.6-31.5,8.3
	c-9.5,5.8-19.8,7.6-29.5,12.4c15.6,0.3,30-1.6,45.8,0.6C925.2,677.5,929.7,676.5,934.2,675.5 M805.4,723.6c4.1-0.5,8.2-1,12.4-1.6
	c11.4-2.1,21.3-4.9,31.3-8.3c-7.8,0.4-15.8,0.5-23.8,0.4C817.5,715,811.8,719.9,805.4,723.6 M857.3,710.9c-2.7,1-5.4,1.9-8.1,2.9
	c11.6-0.5,23-1.5,34.4-2.6c18.3-3.7,36.7-6.9,54.7-11.7c2.1-0.5,4.1-0.9,6.2-1.2c-36-1.8-71.8-3.7-99.3,8.3
	c-0.5,0.3-1.1,0.5-1.6,0.7c14.3-0.4,28.2-1.6,42.1-2.9C876.1,706.3,866.6,708.3,857.3,710.9 M916.6,679.8c1.1,0.1,2.1,0.1,3.1,0.2
	c1.1-0.3,2.2-0.6,3.4-0.9c-0.8-0.1-1.5-0.2-2.2-0.3C919.4,679,918,679.4,916.6,679.8 M879.9,653.3c-0.1,0-0.3-0.1-0.4-0.1
	c-3.3,0.5-6.7,0.9-10.1,1.3c-4.4,1.7-9.1,3.2-14,4.2C864.5,657.8,873.5,656.8,879.9,653.3 M1069.9,307.4c6.2,0.3,10.1-1.2,16-1.2
	c-0.1-0.6-0.1-0.9,1.1,0c-0.4,0-0.7,0-1.1,0c0.1,0.6,0.3,1.4-0.1,1.7c3.6-0.9,7.8-1.8,12.1-1.9c0.4-1,0.7-2.1,1-3.1
	C1088.3,303,1077.7,302.5,1069.9,307.4 M1098.6,297c0.4,0,0.7,0,1.1,0C1098.5,296,1098.5,296.4,1098.6,297 M932.9,233.5
	c-1.1,0-3.3-0.1-4.4-0.2c-0.5,0.6-1.1,1.2-1.6,1.7c1,0.1,2.1,0.2,3.1,0.3L932.9,233.5z M1122,304.8c-0.1-0.6-0.1-0.9,1,0
	C1122.6,304.8,1122.3,304.8,1122,304.8c0.1,0.6,0.3,1.4-0.1,1.7c3.2-0.9,6.9-1.8,10.7-1.9c0.3-1,0.6-2.1,0.9-3.1
	c-9.4,0.1-18.9-0.5-25.6,4.5C1113.3,306.2,1116.8,304.7,1122,304.8 M1134.2,295.5c-1-0.9-1.1-0.6-1,0
	C1133.6,295.5,1133.9,295.5,1134.2,295.5 M958.3,323.5c-5.5,1.9-10.6,4.2-14.8,7.7C949.9,331,954.1,327.3,958.3,323.5 M1049.4,237.8
	c3.9-2.8,6.4-4,7.9-4.2c0.4-1.4,1-3.1,1.8-5.2c-0.3,0-0.5,0-0.8,0c-4.3,1.7-8.8,3.2-13.2,4.6c-1.7,1.2-3.3,2.5-4.5,4.2
	C1043.5,237.4,1046.5,237.7,1049.4,237.8 M1057.3,233.6C1054,245.4,1063.2,232.5,1057.3,233.6 M954.6,333c3.4-0.7,6.8-1.6,10.3-2.3
	c4.8-1.3,9.2-2.8,13.5-4.5c2.1-0.8,4.2-1.7,6.3-2.6c2.1-0.9,4.2-1.8,6.3-2.7c-6.8,0.6-13.5,1.2-20.5,1.4
	C963.9,323.6,959.5,328.8,954.6,333"/>
</svg>
